SplineFontDB: 3.2
FontName: Kilroy4-Italic
FullName: Kilroy4 Italic
FamilyName: Kilroy4
Weight: Book
Copyright: Copyright 2020 The Roboto Serif Project Authors (https://github.com/googlefonts/RobotoSerif) OFL
Version: 1.008
ItalicAngle: -10
UnderlinePosition: -200
UnderlineWidth: 100
Ascent: 800
Descent: 200
InvalidEm: 0
sfntRevision: 0x0001020c
LayerCount: 2
Layer: 0 1 "Back" 1
Layer: 1 1 "Fore" 0
XUID: [1021 1018 -1064020043 22403]
StyleMap: 0x0001
FSType: 0
OS2Version: 4
OS2_WeightWidthSlopeOnly: 0
OS2_UseTypoMetrics: 1
CreationTime: 1586439944
ModificationTime: 1751867638
PfmFamily: 81
TTFWeight: 400
TTFWidth: 5
LineGap: 0
VLineGap: 0
Panose: 0 0 0 0 0 0 0 0 0 0
OS2TypoAscent: 927
OS2TypoAOffset: 0
OS2TypoDescent: -244
OS2TypoDOffset: 0
OS2TypoLinegap: 0
OS2WinAscent: 1048
OS2WinAOffset: 0
OS2WinDescent: 251
OS2WinDOffset: 0
HheadAscent: 927
HheadAOffset: 0
HheadDescent: -244
HheadDOffset: 0
OS2SubXSize: 650
OS2SubYSize: 600
OS2SubXOff: -13
OS2SubYOff: 75
OS2SupXSize: 650
OS2SupYSize: 600
OS2SupXOff: 62
OS2SupYOff: 350
OS2StrikeYSize: 100
OS2StrikeYPos: 311
OS2CapHeight: 710
OS2XHeight: 518
OS2Vendor: 'COMM'
OS2CodePages: 20000193.00000000
OS2UnicodeRanges: a10000ef.4000267b.00000000.00000000
Lookup: 5 0 0 "'locl' Localized Forms in Latin lookup 0" { "'locl' Localized Forms in Latin lookup 0 subtable"  } ['locl' ('latn' <'AZE ' 'CRT ' 'TRK ' > ) ]
Lookup: 1 0 0 "Single Substitution lookup 1" { "Single Substitution lookup 1 subtable"  } []
Lookup: 5 0 0 "'locl' Localized Forms in Latin lookup 2" { "'locl' Localized Forms in Latin lookup 2 subtable"  } ['locl' ('latn' <'PLK ' > ) ]
Lookup: 1 0 0 "Single Substitution lookup 3" { "Single Substitution lookup 3 subtable"  } []
Lookup: 6 0 0 "'locl' Localized Forms in Latin lookup 4" { "'locl' Localized Forms in Latin lookup 4 subtable"  } ['locl' ('latn' <'CAT ' > ) ]
Lookup: 4 0 0 "Ligature Substitution lookup 5" { "Ligature Substitution lookup 5 subtable"  } []

StartChar: .notdef
Encoding: 256 -1 0
Width: 400
GlyphClass: 1
Flags: W
LayerCount: 2
Fore
SplineSet
0 0 m 1,0,-1
 0 700 l 1,1,-1
 400 700 l 1,2,-1
 400 0 l 1,3,-1
 0 0 l 1,0,-1
50 650 m 1,4,-1
 50 50 l 1,5,-1
 350 50 l 1,6,-1
 350 650 l 1,7,-1
 50 650 l 1,4,-1
EndSplineSet
EndChar

StartChar: A
Encoding: 65 65 4
Width: 700
GlyphClass: 2
Flags: W
AnchorPoint: "Anchor-2" 553 0 basechar 0
AnchorPoint: "Anchor-1" 342 0 basechar 0
AnchorPoint: "Anchor-0" 426 721 basechar 0
LayerCount: 2
Fore
SplineSet
199 302 m 1,0,-1
 456 302 l 1,1,-1
 459 225 l 1,2,-1
 165 225 l 1,3,-1
 199 302 l 1,0,-1
415 690 m 1,4,-1
 445 689 l 1,5,-1
 115 99 l 2,6,7
 114 93 114 93 120.5 87.5 c 128,-1,8
 127 82 127 82 143 79 c 128,-1,9
 159 76 159 76 185 76 c 2,10,-1
 195 76 l 1,11,-1
 177 0 l 1,12,-1
 -65 0 l 1,13,-1
 -48 76 l 1,14,-1
 -42 76 l 2,15,16
 -12 76 -12 76 7.5 88 c 128,-1,17
 27 100 27 100 49 140 c 2,18,-1
 380 722 l 1,19,-1
 508 722 l 1,20,-1
 544 140 l 2,21,22
 547 100 547 100 562 88 c 128,-1,23
 577 76 577 76 606 76 c 2,24,-1
 612 76 l 1,25,-1
 595 0 l 1,26,-1
 338 0 l 1,27,-1
 355 76 l 1,28,-1
 365 76 l 2,29,30
 392 76 392 76 410 77.5 c 128,-1,31
 428 79 428 79 438 81.5 c 128,-1,32
 448 84 448 84 449 87 c 2,33,-1
 415 690 l 1,4,-1
EndSplineSet
EndChar

StartChar: B
Encoding: 66 66 11
Width: 690
GlyphClass: 1
Flags: W
LayerCount: 2
Fore
SplineSet
369 336 m 2,0,-1
 238 336 l 1,1,-1
 172 75 l 1,2,-1
 322 75 l 2,3,4
 368 75 368 75 402 83.5 c 128,-1,5
 436 92 436 92 458 110 c 128,-1,6
 480 128 480 128 490.5 156.5 c 128,-1,7
 501 185 501 185 501 224 c 0,8,9
 501 262 501 262 486.5 286.5 c 128,-1,10
 472 311 472 311 442.5 323.5 c 128,-1,11
 413 336 413 336 369 336 c 2,0,-1
421 635 m 2,12,-1
 313 635 l 1,13,-1
 255 408 l 1,14,-1
 391 408 l 2,15,16
 424 408 424 408 451 416.5 c 128,-1,17
 478 425 478 425 497.5 441 c 128,-1,18
 517 457 517 457 527.5 482.5 c 128,-1,19
 538 508 538 508 538 544 c 0,20,21
 538 575 538 575 526.5 595 c 128,-1,22
 515 615 515 615 489.5 625 c 128,-1,23
 464 635 464 635 421 635 c 2,12,-1
437 372 m 1,24,-1
 452 382 l 1,25,-1
 445 357 l 1,26,-1
 435 371 l 1,27,28
 489 368 489 368 527 347 c 128,-1,29
 565 326 565 326 585.5 292 c 128,-1,30
 606 258 606 258 606 214 c 0,31,32
 606 160 606 160 586.5 120 c 128,-1,33
 567 80 567 80 530.5 53.5 c 128,-1,34
 494 27 494 27 441 13.5 c 128,-1,35
 388 0 388 0 321 0 c 2,36,-1
 -31 0 l 1,37,-1
 -13 76 l 1,38,-1
 -2 76 l 2,39,40
 33 76 33 76 54.5 83 c 128,-1,41
 76 90 76 90 81 112 c 2,42,-1
 204 598 l 2,43,44
 209 619 209 619 192 626.5 c 128,-1,45
 175 634 175 634 139 634 c 2,46,-1
 129 634 l 1,47,-1
 147 710 l 1,48,-1
 437 710 l 2,49,50
 506 710 506 710 551 691 c 128,-1,51
 596 672 596 672 618 638.5 c 128,-1,52
 640 605 640 605 640 558 c 0,53,54
 640 503 640 503 617 463 c 128,-1,55
 594 423 594 423 548.5 399.5 c 128,-1,56
 503 376 503 376 437 372 c 1,24,-1
EndSplineSet
EndChar

StartChar: C
Encoding: 67 67 12
Width: 742
GlyphClass: 2
Flags: W
AnchorPoint: "Anchor-1" 387 0 basechar 0
AnchorPoint: "Anchor-0" 387 741 basechar 0
LayerCount: 2
Fore
SplineSet
361 53 m 0,0,1
 406 53 406 53 443 66 c 128,-1,2
 480 79 480 79 509 102.5 c 128,-1,3
 538 126 538 126 561 159.5 c 128,-1,4
 584 193 584 193 603 234 c 1,5,-1
 673 205 l 1,6,7
 641 135 641 135 597 83.5 c 128,-1,8
 553 32 553 32 493 3.5 c 128,-1,9
 433 -25 433 -25 354 -25 c 0,10,11
 285 -25 285 -25 229 -4.5 c 128,-1,12
 173 16 173 16 133.5 55 c 128,-1,13
 94 94 94 94 72.5 149.5 c 128,-1,14
 51 205 51 205 51 277 c 0,15,16
 51 345 51 345 67 411.5 c 128,-1,17
 83 478 83 478 114 536 c 128,-1,18
 145 594 145 594 190 639 c 128,-1,19
 235 684 235 684 294.5 709.5 c 128,-1,20
 354 735 354 735 426 735 c 0,21,22
 478 735 478 735 518.5 721.5 c 128,-1,23
 559 708 559 708 587.5 680 c 128,-1,24
 616 652 616 652 632.5 610.5 c 128,-1,25
 649 569 649 569 652 511 c 1,26,-1
 628 555 l 1,27,-1
 682 720 l 1,28,-1
 759 720 l 1,29,-1
 694 461 l 1,30,-1
 616 461 l 1,31,32
 612 529 612 529 589.5 572.5 c 128,-1,33
 567 616 567 616 525.5 636.5 c 128,-1,34
 484 657 484 657 424 657 c 256,35,36
 364 657 364 657 319 632.5 c 128,-1,37
 274 608 274 608 243 566 c 128,-1,38
 212 524 212 524 193.5 472 c 128,-1,39
 175 420 175 420 166 365 c 128,-1,40
 157 310 157 310 157 260 c 0,41,42
 157 207 157 207 170 167.5 c 128,-1,43
 183 128 183 128 207.5 103 c 128,-1,44
 232 78 232 78 270.5 65.5 c 128,-1,45
 309 53 309 53 361 53 c 0,0,1
EndSplineSet
EndChar

StartChar: D
Encoding: 68 68 14
Width: 778
GlyphClass: 2
Flags: W
AnchorPoint: "Anchor-1" 389 0 basechar 0
AnchorPoint: "Anchor-0" 389 741 basechar 0
LayerCount: 2
Fore
SplineSet
147 710 m 1,0,-1
 389 710 l 2,1,2
 467 710 467 710 529.5 690.5 c 128,-1,3
 592 671 592 671 636 634 c 128,-1,4
 680 597 680 597 703.5 544 c 128,-1,5
 727 491 727 491 727 425 c 0,6,7
 727 352 727 352 710 288 c 128,-1,8
 693 224 693 224 659 171.5 c 128,-1,9
 625 119 625 119 574.5 80.5 c 128,-1,10
 524 42 524 42 456 21 c 128,-1,11
 388 0 388 0 303 0 c 2,12,-1
 -31 0 l 1,13,-1
 -13 76 l 1,14,-1
 -2 76 l 2,15,16
 33 76 33 76 54.5 83 c 128,-1,17
 76 90 76 90 81 112 c 2,18,-1
 204 598 l 2,19,20
 209 620 209 620 192 627 c 128,-1,21
 175 634 175 634 139 634 c 2,22,-1
 129 634 l 1,23,-1
 147 710 l 1,0,-1
388 635 m 2,24,-1
 313 635 l 1,25,-1
 172 75 l 1,26,-1
 302 75 l 2,27,28
 364 75 364 75 412 88.5 c 128,-1,29
 460 102 460 102 495 125.5 c 128,-1,30
 530 149 530 149 554.5 182 c 128,-1,31
 579 215 579 215 593 254 c 128,-1,32
 607 293 607 293 613.5 337 c 128,-1,33
 620 381 620 381 620 428 c 0,34,35
 620 496 620 496 594.5 542 c 128,-1,36
 569 588 569 588 517.5 611.5 c 128,-1,37
 466 635 466 635 388 635 c 2,24,-1
EndSplineSet
EndChar

StartChar: E
Encoding: 69 69 15
Width: 672
GlyphClass: 2
Flags: W
AnchorPoint: "Anchor-2" 464 0 basechar 0
AnchorPoint: "Anchor-1" 396 0 basechar 0
AnchorPoint: "Anchor-0" 396 741 basechar 0
LayerCount: 2
Fore
SplineSet
586 226 m 1,0,-1
 531 0 l 1,1,-1
 -31 0 l 1,2,-1
 -13 76 l 1,3,-1
 -2 76 l 2,4,5
 33 76 33 76 54.5 83 c 128,-1,6
 76 90 76 90 81 112 c 2,7,-1
 204 598 l 2,8,9
 209 620 209 620 192 627 c 128,-1,10
 175 634 175 634 139 634 c 2,11,-1
 129 634 l 1,12,-1
 147 710 l 1,13,-1
 674 710 l 1,14,-1
 627 509 l 1,15,-1
 553 509 l 1,16,-1
 560 590 l 2,17,18
 562 608 562 608 552 617.5 c 128,-1,19
 542 627 542 627 518 631 c 128,-1,20
 494 635 494 635 452 635 c 2,21,-1
 313 635 l 1,22,-1
 172 75 l 1,23,-1
 347 75 l 2,24,25
 386 75 386 75 410.5 79 c 128,-1,26
 435 83 435 83 449.5 93 c 128,-1,27
 464 103 464 103 470 120 c 2,28,-1
 510 226 l 1,29,-1
 586 226 l 1,0,-1
237 399 m 1,30,31
 282 402 282 402 327.5 404.5 c 128,-1,32
 373 407 373 407 418.5 410 c 128,-1,33
 464 413 464 413 509 415 c 1,34,-1
 489 315 l 1,35,36
 445 318 445 318 400.5 320.5 c 128,-1,37
 356 323 356 323 311.5 325.5 c 128,-1,38
 267 328 267 328 221 331 c 1,39,-1
 237 399 l 1,30,31
EndSplineSet
Substitution2: "'ss01' Style Set 1 in Latin lookup 59 subtable" E.alt
EndChar

StartChar: F
Encoding: 70 70 20
Width: 641
GlyphClass: 1
Flags: W
LayerCount: 2
Fore
SplineSet
236 400 m 1,0,1
 284 403 284 403 331 405 c 128,-1,2
 378 407 378 407 425.5 410 c 128,-1,3
 473 413 473 413 520 415 c 1,4,-1
 499 315 l 1,5,6
 454 318 454 318 407 320 c 128,-1,7
 360 322 360 322 314 325 c 128,-1,8
 268 328 268 328 221 331 c 1,9,-1
 236 400 l 1,0,1
-31 0 m 1,10,-1
 -13 76 l 1,11,-1
 -2 76 l 2,12,13
 33 76 33 76 54 83 c 128,-1,14
 75 90 75 90 81 112 c 2,15,-1
 205 598 l 2,16,17
 210 620 210 620 193 627 c 128,-1,18
 176 634 176 634 140 634 c 2,19,-1
 130 634 l 1,20,-1
 147 710 l 1,21,-1
 684 710 l 1,22,-1
 637 509 l 1,23,-1
 564 509 l 1,24,-1
 570 590 l 2,25,26
 571 608 571 608 563 617.5 c 128,-1,27
 555 627 555 627 533.5 631 c 128,-1,28
 512 635 512 635 471 635 c 2,29,-1
 314 635 l 1,30,-1
 174 86 l 2,31,32
 173 83 173 83 185.5 80.5 c 128,-1,33
 198 78 198 78 219 77 c 128,-1,34
 240 76 240 76 263 76 c 2,35,-1
 282 76 l 1,36,-1
 264 0 l 1,37,-1
 -31 0 l 1,10,-1
EndSplineSet
Substitution2: "'ss01' Style Set 1 in Latin lookup 59 subtable" F.alt
EndChar

StartChar: G
Encoding: 71 71 21
Width: 790
GlyphClass: 2
Flags: W
AnchorPoint: "Anchor-1" 395 0 basechar 0
AnchorPoint: "Anchor-0" 395 741 basechar 0
LayerCount: 2
Fore
SplineSet
157 262 m 0,0,1
 157 312 157 312 164 360.5 c 128,-1,2
 171 409 171 409 185.5 453.5 c 128,-1,3
 200 498 200 498 222 535 c 128,-1,4
 244 572 244 572 274 599.5 c 128,-1,5
 304 627 304 627 342.5 642 c 128,-1,6
 381 657 381 657 428 657 c 0,7,8
 490 657 490 657 531 638.5 c 128,-1,9
 572 620 572 620 593.5 583 c 128,-1,10
 615 546 615 546 616 489 c 1,11,-1
 696 489 l 1,12,-1
 753 720 l 1,13,-1
 678 720 l 1,14,-1
 631 579 l 1,15,-1
 647 561 l 1,16,17
 644 606 644 606 626.5 638.5 c 128,-1,18
 609 671 609 671 580.5 692.5 c 128,-1,19
 552 714 552 714 514 724.5 c 128,-1,20
 476 735 476 735 431 735 c 0,21,22
 362 735 362 735 303 711.5 c 128,-1,23
 244 688 244 688 197.5 645.5 c 128,-1,24
 151 603 151 603 118 545.5 c 128,-1,25
 85 488 85 488 68 419.5 c 128,-1,26
 51 351 51 351 51 277 c 0,27,28
 51 208 51 208 71.5 152.5 c 128,-1,29
 92 97 92 97 131.5 57 c 128,-1,30
 171 17 171 17 227.5 -4 c 128,-1,31
 284 -25 284 -25 357 -25 c 0,32,33
 410 -25 410 -25 452 -13.5 c 128,-1,34
 494 -2 494 -2 526.5 15.5 c 128,-1,35
 559 33 559 33 582 51 c 128,-1,36
 605 69 605 69 618 83 c 1,37,-1
 657 229 l 2,38,39
 664 254 664 254 683 261.5 c 128,-1,40
 702 269 702 269 737 269 c 2,41,-1
 758 269 l 1,42,-1
 776 345 l 1,43,-1
 474 345 l 1,44,-1
 456 269 l 1,45,-1
 476 269 l 2,46,47
 508 269 508 269 527.5 265.5 c 128,-1,48
 547 262 547 262 555.5 253.5 c 128,-1,49
 564 245 564 245 559 229 c 2,50,-1
 528 114 l 1,51,52
 521 106 521 106 501.5 91 c 128,-1,53
 482 76 482 76 449.5 64.5 c 128,-1,54
 417 53 417 53 367 53 c 0,55,56
 323 53 323 53 285 64 c 128,-1,57
 247 75 247 75 218.5 99.5 c 128,-1,58
 190 124 190 124 173.5 164 c 128,-1,59
 157 204 157 204 157 262 c 0,0,1
EndSplineSet
EndChar

StartChar: H
Encoding: 72 72 22
Width: 838
GlyphClass: 2
Flags: W
AnchorPoint: "Anchor-1" 419 0 basechar 0
AnchorPoint: "Anchor-0" 419 741 basechar 0
LayerCount: 2
Fore
SplineSet
231 404 m 1,0,-1
 627 404 l 1,1,-1
 612 328 l 1,2,-1
 217 328 l 1,3,-1
 231 404 l 1,0,-1
-31 0 m 1,4,-1
 -13 76 l 1,5,-1
 -2 76 l 2,6,7
 33 76 33 76 54.5 83 c 128,-1,8
 76 90 76 90 81 112 c 2,9,-1
 204 598 l 2,10,11
 209 620 209 620 192 627 c 128,-1,12
 175 634 175 634 139 634 c 2,13,-1
 129 634 l 1,14,-1
 147 710 l 1,15,-1
 424 710 l 1,16,-1
 405 634 l 1,17,-1
 396 634 l 2,18,19
 378 634 378 634 358.5 633 c 128,-1,20
 339 632 339 632 325.5 630 c 128,-1,21
 312 628 312 628 311 624 c 2,22,-1
 174 86 l 2,23,24
 173 83 173 83 185.5 80.5 c 128,-1,25
 198 78 198 78 217.5 77 c 128,-1,26
 237 76 237 76 255 76 c 2,27,-1
 263 76 l 1,28,-1
 245 0 l 1,29,-1
 -31 0 l 1,4,-1
415 0 m 1,30,-1
 433 76 l 1,31,-1
 442 76 l 2,32,33
 460 76 460 76 479 77 c 128,-1,34
 498 78 498 78 512 80.5 c 128,-1,35
 526 83 526 83 527 86 c 2,36,-1
 664 624 l 2,37,38
 665 628 665 628 652.5 630 c 128,-1,39
 640 632 640 632 621 633 c 128,-1,40
 602 634 602 634 584 634 c 2,41,-1
 575 634 l 1,42,-1
 594 710 l 1,43,-1
 869 710 l 1,44,-1
 851 634 l 1,45,-1
 840 634 l 2,46,47
 805 634 805 634 783.5 627 c 128,-1,48
 762 620 762 620 757 598 c 2,49,-1
 634 112 l 2,50,51
 629 90 629 90 646 83 c 128,-1,52
 663 76 663 76 699 76 c 2,53,-1
 709 76 l 1,54,-1
 691 0 l 1,55,-1
 415 0 l 1,30,-1
EndSplineSet
EndChar

StartChar: I
Encoding: 73 73 23
Width: 411
GlyphClass: 2
Flags: W
AnchorPoint: "Anchor-2" 267 0 basechar 0
AnchorPoint: "Anchor-1" 206 0 basechar 0
AnchorPoint: "Anchor-0" 206 741 basechar 0
LayerCount: 2
Fore
SplineSet
94 112 m 2,0,-1
 217 598 l 2,1,2
 222 620 222 620 203 627 c 128,-1,3
 184 634 184 634 148 634 c 2,4,-1
 129 634 l 1,5,-1
 148 710 l 1,6,-1
 442 710 l 1,7,-1
 423 634 l 1,8,-1
 404 634 l 2,9,10
 369 634 369 634 345.5 627 c 128,-1,11
 322 620 322 620 317 598 c 2,12,-1
 194 112 l 2,13,14
 189 90 189 90 208 83 c 128,-1,15
 227 76 227 76 263 76 c 2,16,-1
 282 76 l 1,17,-1
 264 0 l 1,18,-1
 -30 0 l 1,19,-1
 -12 76 l 1,20,-1
 7 76 l 2,21,22
 42 76 42 76 65.5 83 c 128,-1,23
 89 90 89 90 94 112 c 2,0,-1
EndSplineSet
EndChar

StartChar: J
Encoding: 74 74 28
Width: 659
GlyphClass: 2
Flags: W
AnchorPoint: "Anchor-0" 441 741 basechar 0
LayerCount: 2
Fore
SplineSet
473 598 m 2,0,1
 478 620 478 620 457 627 c 128,-1,2
 436 634 436 634 401 634 c 2,3,-1
 378 634 l 1,4,-1
 397 710 l 1,5,-1
 694 710 l 1,6,-1
 676 634 l 1,7,-1
 656 634 l 2,8,9
 621 634 621 634 599.5 627 c 128,-1,10
 578 620 578 620 573 598 c 2,11,-1
 470 186 l 2,12,13
 452 109 452 109 416 62.5 c 128,-1,14
 380 16 380 16 330 -4.5 c 128,-1,15
 280 -25 280 -25 220 -25 c 0,16,17
 161 -25 161 -25 114.5 -10.5 c 128,-1,18
 68 4 68 4 37 23.5 c 128,-1,19
 6 43 6 43 -9 56 c 1,20,-1
 31 225 l 1,21,-1
 141 225 l 1,22,-1
 98 55 l 1,23,24
 81 60 81 60 72 70 c 128,-1,25
 63 80 63 80 61 90.5 c 128,-1,26
 59 101 59 101 63 107.5 c 128,-1,27
 67 114 67 114 76 112 c 1,28,29
 92 88 92 88 124 69.5 c 128,-1,30
 156 51 156 51 218 51 c 0,31,32
 260 51 260 51 288.5 63 c 128,-1,33
 317 75 317 75 337 105.5 c 128,-1,34
 357 136 357 136 371 190 c 2,35,-1
 473 598 l 2,0,1
EndSplineSet
EndChar

StartChar: K
Encoding: 75 75 29
Width: 765
GlyphClass: 2
Flags: W
AnchorPoint: "Anchor-1" 380 0 basechar 0
AnchorPoint: "Anchor-0" 380 741 basechar 0
LayerCount: 2
Fore
SplineSet
-31 0 m 1,0,-1
 -13 76 l 1,1,-1
 -2 76 l 2,2,3
 33 76 33 76 54.5 83 c 128,-1,4
 76 90 76 90 81 112 c 2,5,-1
 204 598 l 2,6,7
 209 620 209 620 192 627 c 128,-1,8
 175 634 175 634 139 634 c 2,9,-1
 129 634 l 1,10,-1
 147 710 l 1,11,-1
 420 710 l 1,12,-1
 401 634 l 1,13,-1
 392 634 l 2,14,15
 377 634 377 634 358 633 c 128,-1,16
 339 632 339 632 325.5 630 c 128,-1,17
 312 628 312 628 311 624 c 2,18,-1
 174 86 l 2,19,20
 173 83 173 83 185.5 80.5 c 128,-1,21
 198 78 198 78 216.5 77 c 128,-1,22
 235 76 235 76 250 76 c 2,23,-1
 258 76 l 1,24,-1
 240 0 l 1,25,-1
 -31 0 l 1,0,-1
382 0 m 1,26,-1
 400 76 l 1,27,-1
 409 76 l 2,28,29
 429 76 429 76 445 77 c 128,-1,30
 461 78 461 78 471.5 80.5 c 128,-1,31
 482 83 482 83 482 86 c 2,32,-1
 288 344 l 1,33,-1
 295 372 l 1,34,-1
 595 623 l 2,35,36
 596 626 596 626 592 628 c 128,-1,37
 588 630 588 630 579.5 631.5 c 128,-1,38
 571 633 571 633 559.5 633.5 c 128,-1,39
 548 634 548 634 533 634 c 2,40,-1
 524 634 l 1,41,-1
 543 710 l 1,42,-1
 794 710 l 1,43,-1
 775 634 l 1,44,-1
 752 634 l 2,45,46
 736 634 736 634 724 631.5 c 128,-1,47
 712 629 712 629 701 622.5 c 128,-1,48
 690 616 690 616 677 605 c 2,49,-1
 355 337 l 1,50,-1
 368 395 l 1,51,-1
 592 97 l 2,52,53
 599 88 599 88 608.5 83.5 c 128,-1,54
 618 79 618 79 631.5 77.5 c 128,-1,55
 645 76 645 76 661 76 c 2,56,-1
 680 76 l 1,57,-1
 662 0 l 1,58,-1
 382 0 l 1,26,-1
EndSplineSet
EndChar

StartChar: L
Encoding: 76 76 30
Width: 641
GlyphClass: 2
Flags: W
AnchorPoint: "Anchor-2" 486 710 basechar 0
AnchorPoint: "Anchor-1" 390 0 basechar 0
AnchorPoint: "Anchor-0" 390 741 basechar 0
LayerCount: 2
Fore
SplineSet
434 710 m 1,0,-1
 416 634 l 1,1,-1
 400 634 l 2,2,3
 375 634 375 634 355.5 631 c 128,-1,4
 336 628 336 628 324 620.5 c 128,-1,5
 312 613 312 613 308 598 c 2,6,-1
 175 75 l 1,7,-1
 322 75 l 2,8,9
 351 75 351 75 372 77 c 128,-1,10
 393 79 393 79 407 84 c 128,-1,11
 421 89 421 89 430 98 c 128,-1,12
 439 107 439 107 444 120 c 2,13,-1
 489 236 l 1,14,-1
 565 236 l 1,15,-1
 507 0 l 1,16,-1
 -31 0 l 1,17,-1
 -13 76 l 1,18,-1
 -2 76 l 2,19,20
 33 76 33 76 56 83 c 128,-1,21
 79 90 79 90 84 112 c 2,22,-1
 208 598 l 2,23,24
 213 620 213 620 194 627 c 128,-1,25
 175 634 175 634 139 634 c 2,26,-1
 129 634 l 1,27,-1
 147 710 l 1,28,-1
 434 710 l 1,0,-1
EndSplineSet
EndChar

StartChar: M
Encoding: 77 77 31
Width: 961
GlyphClass: 2
Flags: W
AnchorPoint: "Anchor-1" 461 0 basechar 0
LayerCount: 2
Fore
SplineSet
-31 0 m 1,0,-1
 -14 76 l 1,1,-1
 -4 76 l 2,2,3
 20 76 20 76 35.5 79 c 128,-1,4
 51 82 51 82 60 90 c 128,-1,5
 69 98 69 98 72 112 c 2,6,-1
 197 598 l 2,7,8
 201 613 201 613 196 620.5 c 128,-1,9
 191 628 191 628 177 631 c 128,-1,10
 163 634 163 634 139 634 c 2,11,-1
 129 634 l 1,12,-1
 147 710 l 1,13,-1
 382 710 l 1,14,-1
 421 117 l 1,15,-1
 402 111 l 1,16,-1
 746 710 l 1,17,-1
 993 710 l 1,18,-1
 975 634 l 1,19,-1
 964 634 l 2,20,21
 929 634 929 634 908.5 627 c 128,-1,22
 888 620 888 620 883 598 c 2,23,-1
 758 112 l 2,24,25
 755 98 755 98 761 90 c 128,-1,26
 767 82 767 82 782.5 79 c 128,-1,27
 798 76 798 76 821 76 c 2,28,-1
 832 76 l 1,29,-1
 815 0 l 1,30,-1
 551 0 l 1,31,-1
 567 76 l 1,32,-1
 575 76 l 2,33,34
 589 76 589 76 606.5 77 c 128,-1,35
 624 78 624 78 637.5 80.5 c 128,-1,36
 651 83 651 83 652 86 c 2,37,-1
 803 674 l 1,38,-1
 815 684 l 1,39,-1
 415 -2 l 1,40,-1
 343 -2 l 1,41,-1
 293 684 l 1,42,-1
 302 680 l 1,43,-1
 149 86 l 2,44,45
 148 83 148 83 160 80.5 c 128,-1,46
 172 78 172 78 188 77 c 128,-1,47
 204 76 204 76 214 76 c 2,48,-1
 218 76 l 1,49,-1
 202 0 l 1,50,-1
 -31 0 l 1,0,-1
EndSplineSet
EndChar

StartChar: N
Encoding: 78 78 32
Width: 819
GlyphClass: 2
Flags: W
AnchorPoint: "Anchor-1" 418 0 basechar 0
AnchorPoint: "Anchor-0" 418 741 basechar 0
LayerCount: 2
Fore
SplineSet
-31 0 m 1,0,-1
 -13 76 l 1,1,-1
 -2 76 l 2,2,3
 22 76 22 76 41 79 c 128,-1,4
 60 82 60 82 72.5 90 c 128,-1,5
 85 98 85 98 88 112 c 2,6,-1
 212 598 l 2,7,8
 216 613 216 613 207 620.5 c 128,-1,9
 198 628 198 628 180.5 631 c 128,-1,10
 163 634 163 634 139 634 c 2,11,-1
 129 634 l 1,12,-1
 147 710 l 1,13,-1
 364 710 l 1,14,-1
 544 106 l 1,15,-1
 523 107 l 1,16,-1
 655 624 l 2,17,18
 656 628 656 628 647 630 c 128,-1,19
 638 632 638 632 623.5 633 c 128,-1,20
 609 634 609 634 593 634 c 2,21,-1
 579 634 l 1,22,-1
 598 710 l 1,23,-1
 850 710 l 1,24,-1
 831 634 l 1,25,-1
 821 634 l 2,26,27
 786 634 786 634 761 627 c 128,-1,28
 736 620 736 620 731 598 c 2,29,-1
 580 0 l 1,30,-1
 481 0 l 1,31,-1
 284 652 l 1,32,-1
 307 649 l 1,33,-1
 164 86 l 2,34,35
 163 83 163 83 172 80.5 c 128,-1,36
 181 78 181 78 195.5 77 c 128,-1,37
 210 76 210 76 226 76 c 2,38,-1
 239 76 l 1,39,-1
 221 0 l 1,40,-1
 -31 0 l 1,0,-1
EndSplineSet
EndChar

StartChar: O
Encoding: 79 79 34
Width: 790
GlyphClass: 2
Flags: W
AnchorPoint: "Anchor-2" 416 0 basechar 0
AnchorPoint: "Anchor-1" 395 0 basechar 0
AnchorPoint: "Anchor-0" 395 741 basechar 0
LayerCount: 2
Fore
SplineSet
342 -25 m 0,0,1
 267 -25 267 -25 212 -2 c 128,-1,2
 157 21 157 21 121 62 c 128,-1,3
 85 103 85 103 68 157.5 c 128,-1,4
 51 212 51 212 51 274 c 0,5,6
 51 335 51 335 66 399.5 c 128,-1,7
 81 464 81 464 112 524 c 128,-1,8
 143 584 143 584 190 631.5 c 128,-1,9
 237 679 237 679 301.5 707 c 128,-1,10
 366 735 366 735 448 735 c 0,11,12
 524 735 524 735 579 712 c 128,-1,13
 634 689 634 689 669.5 648 c 128,-1,14
 705 607 705 607 722.5 553 c 128,-1,15
 740 499 740 499 740 436 c 0,16,17
 740 375 740 375 724.5 310.5 c 128,-1,18
 709 246 709 246 678 186 c 128,-1,19
 647 126 647 126 600 78.5 c 128,-1,20
 553 31 553 31 489 3 c 128,-1,21
 425 -25 425 -25 342 -25 c 0,0,1
444 658 m 0,22,23
 393 658 393 658 351.5 642 c 128,-1,24
 310 626 310 626 277.5 594.5 c 128,-1,25
 245 563 245 563 220.5 517 c 128,-1,26
 196 471 196 471 179 410 c 0,27,28
 169 379 169 379 164.5 352.5 c 128,-1,29
 160 326 160 326 158.5 302.5 c 128,-1,30
 157 279 157 279 157 256 c 0,31,32
 157 210 157 210 168.5 172 c 128,-1,33
 180 134 180 134 203.5 107.5 c 128,-1,34
 227 81 227 81 263 66.5 c 128,-1,35
 299 52 299 52 347 52 c 0,36,37
 398 52 398 52 439 68 c 128,-1,38
 480 84 480 84 512.5 115.5 c 128,-1,39
 545 147 545 147 569.5 193 c 128,-1,40
 594 239 594 239 612 300 c 0,41,42
 621 331 621 331 625.5 357.5 c 128,-1,43
 630 384 630 384 631.5 408 c 128,-1,44
 633 432 633 432 633 454 c 0,45,46
 633 502 633 502 622 539.5 c 128,-1,47
 611 577 611 577 588 603 c 128,-1,48
 565 629 565 629 529 643.5 c 128,-1,49
 493 658 493 658 444 658 c 0,22,23
EndSplineSet
EndChar

StartChar: P
Encoding: 80 80 40
Width: 673
GlyphClass: 1
Flags: W
LayerCount: 2
Fore
SplineSet
281 76 m 1,0,-1
 263 0 l 1,1,-1
 -31 0 l 1,2,-1
 -13 76 l 1,3,-1
 -2 76 l 2,4,5
 33 76 33 76 56 83 c 128,-1,6
 79 90 79 90 84 112 c 2,7,-1
 207 598 l 2,8,9
 211 613 211 613 203 620.5 c 128,-1,10
 195 628 195 628 178.5 631 c 128,-1,11
 162 634 162 634 139 634 c 2,12,-1
 128 634 l 1,13,-1
 147 710 l 1,14,-1
 439 710 l 2,15,16
 511 710 511 710 560.5 687.5 c 128,-1,17
 610 665 610 665 636 623.5 c 128,-1,18
 662 582 662 582 662 523 c 0,19,20
 662 470 662 470 643 424.5 c 128,-1,21
 624 379 624 379 586 345.5 c 128,-1,22
 548 312 548 312 492 293.5 c 128,-1,23
 436 275 436 275 363 275 c 2,24,-1
 226 275 l 1,25,-1
 178 86 l 2,26,27
 177 83 177 83 188.5 80.5 c 128,-1,28
 200 78 200 78 219.5 77 c 128,-1,29
 239 76 239 76 262 76 c 2,30,-1
 281 76 l 1,0,-1
556 517 m 0,31,32
 556 562 556 562 542 587 c 128,-1,33
 528 612 528 612 500.5 623.5 c 128,-1,34
 473 635 473 635 431 635 c 2,35,-1
 316 635 l 1,36,-1
 243 350 l 1,37,-1
 376 350 l 2,38,39
 421 350 421 350 454.5 362.5 c 128,-1,40
 488 375 488 375 511 398 c 128,-1,41
 534 421 534 421 545 451 c 128,-1,42
 556 481 556 481 556 517 c 0,31,32
EndSplineSet
EndChar

StartChar: Q
Encoding: 81 81 41
Width: 790
GlyphClass: 1
Flags: W
LayerCount: 2
Fore
SplineSet
740 436 m 0,0,1
 740 375 740 375 724.5 310.5 c 128,-1,2
 709 246 709 246 678 186 c 128,-1,3
 647 126 647 126 600 78.5 c 128,-1,4
 553 31 553 31 489 3 c 128,-1,5
 425 -25 425 -25 342 -25 c 0,6,7
 267 -25 267 -25 212 -2 c 128,-1,8
 157 21 157 21 121 62 c 128,-1,9
 85 103 85 103 68 157.5 c 128,-1,10
 51 212 51 212 51 274 c 0,11,12
 51 335 51 335 66 399.5 c 128,-1,13
 81 464 81 464 112 524 c 128,-1,14
 143 584 143 584 190 631.5 c 128,-1,15
 237 679 237 679 301.5 707 c 128,-1,16
 366 735 366 735 448 735 c 0,17,18
 524 735 524 735 579 712 c 128,-1,19
 634 689 634 689 669.5 648 c 128,-1,20
 705 607 705 607 722.5 553 c 128,-1,21
 740 499 740 499 740 436 c 0,0,1
347 52 m 0,22,23
 398 52 398 52 439 68 c 128,-1,24
 480 84 480 84 513 115.5 c 128,-1,25
 546 147 546 147 570.5 193 c 128,-1,26
 595 239 595 239 613 300 c 0,27,28
 622 331 622 331 626.5 357.5 c 128,-1,29
 631 384 631 384 632.5 408 c 128,-1,30
 634 432 634 432 634 454 c 0,31,32
 634 502 634 502 623 539.5 c 128,-1,33
 612 577 612 577 588.5 603 c 128,-1,34
 565 629 565 629 529 643.5 c 128,-1,35
 493 658 493 658 444 658 c 0,36,37
 393 658 393 658 351.5 642 c 128,-1,38
 310 626 310 626 277.5 594.5 c 128,-1,39
 245 563 245 563 220.5 517 c 128,-1,40
 196 471 196 471 178 410 c 0,41,42
 169 379 169 379 164 352.5 c 128,-1,43
 159 326 159 326 158 302.5 c 128,-1,44
 157 279 157 279 157 256 c 0,45,46
 157 210 157 210 168 172 c 128,-1,47
 179 134 179 134 203 107.5 c 128,-1,48
 227 81 227 81 263 66.5 c 128,-1,49
 299 52 299 52 347 52 c 0,22,23
489 -239 m 0,50,51
 442 -239 442 -239 406 -229.5 c 128,-1,52
 370 -220 370 -220 345 -201.5 c 128,-1,53
 320 -183 320 -183 307.5 -157 c 128,-1,54
 295 -131 295 -131 295 -98 c 0,55,56
 295 -72 295 -72 302 -46.5 c 128,-1,57
 309 -21 309 -21 316 -3 c 1,58,-1
 393 11 l 1,59,60
 388 -5 388 -5 385 -22 c 128,-1,61
 382 -39 382 -39 382 -61 c 0,62,63
 382 -90 382 -90 394.5 -110.5 c 128,-1,64
 407 -131 407 -131 432.5 -141.5 c 128,-1,65
 458 -152 458 -152 497 -152 c 0,66,67
 527 -152 527 -152 555.5 -148 c 128,-1,68
 584 -144 584 -144 610.5 -138 c 128,-1,69
 637 -132 637 -132 661 -125 c 1,70,-1
 638 -220 l 1,71,72
 614 -228 614 -228 574 -233.5 c 128,-1,73
 534 -239 534 -239 489 -239 c 0,50,51
EndSplineSet
EndChar

StartChar: R
Encoding: 82 82 42
Width: 739
GlyphClass: 2
Flags: W
AnchorPoint: "Anchor-1" 406 0 basechar 0
AnchorPoint: "Anchor-0" 406 741 basechar 0
LayerCount: 2
Fore
SplineSet
369 321 m 1,0,-1
 456 353 l 1,1,-1
 541 137 l 2,2,3
 551 112 551 112 563.5 98.5 c 128,-1,4
 576 85 576 85 592.5 80.5 c 128,-1,5
 609 76 609 76 631 76 c 2,6,-1
 648 76 l 1,7,-1
 631 0 l 1,8,-1
 486 0 l 1,9,-1
 369 321 l 1,0,-1
282 76 m 1,10,-1
 264 0 l 1,11,-1
 -31 0 l 1,12,-1
 -13 76 l 1,13,-1
 -2 76 l 2,14,15
 33 76 33 76 54.5 83 c 128,-1,16
 76 90 76 90 81 112 c 2,17,-1
 204 598 l 2,18,19
 209 620 209 620 192 627 c 128,-1,20
 175 634 175 634 139 634 c 2,21,-1
 129 634 l 1,22,-1
 147 710 l 1,23,-1
 426 710 l 2,24,25
 502 710 502 710 553 686.5 c 128,-1,26
 604 663 604 663 630.5 623 c 128,-1,27
 657 583 657 583 657 531 c 256,28,29
 657 479 657 479 640 440 c 128,-1,30
 623 401 623 401 594 374 c 128,-1,31
 565 347 565 347 527 330.5 c 128,-1,32
 489 314 489 314 446 307 c 0,33,34
 430 303 430 303 416 300 c 128,-1,35
 402 297 402 297 389.5 295.5 c 128,-1,36
 377 294 377 294 363 294 c 2,37,-1
 228 294 l 1,38,-1
 175 86 l 2,39,40
 174 83 174 83 186.5 80.5 c 128,-1,41
 199 78 199 78 219.5 77 c 128,-1,42
 240 76 240 76 263 76 c 2,43,-1
 282 76 l 1,10,-1
426 635 m 2,44,-1
 313 635 l 1,45,-1
 245 366 l 1,46,-1
 402 366 l 2,47,48
 439 366 439 366 466.5 377.5 c 128,-1,49
 494 389 494 389 513 410 c 128,-1,50
 532 431 532 431 542 460 c 128,-1,51
 552 489 552 489 552 522 c 0,52,53
 552 560 552 560 539 584.5 c 128,-1,54
 526 609 526 609 498.5 622 c 128,-1,55
 471 635 471 635 426 635 c 2,44,-1
EndSplineSet
EndChar

StartChar: S
Encoding: 83 83 43
Width: 653
GlyphClass: 2
Flags: W
AnchorPoint: "Anchor-1" 352 0 basechar 0
AnchorPoint: "Anchor-0" 352 741 basechar 0
LayerCount: 2
Fore
SplineSet
314 -25 m 0,0,1
 265 -25 265 -25 226 -15.5 c 128,-1,2
 187 -6 187 -6 159 14 c 128,-1,3
 131 34 131 34 114 65.5 c 128,-1,4
 97 97 97 97 90 140 c 0,5,6
 91 155 91 155 95 161 c 128,-1,7
 99 167 99 167 103.5 164 c 128,-1,8
 108 161 108 161 110 146 c 1,9,-1
 62 -10 l 1,10,-1
 -12 -10 l 1,11,-1
 49 238 l 1,12,-1
 128 238 l 1,13,14
 128 192 128 192 137.5 157 c 128,-1,15
 147 122 147 122 168.5 98.5 c 128,-1,16
 190 75 190 75 226 63 c 128,-1,17
 262 51 262 51 315 51 c 0,18,19
 369 51 369 51 401 69 c 128,-1,20
 433 87 433 87 447 117 c 128,-1,21
 461 147 461 147 461 181 c 0,22,23
 461 213 461 213 447.5 235.5 c 128,-1,24
 434 258 434 258 410.5 275.5 c 128,-1,25
 387 293 387 293 357 307.5 c 128,-1,26
 327 322 327 322 295 338 c 0,27,28
 246 361 246 361 209.5 383.5 c 128,-1,29
 173 406 173 406 152.5 441.5 c 128,-1,30
 132 477 132 477 132 535 c 0,31,32
 132 595 132 595 160 640 c 128,-1,33
 188 685 188 685 239 710 c 128,-1,34
 290 735 290 735 359 735 c 0,35,36
 412 735 412 735 447.5 721.5 c 128,-1,37
 483 708 483 708 504 675 c 128,-1,38
 525 642 525 642 533 582 c 0,39,40
 532 575 532 575 526.5 571.5 c 128,-1,41
 521 568 521 568 517 571.5 c 128,-1,42
 513 575 513 575 514 588 c 2,43,-1
 560 719 l 1,44,-1
 631 719 l 1,45,-1
 577 499 l 1,46,-1
 499 499 l 1,47,48
 498 559 498 559 482.5 594.5 c 128,-1,49
 467 630 467 630 436.5 646 c 128,-1,50
 406 662 406 662 358 662 c 0,51,52
 312 662 312 662 282 646.5 c 128,-1,53
 252 631 252 631 237.5 605 c 128,-1,54
 223 579 223 579 223 547 c 0,55,56
 223 519 223 519 233 500.5 c 128,-1,57
 243 482 243 482 262 467.5 c 128,-1,58
 281 453 281 453 309 439.5 c 128,-1,59
 337 426 337 426 372 409 c 0,60,61
 407 393 407 393 440 375 c 128,-1,62
 473 357 473 357 499.5 333.5 c 128,-1,63
 526 310 526 310 541 275.5 c 128,-1,64
 556 241 556 241 556 191 c 0,65,66
 556 144 556 144 540 104.5 c 128,-1,67
 524 65 524 65 493 36 c 128,-1,68
 462 7 462 7 417 -9 c 128,-1,69
 372 -25 372 -25 314 -25 c 0,0,1
EndSplineSet
EndChar

StartChar: Scaron
Encoding: 138 352 44
Width: 653
GlyphClass: 1
Flags: W
LayerCount: 2
Fore
SplineSet
348 796 m 1,0,-1
 421 796 l 1,1,-1
 591 951 l 1,2,-1
 595 971 l 1,3,-1
 539 971 l 1,4,-1
 345 850 l 1,5,-1
 438 850 l 1,6,-1
 317 971 l 1,7,-1
 261 971 l 1,8,-1
 256 951 l 1,9,-1
 348 796 l 1,0,-1
314 -25 m 0,10,11
 265 -25 265 -25 226 -15.5 c 128,-1,12
 187 -6 187 -6 159 14 c 128,-1,13
 131 34 131 34 114 65.5 c 128,-1,14
 97 97 97 97 90 140 c 0,15,16
 91 155 91 155 95 161 c 128,-1,17
 99 167 99 167 103.5 164 c 128,-1,18
 108 161 108 161 110 146 c 1,19,-1
 62 -10 l 1,20,-1
 -12 -10 l 1,21,-1
 49 238 l 1,22,-1
 128 238 l 1,23,24
 128 192 128 192 137.5 157 c 128,-1,25
 147 122 147 122 168.5 98.5 c 128,-1,26
 190 75 190 75 226 63 c 128,-1,27
 262 51 262 51 315 51 c 0,28,29
 369 51 369 51 401 69 c 128,-1,30
 433 87 433 87 447 117 c 128,-1,31
 461 147 461 147 461 181 c 0,32,33
 461 213 461 213 447.5 235.5 c 128,-1,34
 434 258 434 258 410.5 275.5 c 128,-1,35
 387 293 387 293 357 307.5 c 128,-1,36
 327 322 327 322 295 338 c 0,37,38
 246 361 246 361 209.5 383.5 c 128,-1,39
 173 406 173 406 152.5 441.5 c 128,-1,40
 132 477 132 477 132 535 c 0,41,42
 132 595 132 595 160 640 c 128,-1,43
 188 685 188 685 239 710 c 128,-1,44
 290 735 290 735 359 735 c 0,45,46
 412 735 412 735 447.5 721.5 c 128,-1,47
 483 708 483 708 504 675 c 128,-1,48
 525 642 525 642 533 582 c 0,49,50
 532 575 532 575 526.5 571.5 c 128,-1,51
 521 568 521 568 517 571.5 c 128,-1,52
 513 575 513 575 514 588 c 2,53,-1
 560 719 l 1,54,-1
 631 719 l 1,55,-1
 577 499 l 1,56,-1
 499 499 l 1,57,58
 498 559 498 559 482.5 594.5 c 128,-1,59
 467 630 467 630 436.5 646 c 128,-1,60
 406 662 406 662 358 662 c 0,61,62
 312 662 312 662 282 646.5 c 128,-1,63
 252 631 252 631 237.5 605 c 128,-1,64
 223 579 223 579 223 547 c 0,65,66
 223 519 223 519 233 500.5 c 128,-1,67
 243 482 243 482 262 467.5 c 128,-1,68
 281 453 281 453 309 439.5 c 128,-1,69
 337 426 337 426 372 409 c 0,70,71
 407 393 407 393 440 375 c 128,-1,72
 473 357 473 357 499.5 333.5 c 128,-1,73
 526 310 526 310 541 275.5 c 128,-1,74
 556 241 556 241 556 191 c 0,75,76
 556 144 556 144 540 104.5 c 128,-1,77
 524 65 524 65 493 36 c 128,-1,78
 462 7 462 7 417 -9 c 128,-1,79
 372 -25 372 -25 314 -25 c 0,10,11
EndSplineSet
EndChar

StartChar: T
Encoding: 84 84 45
Width: 702
GlyphClass: 2
Flags: W
AnchorPoint: "Anchor-1" 351 0 basechar 0
AnchorPoint: "Anchor-0" 351 741 basechar 0
LayerCount: 2
Fore
SplineSet
233 112 m 2,0,-1
 366 638 l 1,1,-1
 318 638 l 2,2,3
 270 638 270 638 243 632.5 c 128,-1,4
 216 627 216 627 202.5 615 c 128,-1,5
 189 603 189 603 182 585 c 2,6,-1
 139 469 l 1,7,-1
 69 469 l 1,8,-1
 130 710 l 1,9,-1
 738 710 l 1,10,-1
 677 469 l 1,11,-1
 605 469 l 1,12,-1
 624 585 l 2,13,14
 627 603 627 603 619 615 c 128,-1,15
 611 627 611 627 586.5 632.5 c 128,-1,16
 562 638 562 638 516 638 c 2,17,-1
 466 638 l 1,18,-1
 333 112 l 2,19,20
 328 90 328 90 349.5 83 c 128,-1,21
 371 76 371 76 407 76 c 2,22,-1
 426 76 l 1,23,-1
 408 0 l 1,24,-1
 104 0 l 1,25,-1
 122 76 l 1,26,-1
 141 76 l 2,27,28
 176 76 176 76 202 83 c 128,-1,29
 228 90 228 90 233 112 c 2,0,-1
EndSplineSet
EndChar

StartChar: U
Encoding: 85 85 46
Width: 787
GlyphClass: 2
Flags: W
AnchorPoint: "Anchor-2" 449 0 basechar 0
AnchorPoint: "Anchor-1" 395 0 basechar 0
AnchorPoint: "Anchor-0" 395 741 basechar 0
LayerCount: 2
Fore
SplineSet
233 354 m 2,0,1
 222 310 222 310 216 281.5 c 128,-1,2
 210 253 210 253 208 232.5 c 128,-1,3
 206 212 206 212 206 190 c 0,4,5
 206 164 206 164 215 139.5 c 128,-1,6
 224 115 224 115 243 96.5 c 128,-1,7
 262 78 262 78 291.5 67 c 128,-1,8
 321 56 321 56 362 56 c 0,9,10
 410 56 410 56 447.5 74.5 c 128,-1,11
 485 93 485 93 513 136 c 128,-1,12
 541 179 541 179 559 252 c 2,13,-1
 651 617 l 2,14,15
 653 623 653 623 640.5 626.5 c 128,-1,16
 628 630 628 630 609 632 c 128,-1,17
 590 634 590 634 572 634 c 2,18,-1
 563 634 l 1,19,-1
 582 710 l 1,20,-1
 833 710 l 1,21,-1
 814 634 l 1,22,-1
 804 634 l 2,23,24
 769 634 769 634 751 625 c 128,-1,25
 733 616 733 616 727 591 c 2,26,-1
 641 247 l 2,27,28
 616 146 616 146 574 86.5 c 128,-1,29
 532 27 532 27 477.5 1 c 128,-1,30
 423 -25 423 -25 357 -25 c 0,31,32
 302 -25 302 -25 255.5 -11 c 128,-1,33
 209 3 209 3 176 30.5 c 128,-1,34
 143 58 143 58 124.5 97 c 128,-1,35
 106 136 106 136 106 186 c 0,36,37
 106 207 106 207 108.5 229.5 c 128,-1,38
 111 252 111 252 117.5 284.5 c 128,-1,39
 124 317 124 317 135 364 c 2,40,-1
 194 598 l 2,41,42
 199 620 199 620 178 627 c 128,-1,43
 157 634 157 634 121 634 c 2,44,-1
 111 634 l 1,45,-1
 129 710 l 1,46,-1
 405 710 l 1,47,-1
 387 634 l 1,48,-1
 378 634 l 2,49,50
 360 634 360 634 342.5 633 c 128,-1,51
 325 632 325 632 313.5 630 c 128,-1,52
 302 628 302 628 300 624 c 2,53,-1
 233 354 l 2,0,1
EndSplineSet
EndChar

StartChar: V
Encoding: 86 86 51
Width: 694
GlyphClass: 1
Flags: W
LayerCount: 2
Fore
SplineSet
290 50 m 1,0,-1
 268 57 l 1,1,-1
 585 611 l 2,2,3
 586 618 586 618 579.5 623 c 128,-1,4
 573 628 573 628 557.5 631 c 128,-1,5
 542 634 542 634 516 634 c 2,6,-1
 506 634 l 1,7,-1
 525 710 l 1,8,-1
 767 710 l 1,9,-1
 749 634 l 1,10,-1
 743 634 l 2,11,12
 713 634 713 634 691.5 622 c 128,-1,13
 670 610 670 610 648 570 c 2,14,-1
 315 -12 l 1,15,-1
 201 -12 l 1,16,-1
 159 570 l 2,17,18
 155 610 155 610 137.5 622 c 128,-1,19
 120 634 120 634 91 634 c 2,20,-1
 85 634 l 1,21,-1
 103 710 l 1,22,-1
 360 710 l 1,23,-1
 342 634 l 1,24,-1
 333 634 l 2,25,26
 306 634 306 634 288.5 632.5 c 128,-1,27
 271 631 271 631 262.5 629 c 128,-1,28
 254 627 254 627 253 623 c 2,29,-1
 290 50 l 1,0,-1
EndSplineSet
EndChar

StartChar: W
Encoding: 87 87 52
Width: 1002
GlyphClass: 2
Flags: W
AnchorPoint: "Anchor-0" 513 741 basechar 0
LayerCount: 2
Fore
SplineSet
103 710 m 1,0,-1
 348 710 l 1,1,-1
 330 634 l 1,2,-1
 314 634 l 2,3,4
 299 634 299 634 284 632.5 c 128,-1,5
 269 631 269 631 258.5 629 c 128,-1,6
 248 627 248 627 246 623 c 2,7,-1
 249 75 l 1,8,-1
 211 74 l 1,9,-1
 536 710 l 1,10,-1
 661 710 l 1,11,-1
 663 76 l 1,12,-1
 635 76 l 1,13,-1
 904 610 l 2,14,15
 906 617 906 617 898.5 622.5 c 128,-1,16
 891 628 891 628 879 631 c 128,-1,17
 867 634 867 634 853 634 c 2,18,-1
 839 634 l 1,19,-1
 857 710 l 1,20,-1
 1075 710 l 1,21,-1
 1056 634 l 1,22,-1
 1050 634 l 2,23,24
 1023 634 1023 634 1004.5 623 c 128,-1,25
 986 612 986 612 974 588 c 2,26,-1
 676 -1 l 1,27,-1
 574 -1 l 1,28,-1
 568 637 l 1,29,-1
 583 639 l 1,30,-1
 258 -1 l 1,31,-1
 155 -1 l 1,32,-1
 150 598 l 2,33,34
 149 624 149 624 134 629 c 128,-1,35
 119 634 119 634 92 634 c 2,36,-1
 85 634 l 1,37,-1
 103 710 l 1,0,-1
EndSplineSet
EndChar

StartChar: X
Encoding: 88 88 53
Width: 748
GlyphClass: 1
Flags: W
LayerCount: 2
Fore
SplineSet
117 634 m 1,0,-1
 135 710 l 1,1,-1
 400 710 l 1,2,-1
 382 634 l 1,3,-1
 365 634 l 2,4,5
 348 634 348 634 330.5 633 c 128,-1,6
 313 632 313 632 302 630 c 128,-1,7
 291 628 291 628 290 625 c 2,8,-1
 410 390 l 1,9,-1
 415 386 l 1,10,-1
 554 111 l 2,11,12
 563 95 563 95 572.5 88 c 128,-1,13
 582 81 582 81 595 78.5 c 128,-1,14
 608 76 608 76 626 76 c 2,15,-1
 649 76 l 1,16,-1
 630 0 l 1,17,-1
 356 0 l 1,18,-1
 375 76 l 1,19,-1
 391 76 l 2,20,21
 409 76 409 76 425 77 c 128,-1,22
 441 78 441 78 452 80.5 c 128,-1,23
 463 83 463 83 463 86 c 2,24,-1
 337 337 l 1,25,-1
 333 340 l 1,26,-1
 199 600 l 2,27,28
 192 615 192 615 183 622.5 c 128,-1,29
 174 630 174 630 161.5 632 c 128,-1,30
 149 634 149 634 131 634 c 2,31,-1
 117 634 l 1,0,-1
-58 0 m 1,32,-1
 -39 76 l 1,33,-1
 -21 76 l 2,34,35
 -3 76 -3 76 9 79.5 c 128,-1,36
 21 83 21 83 33.5 93 c 128,-1,37
 46 103 46 103 64 121 c 2,38,-1
 327 386 l 1,39,-1
 382 342 l 1,40,-1
 138 93 l 2,41,42
 137 89 137 89 144.5 85 c 128,-1,43
 152 81 152 81 166.5 78.5 c 128,-1,44
 181 76 181 76 198 76 c 2,45,-1
 217 76 l 1,46,-1
 198 0 l 1,47,-1
 -58 0 l 1,32,-1
415 342 m 1,48,-1
 356 384 l 1,49,-1
 586 617 l 2,50,51
 587 622 587 622 579.5 626 c 128,-1,52
 572 630 572 630 559 632 c 128,-1,53
 546 634 546 634 528 634 c 2,54,-1
 513 634 l 1,55,-1
 531 710 l 1,56,-1
 783 710 l 1,57,-1
 765 634 l 1,58,-1
 751 634 l 2,59,60
 733 634 733 634 719.5 630.5 c 128,-1,61
 706 627 706 627 692.5 617.5 c 128,-1,62
 679 608 679 608 661 590 c 2,63,-1
 415 342 l 1,48,-1
EndSplineSet
EndChar

StartChar: Y
Encoding: 89 89 54
Width: 674
GlyphClass: 2
Flags: W
AnchorPoint: "Anchor-1" 339 0 basechar 0
AnchorPoint: "Anchor-0" 394 741 basechar 0
LayerCount: 2
Fore
SplineSet
91 0 m 1,0,-1
 110 76 l 1,1,-1
 130 76 l 2,2,3
 166 76 166 76 192 83 c 128,-1,4
 218 90 218 90 223 112 c 2,5,-1
 272 306 l 1,6,-1
 266 265 l 1,7,-1
 155 598 l 2,8,9
 150 613 150 613 142 621 c 128,-1,10
 134 629 134 629 122 631.5 c 128,-1,11
 110 634 110 634 93 634 c 2,12,-1
 80 634 l 1,13,-1
 99 710 l 1,14,-1
 341 710 l 1,15,-1
 322 634 l 1,16,-1
 306 634 l 2,17,18
 292 634 292 634 277.5 632.5 c 128,-1,19
 263 631 263 631 254 629 c 128,-1,20
 245 627 245 627 244 623 c 2,21,-1
 345 314 l 1,22,-1
 303 312 l 1,23,-1
 548 614 l 2,24,25
 550 620 550 620 543.5 624.5 c 128,-1,26
 537 629 537 629 525 631.5 c 128,-1,27
 513 634 513 634 499 634 c 2,28,-1
 488 634 l 1,29,-1
 507 710 l 1,30,-1
 733 710 l 1,31,-1
 714 634 l 1,32,-1
 702 634 l 2,33,34
 686 634 686 634 672.5 630 c 128,-1,35
 659 626 659 626 647 616 c 128,-1,36
 635 606 635 606 620 588 c 2,37,-1
 349 261 l 1,38,-1
 368 306 l 1,39,-1
 319 112 l 2,40,41
 316 98 316 98 324 90 c 128,-1,42
 332 82 332 82 349 79 c 128,-1,43
 366 76 366 76 390 76 c 2,44,-1
 410 76 l 1,45,-1
 391 0 l 1,46,-1
 91 0 l 1,0,-1
EndSplineSet
EndChar

StartChar: Z
Encoding: 90 90 57
Width: 653
GlyphClass: 2
Flags: W
AnchorPoint: "Anchor-1" 338 0 basechar 0
AnchorPoint: "Anchor-0" 338 741 basechar 0
LayerCount: 2
Fore
SplineSet
53 75 m 1,0,-1
 325 75 l 2,1,2
 355 75 355 75 375 77 c 128,-1,3
 395 79 395 79 408 84 c 128,-1,4
 421 89 421 89 428.5 98 c 128,-1,5
 436 107 436 107 441 120 c 2,6,-1
 483 230 l 1,7,-1
 559 230 l 1,8,-1
 502 0 l 1,9,-1
 -34 0 l 1,10,-1
 -13 85 l 1,11,-1
 555 666 l 1,12,-1
 574 635 l 1,13,-1
 336 635 l 2,14,15
 305 635 305 635 284 632.5 c 128,-1,16
 263 630 263 630 249.5 625 c 128,-1,17
 236 620 236 620 228 611 c 128,-1,18
 220 602 220 602 215 588 c 2,19,-1
 180 503 l 1,20,-1
 107 503 l 1,21,-1
 159 710 l 1,22,-1
 664 710 l 1,23,-1
 643 628 l 1,24,-1
 61 33 l 1,25,-1
 53 75 l 1,0,-1
EndSplineSet
EndChar

StartChar: Zcaron
Encoding: 142 381 58
Width: 653
GlyphClass: 1
Flags: W
LayerCount: 2
Fore
SplineSet
362 796 m 1,0,-1
 435 796 l 1,1,-1
 605 951 l 1,2,-1
 610 971 l 1,3,-1
 554 971 l 1,4,-1
 360 850 l 1,5,-1
 452 850 l 1,6,-1
 332 971 l 1,7,-1
 275 971 l 1,8,-1
 271 951 l 1,9,-1
 362 796 l 1,0,-1
53 75 m 1,10,-1
 325 75 l 2,11,12
 355 75 355 75 375 77 c 128,-1,13
 395 79 395 79 408 84 c 128,-1,14
 421 89 421 89 428.5 98 c 128,-1,15
 436 107 436 107 441 120 c 2,16,-1
 483 230 l 1,17,-1
 559 230 l 1,18,-1
 502 0 l 1,19,-1
 -34 0 l 1,20,-1
 -13 85 l 1,21,-1
 555 666 l 1,22,-1
 574 635 l 1,23,-1
 336 635 l 2,24,25
 305 635 305 635 284 632.5 c 128,-1,26
 263 630 263 630 249.5 625 c 128,-1,27
 236 620 236 620 228 611 c 128,-1,28
 220 602 220 602 215 588 c 2,29,-1
 180 503 l 1,30,-1
 107 503 l 1,31,-1
 159 710 l 1,32,-1
 664 710 l 1,33,-1
 643 628 l 1,34,-1
 61 33 l 1,35,-1
 53 75 l 1,10,-1
EndSplineSet
EndChar

StartChar: AE
Encoding: 198 198 59
Width: 1078
GlyphClass: 2
Flags: W
AnchorPoint: "Anchor-0" 749 711 basechar 0
LayerCount: 2
Fore
SplineSet
-44 76 m 1,0,-1
 -38 76 l 2,1,2
 -9 76 -9 76 21.5 91 c 128,-1,3
 52 106 52 106 81 140 c 2,4,-1
 469 604 l 1,5,6
 470 616 470 616 465 622.5 c 128,-1,7
 460 629 460 629 447 631.5 c 128,-1,8
 434 634 434 634 411 634 c 2,9,-1
 393 634 l 1,10,-1
 412 710 l 1,11,-1
 1079 710 l 1,12,-1
 1032 507 l 1,13,-1
 959 507 l 1,14,-1
 965 588 l 2,15,16
 967 606 967 606 957 615.5 c 128,-1,17
 947 625 947 625 923 629 c 128,-1,18
 899 633 899 633 858 633 c 2,19,-1
 719 633 l 1,20,-1
 577 77 l 1,21,-1
 752 77 l 2,22,23
 792 77 792 77 816.5 80.5 c 128,-1,24
 841 84 841 84 855 94 c 128,-1,25
 869 104 869 104 875 122 c 2,26,-1
 916 228 l 1,27,-1
 992 228 l 1,28,-1
 936 0 l 1,29,-1
 375 0 l 1,30,-1
 393 76 l 1,31,-1
 404 76 l 2,32,33
 439 76 439 76 460 82.5 c 128,-1,34
 481 89 481 89 486 111 c 2,35,-1
 620 644 l 1,36,-1
 596 644 l 1,37,-1
 146 99 l 2,38,39
 144 93 144 93 146 87.5 c 128,-1,40
 148 82 148 82 160 79 c 128,-1,41
 172 76 172 76 199 76 c 2,42,-1
 209 76 l 1,43,-1
 190 0 l 1,44,-1
 -62 0 l 1,45,-1
 -44 76 l 1,0,-1
244 302 m 1,46,-1
 572 302 l 1,47,-1
 575 225 l 1,48,-1
 210 225 l 1,49,-1
 244 302 l 1,46,-1
638 400 m 1,50,51
 684 403 684 403 730.5 405.5 c 128,-1,52
 777 408 777 408 823.5 411 c 128,-1,53
 870 414 870 414 915 416 c 1,54,-1
 895 314 l 1,55,56
 850 317 850 317 804.5 320 c 128,-1,57
 759 323 759 323 713.5 325.5 c 128,-1,58
 668 328 668 328 623 331 c 1,59,-1
 638 400 l 1,50,51
EndSplineSet
EndChar

StartChar: Eth
Encoding: 208 208 60
Width: 778
GlyphClass: 1
Flags: W
LayerCount: 2
Fore
SplineSet
38 322 m 1,0,-1
 57 397 l 1,1,-1
 452 397 l 1,2,-1
 434 322 l 1,3,-1
 38 322 l 1,0,-1
147 710 m 1,4,-1
 389 710 l 2,5,6
 467 710 467 710 529.5 690.5 c 128,-1,7
 592 671 592 671 636 634 c 128,-1,8
 680 597 680 597 703.5 544 c 128,-1,9
 727 491 727 491 727 425 c 0,10,11
 727 352 727 352 710 288 c 128,-1,12
 693 224 693 224 659 171.5 c 128,-1,13
 625 119 625 119 574.5 80.5 c 128,-1,14
 524 42 524 42 456 21 c 128,-1,15
 388 0 388 0 303 0 c 2,16,-1
 -31 0 l 1,17,-1
 -13 76 l 1,18,-1
 -2 76 l 2,19,20
 33 76 33 76 54.5 83 c 128,-1,21
 76 90 76 90 81 112 c 2,22,-1
 204 598 l 2,23,24
 209 620 209 620 192 627 c 128,-1,25
 175 634 175 634 139 634 c 2,26,-1
 129 634 l 1,27,-1
 147 710 l 1,4,-1
388 635 m 2,28,-1
 313 635 l 1,29,-1
 172 75 l 1,30,-1
 302 75 l 2,31,32
 364 75 364 75 412 88.5 c 128,-1,33
 460 102 460 102 495 125.5 c 128,-1,34
 530 149 530 149 554.5 182 c 128,-1,35
 579 215 579 215 593 254 c 128,-1,36
 607 293 607 293 613.5 337 c 128,-1,37
 620 381 620 381 620 428 c 0,38,39
 620 496 620 496 594.5 542 c 128,-1,40
 569 588 569 588 517.5 611.5 c 128,-1,41
 466 635 466 635 388 635 c 2,28,-1
EndSplineSet
EndChar

StartChar: Oslash
Encoding: 216 216 61
Width: 790
GlyphClass: 2
Flags: W
AnchorPoint: "Anchor-0" 387 731 basechar 0
LayerCount: 2
Fore
SplineSet
342 -25 m 0,0,1
 267 -25 267 -25 212 -2 c 128,-1,2
 157 21 157 21 121 62 c 128,-1,3
 85 103 85 103 68 157.5 c 128,-1,4
 51 212 51 212 51 274 c 0,5,6
 51 335 51 335 66 399.5 c 128,-1,7
 81 464 81 464 112 524 c 128,-1,8
 143 584 143 584 190 631.5 c 128,-1,9
 237 679 237 679 301.5 707 c 128,-1,10
 366 735 366 735 448 735 c 0,11,12
 524 735 524 735 579 712 c 128,-1,13
 634 689 634 689 669.5 648 c 128,-1,14
 705 607 705 607 722.5 553 c 128,-1,15
 740 499 740 499 740 436 c 0,16,17
 740 375 740 375 724.5 310.5 c 128,-1,18
 709 246 709 246 678 186 c 128,-1,19
 647 126 647 126 600 78.5 c 128,-1,20
 553 31 553 31 489 3 c 128,-1,21
 425 -25 425 -25 342 -25 c 0,0,1
347 52 m 0,22,23
 398 52 398 52 439 68 c 128,-1,24
 480 84 480 84 512.5 115.5 c 128,-1,25
 545 147 545 147 569.5 193 c 128,-1,26
 594 239 594 239 612 300 c 0,27,28
 621 331 621 331 625.5 357.5 c 128,-1,29
 630 384 630 384 631.5 408 c 128,-1,30
 633 432 633 432 633 454 c 0,31,32
 633 503 633 503 622.5 540.5 c 128,-1,33
 612 578 612 578 589 604 c 128,-1,34
 566 630 566 630 530 644 c 128,-1,35
 494 658 494 658 444 658 c 0,36,37
 393 658 393 658 351.5 642 c 128,-1,38
 310 626 310 626 277.5 594.5 c 128,-1,39
 245 563 245 563 220.5 517 c 128,-1,40
 196 471 196 471 179 410 c 0,41,42
 169 379 169 379 164.5 352.5 c 128,-1,43
 160 326 160 326 158.5 302.5 c 128,-1,44
 157 279 157 279 157 256 c 0,45,46
 157 209 157 209 168 170.5 c 128,-1,47
 179 132 179 132 202.5 106 c 128,-1,48
 226 80 226 80 262 66 c 128,-1,49
 298 52 298 52 347 52 c 0,22,23
-73 -24 m 1,50,-1
 750 734 l 1,51,-1
 846 734 l 1,52,-1
 24 -24 l 1,53,-1
 -73 -24 l 1,50,-1
EndSplineSet
EndChar

StartChar: Thorn
Encoding: 222 222 62
Width: 665
GlyphClass: 1
Flags: W
LayerCount: 2
Fore
SplineSet
312 624 m 2,0,-1
 176 86 l 2,1,2
 175 83 175 83 187.5 80.5 c 128,-1,3
 200 78 200 78 220.5 77 c 128,-1,4
 241 76 241 76 263 76 c 2,5,-1
 283 76 l 1,6,-1
 265 0 l 1,7,-1
 -31 0 l 1,8,-1
 -13 76 l 1,9,-1
 -1 76 l 2,10,11
 35 76 35 76 56 83 c 128,-1,12
 77 90 77 90 82 112 c 2,13,-1
 206 598 l 2,14,15
 211 620 211 620 194 627 c 128,-1,16
 177 634 177 634 141 634 c 2,17,-1
 129 634 l 1,18,-1
 147 710 l 1,19,-1
 427 710 l 1,20,-1
 409 634 l 1,21,-1
 400 634 l 2,22,23
 382 634 382 634 361.5 633 c 128,-1,24
 341 632 341 632 327 630 c 128,-1,25
 313 628 313 628 312 624 c 2,0,-1
168 174 m 1,26,-1
 182 250 l 1,27,-1
 352 250 l 2,28,29
 396 250 396 250 426.5 260.5 c 128,-1,30
 457 271 457 271 477.5 290.5 c 128,-1,31
 498 310 498 310 507 335.5 c 128,-1,32
 516 361 516 361 516 391 c 0,33,34
 516 418 516 418 503 437.5 c 128,-1,35
 490 457 490 457 465.5 467.5 c 128,-1,36
 441 478 441 478 405 478 c 2,37,-1
 241 478 l 1,38,-1
 235 554 l 1,39,-1
 407 554 l 2,40,41
 476 554 476 554 524 534.5 c 128,-1,42
 572 515 572 515 597.5 479 c 128,-1,43
 623 443 623 443 623 394 c 0,44,45
 623 332 623 332 593.5 282 c 128,-1,46
 564 232 564 232 503 203 c 128,-1,47
 442 174 442 174 346 174 c 2,48,-1
 168 174 l 1,26,-1
EndSplineSet
EndChar

StartChar: OE
Encoding: 140 338 63
Width: 1058
GlyphClass: 1
Flags: W
LayerCount: 2
Fore
SplineSet
620 400 m 1,0,1
 666 403 666 403 712 405.5 c 128,-1,2
 758 408 758 408 804 411 c 128,-1,3
 850 414 850 414 896 416 c 1,4,-1
 875 314 l 1,5,6
 831 317 831 317 785.5 320 c 128,-1,7
 740 323 740 323 695 325.5 c 128,-1,8
 650 328 650 328 605 331 c 1,9,-1
 620 400 l 1,0,1
482 710 m 2,10,-1
 1060 710 l 1,11,-1
 1013 507 l 1,12,-1
 939 507 l 1,13,-1
 946 588 l 2,14,15
 948 606 948 606 938 615.5 c 128,-1,16
 928 625 928 625 904 629 c 128,-1,17
 880 633 880 633 839 633 c 2,18,-1
 699 633 l 1,19,-1
 559 77 l 1,20,-1
 733 77 l 2,21,22
 772 77 772 77 797 80.5 c 128,-1,23
 822 84 822 84 835.5 94 c 128,-1,24
 849 104 849 104 856 122 c 2,25,-1
 897 228 l 1,26,-1
 973 228 l 1,27,-1
 917 0 l 1,28,-1
 383 0 l 2,29,30
 306 0 306 0 244 20 c 128,-1,31
 182 40 182 40 139 78.5 c 128,-1,32
 96 117 96 117 73.5 171.5 c 128,-1,33
 51 226 51 226 51 295 c 0,34,35
 51 365 51 365 68.5 428 c 128,-1,36
 86 491 86 491 121 542.5 c 128,-1,37
 156 594 156 594 208 631.5 c 128,-1,38
 260 669 260 669 328.5 689.5 c 128,-1,39
 397 710 397 710 482 710 c 2,10,-1
384 77 m 2,40,-1
 458 77 l 1,41,-1
 599 633 l 1,42,-1
 467 633 l 2,43,44
 414 633 414 633 370.5 621 c 128,-1,45
 327 609 327 609 292.5 586.5 c 128,-1,46
 258 564 258 564 232.5 533.5 c 128,-1,47
 207 503 207 503 190.5 465 c 128,-1,48
 174 427 174 427 165.5 383.5 c 128,-1,49
 157 340 157 340 157 293 c 0,50,51
 157 229 157 229 179.5 180 c 128,-1,52
 202 131 202 131 251.5 104 c 128,-1,53
 301 77 301 77 384 77 c 2,40,-1
EndSplineSet
EndChar

StartChar: a
Encoding: 97 97 64
Width: 646
GlyphClass: 2
Flags: W
AnchorPoint: "Anchor-2" 484 -10 basechar 0
AnchorPoint: "Anchor-1" 329 0 basechar 0
AnchorPoint: "Anchor-0" 297 553 basechar 0
LayerCount: 2
Fore
SplineSet
489 374 m 1,0,-1
 463 344 l 1,1,2
 451 388 451 388 435 422 c 128,-1,3
 419 456 419 456 394 475.5 c 128,-1,4
 369 495 369 495 329 495 c 0,5,6
 293 495 293 495 264 474.5 c 128,-1,7
 235 454 235 454 212.5 420 c 128,-1,8
 190 386 190 386 175 344 c 128,-1,9
 160 302 160 302 152.5 258.5 c 128,-1,10
 145 215 145 215 145 176 c 0,11,12
 145 142 145 142 152 117 c 128,-1,13
 159 92 159 92 177.5 79.5 c 128,-1,14
 196 67 196 67 230 67 c 0,15,16
 265 67 265 67 295.5 85.5 c 128,-1,17
 326 104 326 104 358 139.5 c 128,-1,18
 390 175 390 175 427 224 c 1,19,-1
 441 186 l 1,20,21
 412 130 412 130 375 85.5 c 128,-1,22
 338 41 338 41 294 14.5 c 128,-1,23
 250 -12 250 -12 199 -12 c 0,24,25
 141 -12 141 -12 107 13 c 128,-1,26
 73 38 73 38 58.5 80.5 c 128,-1,27
 44 123 44 123 44 176 c 0,28,29
 44 226 44 226 56.5 281.5 c 128,-1,30
 69 337 69 337 92.5 389 c 128,-1,31
 116 441 116 441 150 483 c 128,-1,32
 184 525 184 525 228 550 c 128,-1,33
 272 575 272 575 325 575 c 0,34,35
 376 575 376 575 408.5 548 c 128,-1,36
 441 521 441 521 460 475.5 c 128,-1,37
 479 430 479 430 489 374 c 1,0,-1
600 565 m 1,38,-1
 522 260 l 2,39,40
 507 202 507 202 497.5 165 c 128,-1,41
 488 128 488 128 484 109.5 c 128,-1,42
 480 91 480 91 480 85 c 0,43,44
 480 78 480 78 483.5 75 c 128,-1,45
 487 72 487 72 496 72 c 0,46,47
 518 72 518 72 541 72 c 128,-1,48
 564 72 564 72 590 72 c 1,49,-1
 577 0 l 1,50,51
 559 0 559 0 540.5 0 c 128,-1,52
 522 0 522 0 504 0 c 128,-1,53
 486 0 486 0 467 0 c 0,54,55
 446 0 446 0 431.5 6 c 128,-1,56
 417 12 417 12 410 23.5 c 128,-1,57
 403 35 403 35 403 53 c 0,58,59
 403 62 403 62 405 96 c 128,-1,60
 407 130 407 130 411 172 c 1,61,-1
 409 183 l 1,62,-1
 462 393 l 1,63,-1
 466 400 l 1,64,-1
 533 565 l 1,65,-1
 600 565 l 1,38,-1
EndSplineSet
EndChar

StartChar: b
Encoding: 98 98 71
Width: 636
GlyphClass: 1
Flags: W
LayerCount: 2
Fore
SplineSet
294 66 m 0,0,1
 336 66 336 66 368.5 86.5 c 128,-1,2
 401 107 401 107 425 141.5 c 128,-1,3
 449 176 449 176 464.5 218 c 128,-1,4
 480 260 480 260 487.5 304 c 128,-1,5
 495 348 495 348 495 387 c 0,6,7
 495 422 495 422 488 446 c 128,-1,8
 481 470 481 470 463.5 483 c 128,-1,9
 446 496 446 496 411 496 c 0,10,11
 369 496 369 496 334 477 c 128,-1,12
 299 458 299 458 265.5 422 c 128,-1,13
 232 386 232 386 192 336 c 1,14,-1
 180 366 l 1,15,16
 214 426 214 426 254 473 c 128,-1,17
 294 520 294 520 339.5 547.5 c 128,-1,18
 385 575 385 575 435 575 c 0,19,20
 497 575 497 575 531.5 550 c 128,-1,21
 566 525 566 525 580.5 482 c 128,-1,22
 595 439 595 439 595 387 c 0,23,24
 595 337 595 337 583.5 281.5 c 128,-1,25
 572 226 572 226 548 174 c 128,-1,26
 524 122 524 122 487.5 79.5 c 128,-1,27
 451 37 451 37 402 12 c 128,-1,28
 353 -13 353 -13 292 -13 c 0,29,30
 235 -13 235 -13 187 3.5 c 128,-1,31
 139 20 139 20 103.5 46.5 c 128,-1,32
 68 73 68 73 46 100 c 1,33,-1
 187 661 l 2,34,35
 189 671 189 671 180 679 c 128,-1,36
 171 687 171 687 153.5 694.5 c 128,-1,37
 136 702 136 702 112 706 c 2,38,-1
 103 708 l 1,39,-1
 119 780 l 1,40,-1
 310 780 l 1,41,-1
 138 79 l 1,42,43
 135 87 135 87 133 96.5 c 128,-1,44
 131 106 131 106 130 116 c 128,-1,45
 129 126 129 126 130 133.5 c 128,-1,46
 131 141 131 141 133 144 c 1,47,48
 141 134 141 134 160.5 115 c 128,-1,49
 180 96 180 96 212.5 81 c 128,-1,50
 245 66 245 66 294 66 c 0,0,1
EndSplineSet
EndChar

StartChar: c
Encoding: 99 99 72
Width: 573
GlyphClass: 2
Flags: W
AnchorPoint: "Anchor-1" 315 0 basechar 0
AnchorPoint: "Anchor-0" 304 551 basechar 0
LayerCount: 2
Fore
SplineSet
281 64 m 0,0,1
 317 64 317 64 346 75.5 c 128,-1,2
 375 87 375 87 399 107 c 128,-1,3
 423 127 423 127 442 153 c 1,4,-1
 503 117 l 1,5,6
 477 75 477 75 440.5 46 c 128,-1,7
 404 17 404 17 361.5 2 c 128,-1,8
 319 -13 319 -13 272 -13 c 0,9,10
 219 -13 219 -13 176.5 1.5 c 128,-1,11
 134 16 134 16 104.5 43.5 c 128,-1,12
 75 71 75 71 59.5 111.5 c 128,-1,13
 44 152 44 152 44 204 c 0,14,15
 44 278 44 278 66 344.5 c 128,-1,16
 88 411 88 411 129.5 463.5 c 128,-1,17
 171 516 171 516 231.5 545.5 c 128,-1,18
 292 575 292 575 368 575 c 0,19,20
 413 575 413 575 449.5 569.5 c 128,-1,21
 486 564 486 564 514 555 c 128,-1,22
 542 546 542 546 563 537 c 1,23,-1
 516 373 l 1,24,-1
 418 373 l 1,25,-1
 459 516 l 1,26,27
 471 513 471 513 479.5 507.5 c 128,-1,28
 488 502 488 502 493 494 c 128,-1,29
 498 486 498 486 501.5 476 c 128,-1,30
 505 466 505 466 509 456 c 1,31,32
 495 467 495 467 474 477 c 128,-1,33
 453 487 453 487 424.5 492.5 c 128,-1,34
 396 498 396 498 361 498 c 0,35,36
 310 498 310 498 273 480 c 128,-1,37
 236 462 236 462 211 431.5 c 128,-1,38
 186 401 186 401 171.5 363 c 128,-1,39
 157 325 157 325 150.5 283 c 128,-1,40
 144 241 144 241 144 201 c 0,41,42
 144 152 144 152 158.5 121.5 c 128,-1,43
 173 91 173 91 203.5 77.5 c 128,-1,44
 234 64 234 64 281 64 c 0,0,1
EndSplineSet
EndChar

StartChar: d
Encoding: 100 100 74
Width: 674
GlyphClass: 2
Flags: W
AnchorPoint: "Anchor-2" 634 735 basechar 0
AnchorPoint: "Anchor-1" 310 0 basechar 0
LayerCount: 2
Fore
SplineSet
203 -13 m 0,0,1
 143 -13 143 -13 107.5 12 c 128,-1,2
 72 37 72 37 56.5 80 c 128,-1,3
 41 123 41 123 41 176 c 0,4,5
 41 226 41 226 53 281 c 128,-1,6
 65 336 65 336 89 388 c 128,-1,7
 113 440 113 440 147.5 482.5 c 128,-1,8
 182 525 182 525 227.5 550 c 128,-1,9
 273 575 273 575 329 575 c 0,10,11
 384 575 384 575 418.5 550 c 128,-1,12
 453 525 453 525 473.5 484 c 128,-1,13
 494 443 494 443 504 392 c 1,14,-1
 487 365 l 1,15,16
 474 403 474 403 454.5 432.5 c 128,-1,17
 435 462 435 462 406 478.5 c 128,-1,18
 377 495 377 495 333 495 c 0,19,20
 294 495 294 495 263 474.5 c 128,-1,21
 232 454 232 454 209 419.5 c 128,-1,22
 186 385 186 385 171.5 343 c 128,-1,23
 157 301 157 301 149 257.5 c 128,-1,24
 141 214 141 214 141 175 c 0,25,26
 141 141 141 141 148.5 116.5 c 128,-1,27
 156 92 156 92 174.5 79 c 128,-1,28
 193 66 193 66 227 66 c 0,29,30
 260 66 260 66 287.5 78 c 128,-1,31
 315 90 315 90 340.5 112.5 c 128,-1,32
 366 135 366 135 392 165.5 c 128,-1,33
 418 196 418 196 448 234 c 1,34,-1
 460 188 l 1,35,36
 426 134 426 134 386 88 c 128,-1,37
 346 42 346 42 300 14.5 c 128,-1,38
 254 -13 254 -13 203 -13 c 0,0,1
486 0 m 0,39,40
 454 0 454 0 438 13 c 128,-1,41
 422 26 422 26 422 53 c 0,42,43
 422 59 422 59 423 76.5 c 128,-1,44
 424 94 424 94 426 119 c 128,-1,45
 428 144 428 144 430 172 c 1,46,-1
 428 185 l 1,47,-1
 549 661 l 2,48,49
 552 675 552 675 545 683 c 128,-1,50
 538 691 538 691 522.5 696.5 c 128,-1,51
 507 702 507 702 483 706 c 2,52,-1
 473 708 l 1,53,-1
 490 780 l 1,54,-1
 672 780 l 1,55,-1
 541 258 l 2,56,57
 526 200 526 200 517 164 c 128,-1,58
 508 128 508 128 504 110 c 128,-1,59
 500 92 500 92 500 85 c 256,60,61
 500 78 500 78 503.5 75 c 128,-1,62
 507 72 507 72 516 72 c 0,63,64
 541 72 541 72 561.5 72 c 128,-1,65
 582 72 582 72 608 72 c 1,66,-1
 595 0 l 1,67,68
 577 0 577 0 559 0 c 128,-1,69
 541 0 541 0 523 0 c 128,-1,70
 505 0 505 0 486 0 c 0,39,40
EndSplineSet
EndChar

StartChar: e
Encoding: 101 101 75
Width: 555
GlyphClass: 2
Flags: W
AnchorPoint: "Anchor-2" 441 1 basechar 0
AnchorPoint: "Anchor-1" 302 0 basechar 0
AnchorPoint: "Anchor-0" 286 551 basechar 0
LayerCount: 2
Fore
SplineSet
267 -12 m 0,0,1
 197 -12 197 -12 147 14 c 128,-1,2
 97 40 97 40 70.5 89.5 c 128,-1,3
 44 139 44 139 44 207 c 0,4,5
 44 282 44 282 66 348.5 c 128,-1,6
 88 415 88 415 128.5 466 c 128,-1,7
 169 517 169 517 225 546 c 128,-1,8
 281 575 281 575 348 575 c 0,9,10
 408 575 408 575 446.5 556.5 c 128,-1,11
 485 538 485 538 504 506.5 c 128,-1,12
 523 475 523 475 523 436 c 0,13,14
 523 386 523 386 498 346 c 128,-1,15
 473 306 473 306 422.5 278 c 128,-1,16
 372 250 372 250 296.5 234.5 c 128,-1,17
 221 219 221 219 120 218 c 1,18,-1
 125 286 l 1,19,20
 213 288 213 288 272.5 299.5 c 128,-1,21
 332 311 332 311 367 330 c 128,-1,22
 402 349 402 349 416.5 373.5 c 128,-1,23
 431 398 431 398 431 425 c 256,24,25
 431 452 431 452 420.5 468 c 128,-1,26
 410 484 410 484 389 491 c 128,-1,27
 368 498 368 498 339 498 c 0,28,29
 290 498 290 498 252.5 474 c 128,-1,30
 215 450 215 450 189.5 408.5 c 128,-1,31
 164 367 164 367 151.5 314.5 c 128,-1,32
 139 262 139 262 139 204 c 0,33,34
 139 152 139 152 154 122 c 128,-1,35
 169 92 169 92 199.5 78.5 c 128,-1,36
 230 65 230 65 275 65 c 0,37,38
 311 65 311 65 341 76.5 c 128,-1,39
 371 88 371 88 395.5 107.5 c 128,-1,40
 420 127 420 127 439 152 c 1,41,-1
 497 117 l 1,42,43
 470 76 470 76 435 47 c 128,-1,44
 400 18 400 18 358 3 c 128,-1,45
 316 -12 316 -12 267 -12 c 0,0,1
EndSplineSet
EndChar

StartChar: f
Encoding: 102 102 80
Width: 423
GlyphClass: 1
Flags: W
LayerCount: 2
Fore
SplineSet
73 565 m 1,0,-1
 434 565 l 1,1,-1
 417 489 l 1,2,-1
 56 489 l 1,3,-1
 73 565 l 1,0,-1
381 708 m 0,4,5
 351 708 351 708 333 700 c 128,-1,6
 315 692 315 692 304.5 671 c 128,-1,7
 294 650 294 650 286 613 c 2,8,-1
 121 -223 l 1,9,-1
 36 -223 l 1,10,-1
 194 638 l 2,11,12
 204 692 204 692 226.5 725.5 c 128,-1,13
 249 759 249 759 288.5 774.5 c 128,-1,14
 328 790 328 790 387 790 c 0,15,16
 413 790 413 790 437 787 c 128,-1,17
 461 784 461 784 478.5 780.5 c 128,-1,18
 496 777 496 777 503 774 c 1,19,-1
 486 689 l 1,20,21
 473 694 473 694 443 701 c 128,-1,22
 413 708 413 708 381 708 c 0,4,5
EndSplineSet
Substitution2: "'ss04' Style Set 4 in Latin lookup 61 subtable" f.alt
EndChar

StartChar: g
Encoding: 103 103 81
Width: 635
GlyphClass: 2
Flags: W
AnchorPoint: "Anchor-0" 299 545 basechar 0
LayerCount: 2
Fore
SplineSet
374 -31 m 2,0,-1
 481 405 l 1,1,-1
 485 407 l 1,2,-1
 548 565 l 1,3,-1
 616 565 l 1,4,-1
 470 -38 l 2,5,6
 453 -111 453 -111 421 -158 c 128,-1,7
 389 -205 389 -205 336 -227.5 c 128,-1,8
 283 -250 283 -250 201 -250 c 0,9,10
 144 -250 144 -250 99 -240 c 128,-1,11
 54 -230 54 -230 24.5 -218 c 128,-1,12
 -5 -206 -5 -206 -19 -198 c 1,13,-1
 7 -78 l 1,14,-1
 103 -78 l 1,15,-1
 75 -202 l 1,16,17
 62 -198 62 -198 53.5 -189.5 c 128,-1,18
 45 -181 45 -181 39.5 -171 c 128,-1,19
 34 -161 34 -161 32 -151.5 c 128,-1,20
 30 -142 30 -142 33 -136 c 1,21,22
 46 -143 46 -143 68.5 -153.5 c 128,-1,23
 91 -164 91 -164 124.5 -171.5 c 128,-1,24
 158 -179 158 -179 204 -179 c 0,25,26
 260 -179 260 -179 292.5 -165.5 c 128,-1,27
 325 -152 325 -152 343 -119.5 c 128,-1,28
 361 -87 361 -87 374 -31 c 2,0,-1
516 391 m 1,29,-1
 488 368 l 1,30,31
 474 401 474 401 456 430 c 128,-1,32
 438 459 438 459 410 477 c 128,-1,33
 382 495 382 495 337 495 c 0,34,35
 299 495 299 495 269 475 c 128,-1,36
 239 455 239 455 216.5 421.5 c 128,-1,37
 194 388 194 388 178.5 348 c 128,-1,38
 163 308 163 308 155.5 267.5 c 128,-1,39
 148 227 148 227 148 192 c 0,40,41
 148 160 148 160 155 137.5 c 128,-1,42
 162 115 162 115 181 103 c 128,-1,43
 200 91 200 91 236 91 c 0,44,45
 281 91 281 91 316 112 c 128,-1,46
 351 133 351 133 384.5 171.5 c 128,-1,47
 418 210 418 210 458 259 c 1,48,-1
 471 224 l 1,49,50
 438 165 438 165 398 116.5 c 128,-1,51
 358 68 358 68 312.5 40 c 128,-1,52
 267 12 267 12 216 12 c 0,53,54
 153 12 153 12 116.5 36 c 128,-1,55
 80 60 80 60 64 101 c 128,-1,56
 48 142 48 142 48 192 c 0,57,58
 48 238 48 238 60 290 c 128,-1,59
 72 342 72 342 96 392.5 c 128,-1,60
 120 443 120 443 155 484.5 c 128,-1,61
 190 526 190 526 235 550.5 c 128,-1,62
 280 575 280 575 334 575 c 0,63,64
 374 575 374 575 404.5 560.5 c 128,-1,65
 435 546 435 546 457 520.5 c 128,-1,66
 479 495 479 495 493 462 c 128,-1,67
 507 429 507 429 516 391 c 1,29,-1
EndSplineSet
Substitution2: "'ss03' Style Set 3 in Latin lookup 60 subtable" g.alt
EndChar

StartChar: h
Encoding: 104 104 82
Width: 665
GlyphClass: 2
Flags: W
AnchorPoint: "Anchor-1" 338 0 basechar 0
AnchorPoint: "Anchor-0" 351 755 basechar 0
LayerCount: 2
Fore
SplineSet
45 0 m 1,0,-1
 140 0 l 1,1,-1
 332 780 l 1,2,-1
 141 780 l 1,3,-1
 125 708 l 1,4,-1
 134 706 l 2,5,6
 158 702 158 702 175.5 694.5 c 128,-1,7
 193 687 193 687 202 678.5 c 128,-1,8
 211 670 211 670 209 661 c 2,9,-1
 45 0 l 1,0,-1
537 248 m 2,10,-1
 574 384 l 2,11,12
 583 414 583 414 588 440 c 128,-1,13
 593 466 593 466 593 487 c 0,14,15
 593 514 593 514 581 533.5 c 128,-1,16
 569 553 569 553 545 564 c 128,-1,17
 521 575 521 575 486 575 c 0,18,19
 431 575 431 575 383.5 549 c 128,-1,20
 336 523 336 523 293 477.5 c 128,-1,21
 250 432 250 432 208 373 c 1,22,-1
 214 336 l 1,23,24
 260 382 260 382 298.5 417 c 128,-1,25
 337 452 337 452 372 471.5 c 128,-1,26
 407 491 407 491 441 491 c 0,27,28
 470 491 470 491 480.5 479 c 128,-1,29
 491 467 491 467 491 446 c 0,30,31
 491 431 491 431 487.5 417 c 128,-1,32
 484 403 484 403 480 387 c 2,33,-1
 441 243 l 2,34,35
 424 180 424 180 414.5 145 c 128,-1,36
 405 110 405 110 401 91.5 c 128,-1,37
 397 73 397 73 397 59 c 0,38,39
 397 40 397 40 407 26.5 c 128,-1,40
 417 13 417 13 436.5 6.5 c 128,-1,41
 456 0 456 0 482 0 c 0,42,43
 500 0 500 0 517.5 0 c 128,-1,44
 535 0 535 0 553 0 c 128,-1,45
 571 0 571 0 589 0 c 1,46,-1
 602 72 l 1,47,48
 586 72 586 72 571.5 72 c 128,-1,49
 557 72 557 72 542.5 72 c 128,-1,50
 528 72 528 72 513 72 c 0,51,52
 504 72 504 72 500 76 c 128,-1,53
 496 80 496 80 496 87 c 0,54,55
 496 93 496 93 499.5 108.5 c 128,-1,56
 503 124 503 124 512 156.5 c 128,-1,57
 521 189 521 189 537 248 c 2,10,-1
EndSplineSet
EndChar

StartChar: i
Encoding: 105 105 83
Width: 341
GlyphClass: 2
Flags: W
AnchorPoint: "Anchor-2" 229 -10 basechar 0
AnchorPoint: "Anchor-1" 179 -10 basechar 0
LayerCount: 2
Fore
SplineSet
64 59 m 0,0,1
 64 73 64 73 67.5 92 c 128,-1,2
 71 111 71 111 80 146 c 128,-1,3
 89 181 89 181 105 243 c 2,4,-1
 156 445 l 2,5,6
 159 455 159 455 148 463 c 128,-1,7
 137 471 137 471 118 478.5 c 128,-1,8
 99 486 99 486 73 491 c 2,9,-1
 64 493 l 1,10,-1
 80 565 l 1,11,-1
 279 565 l 1,12,-1
 199 250 l 2,13,14
 185 192 185 192 176.5 158.5 c 128,-1,15
 168 125 168 125 165 109 c 128,-1,16
 162 93 162 93 162 87 c 0,17,18
 162 80 162 80 165.5 76 c 128,-1,19
 169 72 169 72 178 72 c 0,20,21
 194 72 194 72 208.5 72 c 128,-1,22
 223 72 223 72 238 72 c 128,-1,23
 253 72 253 72 269 72 c 1,24,-1
 256 0 l 1,25,26
 238 0 238 0 220 0 c 128,-1,27
 202 0 202 0 184.5 0 c 128,-1,28
 167 0 167 0 149 0 c 0,29,30
 122 0 122 0 103 6.5 c 128,-1,31
 84 13 84 13 74 26.5 c 128,-1,32
 64 40 64 40 64 59 c 0,0,1
162 736 m 256,33,34
 162 772 162 772 181.5 791 c 128,-1,35
 201 810 201 810 234 810 c 0,36,37
 268 810 268 810 288.5 792 c 128,-1,38
 309 774 309 774 309 739 c 0,39,40
 309 702 309 702 288 683 c 128,-1,41
 267 664 267 664 233 664 c 0,42,43
 201 664 201 664 181.5 682 c 128,-1,44
 162 700 162 700 162 736 c 256,33,34
EndSplineSet
Substitution2: "Single Substitution lookup 1 subtable" idotaccent
EndChar

StartChar: icircumflex
Encoding: 238 238 86
Width: 341
GlyphClass: 1
Flags: W
LayerCount: 2
Fore
SplineSet
288 848 m 1,0,-1
 221 848 l 1,1,-1
 67 676 l 1,2,-1
 62 656 l 1,3,-1
 115 656 l 1,4,-1
 273 782 l 1,5,-1
 185 807 l 1,6,-1
 308 656 l 1,7,-1
 356 656 l 1,8,-1
 361 676 l 1,9,-1
 288 848 l 1,0,-1
146 0 m 0,10,11
 119 0 119 0 100 6.5 c 128,-1,12
 81 13 81 13 71 26.5 c 128,-1,13
 61 40 61 40 61 59 c 0,14,15
 61 73 61 73 64.5 92 c 128,-1,16
 68 111 68 111 77 146 c 128,-1,17
 86 181 86 181 102 243 c 2,18,-1
 153 445 l 2,19,20
 156 455 156 455 145 463 c 128,-1,21
 134 471 134 471 115 478.5 c 128,-1,22
 96 486 96 486 70 491 c 2,23,-1
 61 493 l 1,24,-1
 77 565 l 1,25,-1
 276 565 l 1,26,-1
 196 250 l 2,27,28
 182 192 182 192 173.5 158.5 c 128,-1,29
 165 125 165 125 162 109 c 128,-1,30
 159 93 159 93 159 87 c 0,31,32
 159 80 159 80 162.5 76 c 128,-1,33
 166 72 166 72 175 72 c 0,34,35
 191 72 191 72 205.5 72 c 128,-1,36
 220 72 220 72 235 72 c 128,-1,37
 250 72 250 72 266 72 c 1,38,-1
 253 0 l 1,39,40
 235 0 235 0 217 0 c 128,-1,41
 199 0 199 0 181.5 0 c 128,-1,42
 164 0 164 0 146 0 c 0,10,11
EndSplineSet
EndChar

StartChar: idieresis
Encoding: 239 239 87
Width: 341
GlyphClass: 1
Flags: W
LayerCount: 2
Fore
SplineSet
101 667 m 0,0,1
 132 667 132 667 152.5 683.5 c 128,-1,2
 173 700 173 700 173 737 c 0,3,4
 173 773 173 773 152.5 790 c 128,-1,5
 132 807 132 807 101 807 c 0,6,7
 69 807 69 807 48.5 790 c 128,-1,8
 28 773 28 773 28 737 c 0,9,10
 28 700 28 700 48 683.5 c 128,-1,11
 68 667 68 667 101 667 c 0,0,1
335 667 m 0,12,13
 366 667 366 667 387 683.5 c 128,-1,14
 408 700 408 700 408 737 c 0,15,16
 408 773 408 773 387 790 c 128,-1,17
 366 807 366 807 335 807 c 0,18,19
 303 807 303 807 283 790 c 128,-1,20
 263 773 263 773 263 737 c 0,21,22
 263 700 263 700 283 683.5 c 128,-1,23
 303 667 303 667 335 667 c 0,12,13
143 0 m 0,24,25
 116 0 116 0 97 6.5 c 128,-1,26
 78 13 78 13 68 26.5 c 128,-1,27
 58 40 58 40 58 59 c 0,28,29
 58 73 58 73 61.5 92 c 128,-1,30
 65 111 65 111 74 146 c 128,-1,31
 83 181 83 181 99 243 c 2,32,-1
 150 445 l 2,33,34
 153 455 153 455 142 463 c 128,-1,35
 131 471 131 471 111.5 478.5 c 128,-1,36
 92 486 92 486 67 491 c 2,37,-1
 58 493 l 1,38,-1
 74 565 l 1,39,-1
 273 565 l 1,40,-1
 193 250 l 2,41,42
 179 192 179 192 170.5 158.5 c 128,-1,43
 162 125 162 125 159 109 c 128,-1,44
 156 93 156 93 156 87 c 0,45,46
 156 80 156 80 159.5 76 c 128,-1,47
 163 72 163 72 172 72 c 0,48,49
 188 72 188 72 202.5 72 c 128,-1,50
 217 72 217 72 232 72 c 128,-1,51
 247 72 247 72 263 72 c 1,52,-1
 250 0 l 1,53,54
 232 0 232 0 214 0 c 128,-1,55
 196 0 196 0 178.5 0 c 128,-1,56
 161 0 161 0 143 0 c 0,24,25
EndSplineSet
EndChar

StartChar: j
Encoding: 106 106 88
Width: 348
GlyphClass: 1
Flags: W
LayerCount: 2
Fore
SplineSet
267 664 m 0,0,1
 235 664 235 664 215.5 682 c 128,-1,2
 196 700 196 700 196 736 c 256,3,4
 196 772 196 772 215.5 791 c 128,-1,5
 235 810 235 810 269 810 c 0,6,7
 302 810 302 810 322.5 792 c 128,-1,8
 343 774 343 774 343 739 c 0,9,10
 343 702 343 702 322.5 683 c 128,-1,11
 302 664 302 664 267 664 c 0,0,1
-162 -226 m 1,12,-1
 -145 -158 l 1,13,14
 -126 -166 -126 -166 -100.5 -171.5 c 128,-1,15
 -75 -177 -75 -177 -44 -177 c 0,16,17
 -15 -177 -15 -177 3.5 -166 c 128,-1,18
 22 -155 22 -155 34 -131.5 c 128,-1,19
 46 -108 46 -108 54 -73 c 2,20,-1
 183 445 l 2,21,22
 185 455 185 455 175.5 463.5 c 128,-1,23
 166 472 166 472 148 479.5 c 128,-1,24
 130 487 130 487 107 491 c 2,25,-1
 98 493 l 1,26,-1
 114 565 l 1,27,-1
 305 565 l 1,28,-1
 149 -73 l 2,29,30
 134 -134 134 -134 107 -173.5 c 128,-1,31
 80 -213 80 -213 40.5 -231.5 c 128,-1,32
 1 -250 1 -250 -52 -250 c 0,33,34
 -90 -250 -90 -250 -119.5 -241.5 c 128,-1,35
 -149 -233 -149 -233 -162 -226 c 1,12,-1
EndSplineSet
EndChar

StartChar: k
Encoding: 107 107 89
Width: 620
GlyphClass: 2
Flags: W
AnchorPoint: "Anchor-1" 314 0 basechar 0
LayerCount: 2
Fore
SplineSet
445 110 m 2,0,-1
 343 339 l 1,1,-1
 310 275 l 1,2,3
 359 318 359 318 410.5 363.5 c 128,-1,4
 462 409 462 409 516 456 c 128,-1,5
 570 503 570 503 624 550 c 1,6,-1
 624 565 l 1,7,-1
 511 565 l 1,8,9
 470 522 470 522 428.5 478.5 c 128,-1,10
 387 435 387 435 345 392 c 128,-1,11
 303 349 303 349 261 305 c 1,12,-1
 260 300 l 1,13,-1
 363 63 l 2,14,15
 375 38 375 38 386 24 c 128,-1,16
 397 10 397 10 415.5 5 c 128,-1,17
 434 0 434 0 466 0 c 0,18,19
 478 0 478 0 490.5 0 c 128,-1,20
 503 0 503 0 517 0 c 128,-1,21
 531 0 531 0 545 0 c 1,22,-1
 558 72 l 1,23,24
 549 72 549 72 539 72 c 128,-1,25
 529 72 529 72 519 72 c 128,-1,26
 509 72 509 72 499 72 c 0,27,28
 488 72 488 72 480 73.5 c 128,-1,29
 472 75 472 75 466 79.5 c 128,-1,30
 460 84 460 84 455 91.5 c 128,-1,31
 450 99 450 99 445 110 c 2,0,-1
46 0 m 1,32,-1
 141 0 l 1,33,-1
 333 780 l 1,34,-1
 141 780 l 1,35,-1
 125 708 l 1,36,-1
 134 706 l 2,37,38
 159 702 159 702 176.5 694.5 c 128,-1,39
 194 687 194 687 203 679 c 128,-1,40
 212 671 212 671 210 661 c 2,41,-1
 46 0 l 1,32,-1
EndSplineSet
EndChar

StartChar: l
Encoding: 108 108 90
Width: 350
GlyphClass: 2
Flags: W
AnchorPoint: "Anchor-2" 305 735 basechar 0
AnchorPoint: "Anchor-1" 186 0 basechar 0
AnchorPoint: "Anchor-0" 183 746 basechar 0
LayerCount: 2
Fore
SplineSet
200 661 m 2,0,1
 202 671 202 671 191.5 679 c 128,-1,2
 181 687 181 687 161.5 694.5 c 128,-1,3
 142 702 142 702 117 706 c 2,4,-1
 108 708 l 1,5,-1
 124 780 l 1,6,-1
 322 780 l 1,7,-1
 191 250 l 2,8,9
 177 192 177 192 168.5 158.5 c 128,-1,10
 160 125 160 125 157 109 c 128,-1,11
 154 93 154 93 154 87 c 0,12,13
 154 80 154 80 158 76 c 128,-1,14
 162 72 162 72 171 72 c 0,15,16
 187 72 187 72 201 72.5 c 128,-1,17
 215 73 215 73 229.5 72.5 c 128,-1,18
 244 72 244 72 260 72 c 1,19,-1
 247 0 l 1,20,21
 229 0 229 0 210.5 0 c 128,-1,22
 192 0 192 0 173.5 0 c 128,-1,23
 155 0 155 0 138 0 c 0,24,25
 111 0 111 0 92.5 6.5 c 128,-1,26
 74 13 74 13 64 26.5 c 128,-1,27
 54 40 54 40 54 58 c 0,28,29
 54 73 54 73 57.5 92 c 128,-1,30
 61 111 61 111 70 146 c 128,-1,31
 79 181 79 181 95 243 c 2,32,-1
 200 661 l 2,0,1
EndSplineSet
EndChar

StartChar: m
Encoding: 109 109 91
Width: 936
GlyphClass: 2
Flags: W
AnchorPoint: "Anchor-1" 470 -10 basechar 0
LayerCount: 2
Fore
SplineSet
50 0 m 1,0,-1
 145 0 l 1,1,-1
 240 385 l 1,2,-1
 231 394 l 1,3,-1
 244 565 l 1,4,-1
 88 565 l 1,5,-1
 72 493 l 1,6,-1
 81 491 l 2,7,8
 106 486 106 486 125 478.5 c 128,-1,9
 144 471 144 471 154 462.5 c 128,-1,10
 164 454 164 454 161 444 c 2,11,-1
 50 0 l 1,0,-1
804 251 m 2,12,-1
 841 384 l 2,13,14
 850 414 850 414 855 439 c 128,-1,15
 860 464 860 464 860 489 c 256,16,17
 860 514 860 514 849 533.5 c 128,-1,18
 838 553 838 553 816 564 c 128,-1,19
 794 575 794 575 761 575 c 0,20,21
 711 575 711 575 668.5 548.5 c 128,-1,22
 626 522 626 522 587 476.5 c 128,-1,23
 548 431 548 431 509 373 c 1,24,-1
 513 322 l 1,25,26
 554 374 554 374 588 412 c 128,-1,27
 622 450 622 450 651.5 470.5 c 128,-1,28
 681 491 681 491 711 491 c 0,29,30
 736 491 736 491 747 479 c 128,-1,31
 758 467 758 467 758 446 c 0,32,33
 758 432 758 432 755 416 c 128,-1,34
 752 400 752 400 743 372 c 2,35,-1
 707 243 l 2,36,37
 689 181 689 181 679 146 c 128,-1,38
 669 111 669 111 665.5 92 c 128,-1,39
 662 73 662 73 662 59 c 0,40,41
 662 40 662 40 672 26.5 c 128,-1,42
 682 13 682 13 701 6.5 c 128,-1,43
 720 0 720 0 746 0 c 0,44,45
 764 0 764 0 783.5 0 c 128,-1,46
 803 0 803 0 822 0 c 128,-1,47
 841 0 841 0 859 0 c 1,48,-1
 873 72 l 1,49,50
 857 72 857 72 841 72 c 128,-1,51
 825 72 825 72 809 72 c 128,-1,52
 793 72 793 72 778 72 c 0,53,54
 769 72 769 72 765 76 c 128,-1,55
 761 80 761 80 761 87 c 0,56,57
 761 93 761 93 765 109 c 128,-1,58
 769 125 769 125 778 159 c 128,-1,59
 787 193 787 193 804 251 c 2,12,-1
345 0 m 1,60,-1
 442 0 l 1,61,-1
 539 371 l 2,62,63
 539 372 539 372 540 390.5 c 128,-1,64
 541 409 541 409 542 434.5 c 128,-1,65
 543 460 543 460 544 480 c 128,-1,66
 545 500 545 500 545 503 c 0,67,68
 545 527 545 527 535.5 542.5 c 128,-1,69
 526 558 526 558 507.5 566.5 c 128,-1,70
 489 575 489 575 462 575 c 0,71,72
 410 575 410 575 366.5 549 c 128,-1,73
 323 523 323 523 285 478 c 128,-1,74
 247 433 247 433 209 373 c 1,75,-1
 212 321 l 1,76,77
 254 374 254 374 287.5 412 c 128,-1,78
 321 450 321 450 352.5 470.5 c 128,-1,79
 384 491 384 491 415 491 c 0,80,81
 442 491 442 491 452 482 c 128,-1,82
 462 473 462 473 462 456 c 0,83,84
 462 443 462 443 458.5 424.5 c 128,-1,85
 455 406 455 406 447 379 c 2,86,-1
 345 0 l 1,60,-1
EndSplineSet
EndChar

StartChar: n
Encoding: 110 110 92
Width: 665
GlyphClass: 2
Flags: W
AnchorPoint: "Anchor-1" 338 0 basechar 0
AnchorPoint: "Anchor-0" 331 551 basechar 0
LayerCount: 2
Fore
SplineSet
45 0 m 1,0,-1
 140 0 l 1,1,-1
 235 385 l 1,2,-1
 231 394 l 1,3,-1
 244 565 l 1,4,-1
 88 565 l 1,5,-1
 71 493 l 1,6,-1
 80 491 l 2,7,8
 106 486 106 486 123.5 478.5 c 128,-1,9
 141 471 141 471 149.5 463 c 128,-1,10
 158 455 158 455 156 445 c 2,11,-1
 45 0 l 1,0,-1
538 250 m 2,12,-1
 575 384 l 2,13,14
 583 413 583 413 588.5 439.5 c 128,-1,15
 594 466 594 466 594 487 c 0,16,17
 594 527 594 527 566 551 c 128,-1,18
 538 575 538 575 486 575 c 0,19,20
 431 575 431 575 383.5 549 c 128,-1,21
 336 523 336 523 293 477.5 c 128,-1,22
 250 432 250 432 209 373 c 1,23,-1
 215 336 l 1,24,25
 260 382 260 382 298.5 417 c 128,-1,26
 337 452 337 452 372 471.5 c 128,-1,27
 407 491 407 491 441 491 c 0,28,29
 470 491 470 491 480.5 479 c 128,-1,30
 491 467 491 467 491 446 c 0,31,32
 491 431 491 431 488 417 c 128,-1,33
 485 403 485 403 480 387 c 2,34,-1
 441 243 l 2,35,36
 424 180 424 180 414.5 145 c 128,-1,37
 405 110 405 110 401 91.5 c 128,-1,38
 397 73 397 73 397 59 c 0,39,40
 397 40 397 40 407 26.5 c 128,-1,41
 417 13 417 13 436.5 6.5 c 128,-1,42
 456 0 456 0 482 0 c 0,43,44
 500 0 500 0 517.5 0 c 128,-1,45
 535 0 535 0 553 0 c 128,-1,46
 571 0 571 0 589 0 c 1,47,-1
 602 72 l 1,48,49
 586 72 586 72 571.5 72 c 128,-1,50
 557 72 557 72 542.5 72 c 128,-1,51
 528 72 528 72 513 72 c 0,52,53
 504 72 504 72 500.5 76 c 128,-1,54
 497 80 497 80 497 87 c 0,55,56
 497 93 497 93 500.5 109 c 128,-1,57
 504 125 504 125 513 158.5 c 128,-1,58
 522 192 522 192 538 250 c 2,12,-1
EndSplineSet
EndChar

StartChar: o
Encoding: 111 111 94
Width: 622
GlyphClass: 2
Flags: W
AnchorPoint: "Anchor-2" 411 0 basechar 0
AnchorPoint: "Anchor-1" 310 0 basechar 0
AnchorPoint: "Anchor-0" 310 551 basechar 0
LayerCount: 2
Fore
SplineSet
452 208 m 0,0,1
 461 233 461 233 466.5 258.5 c 128,-1,2
 472 284 472 284 475 311.5 c 128,-1,3
 478 339 478 339 478 368 c 0,4,5
 478 410 478 410 465.5 440 c 128,-1,6
 453 470 453 470 425 486 c 128,-1,7
 397 502 397 502 348 502 c 0,8,9
 314 502 314 502 286 491.5 c 128,-1,10
 258 481 258 481 236 461 c 128,-1,11
 214 441 214 441 198 414.5 c 128,-1,12
 182 388 182 388 171 356 c 0,13,14
 162 331 162 331 156 305 c 128,-1,15
 150 279 150 279 147 251 c 128,-1,16
 144 223 144 223 144 194 c 0,17,18
 144 153 144 153 156.5 122.5 c 128,-1,19
 169 92 169 92 197.5 76 c 128,-1,20
 226 60 226 60 274 60 c 0,21,22
 308 60 308 60 336.5 71 c 128,-1,23
 365 82 365 82 386.5 102 c 128,-1,24
 408 122 408 122 424.5 149 c 128,-1,25
 441 176 441 176 452 208 c 0,0,1
44 203 m 0,26,27
 44 260 44 260 57.5 313.5 c 128,-1,28
 71 367 71 367 97 414.5 c 128,-1,29
 123 462 123 462 160.5 498 c 128,-1,30
 198 534 198 534 246.5 554.5 c 128,-1,31
 295 575 295 575 355 575 c 0,32,33
 425 575 425 575 475 548 c 128,-1,34
 525 521 525 521 551 472 c 128,-1,35
 577 423 577 423 577 359 c 0,36,37
 577 302 577 302 564 248.5 c 128,-1,38
 551 195 551 195 525 147.5 c 128,-1,39
 499 100 499 100 461 64 c 128,-1,40
 423 28 423 28 374.5 7.5 c 128,-1,41
 326 -13 326 -13 267 -13 c 0,42,43
 197 -13 197 -13 147 14.5 c 128,-1,44
 97 42 97 42 70.5 90.5 c 128,-1,45
 44 139 44 139 44 203 c 0,26,27
EndSplineSet
EndChar

StartChar: p
Encoding: 112 112 100
Width: 666
GlyphClass: 1
Flags: W
LayerCount: 2
Fore
SplineSet
-85 -223 m 1,0,-1
 -71 -159 l 1,1,-1
 -67 -159 l 2,2,3
 -29 -159 -29 -159 -8.5 -144 c 128,-1,4
 12 -129 12 -129 23 -83 c 2,5,-1
 157 445 l 2,6,7
 159 455 159 455 150.5 463 c 128,-1,8
 142 471 142 471 124.5 478.5 c 128,-1,9
 107 486 107 486 81 491 c 2,10,-1
 72 493 l 1,11,-1
 89 565 l 1,12,-1
 244 565 l 1,13,-1
 231 396 l 1,14,-1
 237 388 l 1,15,-1
 101 -149 l 2,16,17
 100 -152 100 -152 107.5 -153.5 c 128,-1,18
 115 -155 115 -155 127 -156.5 c 128,-1,19
 139 -158 139 -158 152 -158.5 c 128,-1,20
 165 -159 165 -159 177 -159 c 2,21,-1
 200 -159 l 1,22,-1
 186 -223 l 1,23,-1
 -85 -223 l 1,0,-1
154 173 m 1,24,-1
 178 207 l 1,25,26
 191 162 191 162 211 131 c 128,-1,27
 231 100 231 100 262 83.5 c 128,-1,28
 293 67 293 67 337 67 c 0,29,30
 375 67 375 67 405 87.5 c 128,-1,31
 435 108 435 108 457 142.5 c 128,-1,32
 479 177 479 177 493.5 218.5 c 128,-1,33
 508 260 508 260 514.5 304 c 128,-1,34
 521 348 521 348 521 386 c 0,35,36
 521 418 521 418 513 442.5 c 128,-1,37
 505 467 505 467 485.5 481.5 c 128,-1,38
 466 496 466 496 432 496 c 0,39,40
 388 496 388 496 354 476 c 128,-1,41
 320 456 320 456 287.5 417.5 c 128,-1,42
 255 379 255 379 215 321 c 1,43,-1
 203 366 l 1,44,45
 237 426 237 426 276.5 473 c 128,-1,46
 316 520 316 520 362 547.5 c 128,-1,47
 408 575 408 575 460 575 c 0,48,49
 518 575 518 575 553.5 550 c 128,-1,50
 589 525 589 525 605.5 482 c 128,-1,51
 622 439 622 439 622 386 c 0,52,53
 622 336 622 336 610.5 281 c 128,-1,54
 599 226 599 226 576 174 c 128,-1,55
 553 122 553 122 519 79.5 c 128,-1,56
 485 37 485 37 440.5 12 c 128,-1,57
 396 -13 396 -13 340 -13 c 0,58,59
 286 -13 286 -13 248.5 12.5 c 128,-1,60
 211 38 211 38 188 80.5 c 128,-1,61
 165 123 165 123 154 173 c 1,24,-1
EndSplineSet
EndChar

StartChar: q
Encoding: 113 113 101
Width: 631
GlyphClass: 1
Flags: W
LayerCount: 2
Fore
SplineSet
229 -223 m 1,0,-1
 243 -159 l 1,1,-1
 266 -159 l 2,2,3
 282 -159 282 -159 298 -158 c 128,-1,4
 314 -157 314 -157 325.5 -154.5 c 128,-1,5
 337 -152 337 -152 338 -149 c 2,6,-1
 483 424 l 1,7,-1
 489 429 l 1,8,-1
 555 565 l 1,9,-1
 614 565 l 1,10,-1
 451 -83 l 2,11,12
 444 -113 444 -113 449 -129.5 c 128,-1,13
 454 -146 454 -146 470 -152.5 c 128,-1,14
 486 -159 486 -159 510 -159 c 2,15,-1
 514 -159 l 1,16,-1
 500 -223 l 1,17,-1
 229 -223 l 1,0,-1
514 392 m 1,18,-1
 490 365 l 1,19,20
 476 403 476 403 456.5 432.5 c 128,-1,21
 437 462 437 462 408 478.5 c 128,-1,22
 379 495 379 495 335 495 c 0,23,24
 296 495 296 495 265.5 474.5 c 128,-1,25
 235 454 235 454 212.5 419.5 c 128,-1,26
 190 385 190 385 174.5 343 c 128,-1,27
 159 301 159 301 151.5 257.5 c 128,-1,28
 144 214 144 214 144 175 c 0,29,30
 144 141 144 141 151.5 116.5 c 128,-1,31
 159 92 159 92 177.5 79 c 128,-1,32
 196 66 196 66 230 66 c 0,33,34
 273 66 273 66 308 85.5 c 128,-1,35
 343 105 343 105 377 142 c 128,-1,36
 411 179 411 179 451 229 c 1,37,-1
 463 192 l 1,38,39
 429 137 429 137 388.5 90.5 c 128,-1,40
 348 44 348 44 302.5 15.5 c 128,-1,41
 257 -13 257 -13 206 -13 c 0,42,43
 146 -13 146 -13 110.5 12 c 128,-1,44
 75 37 75 37 59.5 80 c 128,-1,45
 44 123 44 123 44 175 c 0,46,47
 44 225 44 225 56 280.5 c 128,-1,48
 68 336 68 336 92 388 c 128,-1,49
 116 440 116 440 150.5 482.5 c 128,-1,50
 185 525 185 525 230.5 550 c 128,-1,51
 276 575 276 575 332 575 c 0,52,53
 386 575 386 575 422.5 550 c 128,-1,54
 459 525 459 525 481 484 c 128,-1,55
 503 443 503 443 514 392 c 1,18,-1
EndSplineSet
EndChar

StartChar: r
Encoding: 114 114 102
Width: 481
GlyphClass: 2
Flags: W
AnchorPoint: "Anchor-1" 195 0 basechar 0
AnchorPoint: "Anchor-0" 255 545 basechar 0
LayerCount: 2
Fore
SplineSet
49 0 m 1,0,-1
 145 0 l 1,1,-1
 240 386 l 1,2,-1
 232 394 l 1,3,-1
 245 565 l 1,4,-1
 89 565 l 1,5,-1
 73 493 l 1,6,-1
 82 491 l 2,7,8
 107 486 107 486 125.5 478.5 c 128,-1,9
 144 471 144 471 154 463 c 128,-1,10
 164 455 164 455 161 445 c 2,11,-1
 49 0 l 1,0,-1
488 572 m 2,12,13
 485 574 485 574 471.5 575.5 c 128,-1,14
 458 577 458 577 441 577 c 0,15,16
 407 577 407 577 378.5 564.5 c 128,-1,17
 350 552 350 552 323 526.5 c 128,-1,18
 296 501 296 501 266 461 c 128,-1,19
 236 421 236 421 200 366 c 1,20,-1
 212 340 l 1,21,22
 237 370 237 370 260 391.5 c 128,-1,23
 283 413 283 413 306.5 427.5 c 128,-1,24
 330 442 330 442 355.5 449 c 128,-1,25
 381 456 381 456 411 456 c 0,26,27
 424 456 424 456 437.5 455 c 128,-1,28
 451 454 451 454 468 452 c 1,29,-1
 488 572 l 2,12,13
EndSplineSet
EndChar

StartChar: s
Encoding: 115 115 103
Width: 523
GlyphClass: 2
Flags: W
AnchorPoint: "Anchor-1" 261 0 basechar 0
AnchorPoint: "Anchor-0" 261 546 basechar 0
LayerCount: 2
Fore
SplineSet
236 -12 m 0,0,1
 186 -12 186 -12 143.5 -4.5 c 128,-1,2
 101 3 101 3 68 15.5 c 128,-1,3
 35 28 35 28 15 42 c 1,4,-1
 46 187 l 1,5,-1
 144 187 l 1,6,-1
 112 37 l 1,7,8
 92 47 92 47 83.5 57 c 128,-1,9
 75 67 75 67 74.5 78 c 128,-1,10
 74 89 74 89 77 103 c 1,11,12
 88 91 88 91 113.5 80.5 c 128,-1,13
 139 70 139 70 171.5 63.5 c 128,-1,14
 204 57 204 57 235 57 c 0,15,16
 269 57 269 57 297.5 64.5 c 128,-1,17
 326 72 326 72 343.5 89.5 c 128,-1,18
 361 107 361 107 361 141 c 0,19,20
 361 163 361 163 351 179.5 c 128,-1,21
 341 196 341 196 324.5 208.5 c 128,-1,22
 308 221 308 221 286 232.5 c 128,-1,23
 264 244 264 244 240 255 c 0,24,25
 205 273 205 273 174 292 c 128,-1,26
 143 311 143 311 123.5 340 c 128,-1,27
 104 369 104 369 104 414 c 0,28,29
 104 462 104 462 125.5 498 c 128,-1,30
 147 534 147 534 192.5 554.5 c 128,-1,31
 238 575 238 575 311 575 c 0,32,33
 353 575 353 575 390 568.5 c 128,-1,34
 427 562 427 562 453.5 553.5 c 128,-1,35
 480 545 480 545 491 539 c 1,36,-1
 462 400 l 1,37,-1
 366 400 l 1,38,-1
 392 519 l 1,39,40
 405 518 405 518 415 512 c 128,-1,41
 425 506 425 506 432.5 496 c 128,-1,42
 440 486 440 486 443 470 c 1,43,44
 426 480 426 480 408 488 c 128,-1,45
 390 496 390 496 366 501.5 c 128,-1,46
 342 507 342 507 305 507 c 0,47,48
 241 507 241 507 216.5 485 c 128,-1,49
 192 463 192 463 192 426 c 0,50,51
 192 403 192 403 206.5 385.5 c 128,-1,52
 221 368 221 368 246 353.5 c 128,-1,53
 271 339 271 339 301 324 c 0,54,55
 339 307 339 307 374 287 c 128,-1,56
 409 267 409 267 431 237 c 128,-1,57
 453 207 453 207 453 160 c 0,58,59
 453 104 453 104 425.5 65 c 128,-1,60
 398 26 398 26 349 7 c 128,-1,61
 300 -12 300 -12 236 -12 c 0,0,1
EndSplineSet
EndChar

StartChar: scaron
Encoding: 154 353 104
Width: 523
GlyphClass: 1
Flags: W
LayerCount: 2
Fore
SplineSet
287 652 m 1,0,-1
 352 652 l 1,1,-1
 519 824 l 1,2,-1
 524 844 l 1,3,-1
 469 844 l 1,4,-1
 308 726 l 1,5,-1
 372 719 l 1,6,-1
 261 844 l 1,7,-1
 206 844 l 1,8,-1
 201 824 l 1,9,-1
 287 652 l 1,0,-1
236 -12 m 0,10,11
 186 -12 186 -12 143.5 -4.5 c 128,-1,12
 101 3 101 3 68 15.5 c 128,-1,13
 35 28 35 28 15 42 c 1,14,-1
 46 187 l 1,15,-1
 144 187 l 1,16,-1
 112 37 l 1,17,18
 92 47 92 47 83.5 57 c 128,-1,19
 75 67 75 67 74.5 78 c 128,-1,20
 74 89 74 89 77 103 c 1,21,22
 88 91 88 91 113.5 80.5 c 128,-1,23
 139 70 139 70 171.5 63.5 c 128,-1,24
 204 57 204 57 235 57 c 0,25,26
 269 57 269 57 297.5 64.5 c 128,-1,27
 326 72 326 72 343.5 89.5 c 128,-1,28
 361 107 361 107 361 141 c 0,29,30
 361 163 361 163 351 179.5 c 128,-1,31
 341 196 341 196 324.5 208.5 c 128,-1,32
 308 221 308 221 286 232.5 c 128,-1,33
 264 244 264 244 240 255 c 0,34,35
 205 273 205 273 174 292 c 128,-1,36
 143 311 143 311 123.5 340 c 128,-1,37
 104 369 104 369 104 414 c 0,38,39
 104 462 104 462 125.5 498 c 128,-1,40
 147 534 147 534 192.5 554.5 c 128,-1,41
 238 575 238 575 311 575 c 0,42,43
 353 575 353 575 390 568.5 c 128,-1,44
 427 562 427 562 453.5 553.5 c 128,-1,45
 480 545 480 545 491 539 c 1,46,-1
 462 400 l 1,47,-1
 366 400 l 1,48,-1
 392 519 l 1,49,50
 405 518 405 518 415 512 c 128,-1,51
 425 506 425 506 432.5 496 c 128,-1,52
 440 486 440 486 443 470 c 1,53,54
 426 480 426 480 408 488 c 128,-1,55
 390 496 390 496 366 501.5 c 128,-1,56
 342 507 342 507 305 507 c 0,57,58
 241 507 241 507 216.5 485 c 128,-1,59
 192 463 192 463 192 426 c 0,60,61
 192 403 192 403 206.5 385.5 c 128,-1,62
 221 368 221 368 246 353.5 c 128,-1,63
 271 339 271 339 301 324 c 0,64,65
 339 307 339 307 374 287 c 128,-1,66
 409 267 409 267 431 237 c 128,-1,67
 453 207 453 207 453 160 c 0,68,69
 453 104 453 104 425.5 65 c 128,-1,70
 398 26 398 26 349 7 c 128,-1,71
 300 -12 300 -12 236 -12 c 0,10,11
EndSplineSet
EndChar

StartChar: t
Encoding: 116 116 105
Width: 444
GlyphClass: 2
Flags: W
AnchorPoint: "Anchor-2" 349 681 basechar 0
AnchorPoint: "Anchor-1" 290 0 basechar 0
AnchorPoint: "Anchor-0" 184 675 basechar 0
LayerCount: 2
Fore
SplineSet
207 0 m 0,0,1
 164 0 164 0 137 10 c 128,-1,2
 110 20 110 20 98.5 40.5 c 128,-1,3
 87 61 87 61 87 91 c 0,4,5
 87 110 87 110 91 132 c 128,-1,6
 95 154 95 154 101 178.5 c 128,-1,7
 107 203 107 203 113 228 c 2,8,-1
 192 552 l 1,9,-1
 263 565 l 1,10,-1
 456 565 l 1,11,-1
 439 487 l 1,12,-1
 61 487 l 1,13,-1
 78 560 l 1,14,-1
 94 560 l 2,15,16
 130 560 130 560 155 565 c 128,-1,17
 180 570 180 570 196 587.5 c 128,-1,18
 212 605 212 605 221 640 c 2,19,-1
 244 731 l 1,20,-1
 330 731 l 1,21,-1
 196 182 l 2,22,23
 193 171 193 171 190 158.5 c 128,-1,24
 187 146 187 146 185.5 135 c 128,-1,25
 184 124 184 124 184 115 c 0,26,27
 184 96 184 96 194.5 88 c 128,-1,28
 205 80 205 80 227 80 c 0,29,30
 233 80 233 80 254.5 80 c 128,-1,31
 276 80 276 80 302.5 80 c 128,-1,32
 329 80 329 80 349 80 c 1,33,-1
 330 0 l 1,34,35
 304 0 304 0 273 0 c 128,-1,36
 242 0 242 0 207 0 c 0,0,1
EndSplineSet
EndChar

StartChar: u
Encoding: 117 117 106
Width: 652
GlyphClass: 2
Flags: W
AnchorPoint: "Anchor-2" 470 0 basechar 0
AnchorPoint: "Anchor-1" 301 0 basechar 0
AnchorPoint: "Anchor-0" 301 551 basechar 0
LayerCount: 2
Fore
SplineSet
187 194 m 2,0,1
 180 167 180 167 176.5 150.5 c 128,-1,2
 173 134 173 134 173 118 c 0,3,4
 173 104 173 104 178.5 94 c 128,-1,5
 184 84 184 84 196 79 c 128,-1,6
 208 74 208 74 228 74 c 0,7,8
 261 74 261 74 294.5 95 c 128,-1,9
 328 116 328 116 366 153.5 c 128,-1,10
 404 191 404 191 447 242 c 1,11,-1
 450 176 l 1,12,13
 411 125 411 125 369.5 82.5 c 128,-1,14
 328 40 328 40 281.5 15 c 128,-1,15
 235 -10 235 -10 179 -10 c 0,16,17
 128 -10 128 -10 101 16.5 c 128,-1,18
 74 43 74 43 74 83 c 0,19,20
 74 105 74 105 79 127.5 c 128,-1,21
 84 150 84 150 91 179 c 2,22,-1
 159 446 l 2,23,24
 162 455 162 455 152 463.5 c 128,-1,25
 142 472 142 472 123.5 479 c 128,-1,26
 105 486 105 486 80 491 c 2,27,-1
 71 493 l 1,28,-1
 87 565 l 1,29,-1
 281 565 l 1,30,-1
 187 194 l 2,0,1
524 263 m 2,31,32
 510 205 510 205 501 168.5 c 128,-1,33
 492 132 492 132 487.5 113.5 c 128,-1,34
 483 95 483 95 483 89 c 0,35,36
 483 82 483 82 487 77.5 c 128,-1,37
 491 73 491 73 502 73 c 0,38,39
 525 73 525 73 547 73 c 128,-1,40
 569 73 569 73 594 73 c 1,41,-1
 581 0 l 1,42,43
 563 0 563 0 544.5 0 c 128,-1,44
 526 0 526 0 508 0 c 128,-1,45
 490 0 490 0 472 0 c 0,46,47
 440 0 440 0 424 13 c 128,-1,48
 408 26 408 26 408 53 c 0,49,50
 408 59 408 59 409 76.5 c 128,-1,51
 410 94 410 94 412 119 c 128,-1,52
 414 144 414 144 416 171 c 1,53,-1
 405 162 l 1,54,-1
 504 565 l 1,55,-1
 600 565 l 1,56,-1
 524 263 l 2,31,32
EndSplineSet
EndChar

StartChar: v
Encoding: 118 118 111
Width: 539
GlyphClass: 1
Flags: W
LayerCount: 2
Fore
SplineSet
209 565 m 1,0,-1
 45 565 l 1,1,-1
 30 493 l 1,2,-1
 43 490 l 2,3,4
 65 486 65 486 84.5 478.5 c 128,-1,5
 104 471 104 471 115.5 463 c 128,-1,6
 127 455 127 455 128 445 c 2,7,-1
 163 -1 l 1,8,-1
 254 -1 l 1,9,10
 291 68 291 68 328.5 137.5 c 128,-1,11
 366 207 366 207 403 277 c 128,-1,12
 440 347 440 347 477.5 416.5 c 128,-1,13
 515 486 515 486 552 555 c 1,14,-1
 552 565 l 1,15,-1
 458 565 l 1,16,17
 429 501 429 501 398.5 437.5 c 128,-1,18
 368 374 368 374 339 309 c 128,-1,19
 310 244 310 244 279.5 180 c 128,-1,20
 249 116 249 116 219 52 c 1,21,-1
 246 44 l 1,22,-1
 209 565 l 1,0,-1
EndSplineSet
EndChar

StartChar: w
Encoding: 119 119 112
Width: 811
GlyphClass: 1
Flags: W
LayerCount: 2
Fore
SplineSet
232 -1 m 1,0,-1
 141 -1 l 1,1,-1
 125 445 l 2,2,3
 125 455 125 455 113.5 463 c 128,-1,4
 102 471 102 471 83.5 478.5 c 128,-1,5
 65 486 65 486 43 490 c 2,6,-1
 30 493 l 1,7,-1
 45 565 l 1,8,-1
 209 565 l 1,9,-1
 225 46 l 1,10,-1
 197 57 l 1,11,12
 226 121 226 121 255 184.5 c 128,-1,13
 284 248 284 248 312.5 311 c 128,-1,14
 341 374 341 374 370 438 c 128,-1,15
 399 502 399 502 428 565 c 1,16,-1
 512 565 l 1,17,-1
 537 43 l 1,18,-1
 511 52 l 1,19,20
 538 117 538 117 566 181 c 128,-1,21
 594 245 594 245 622 308.5 c 128,-1,22
 650 372 650 372 677.5 436.5 c 128,-1,23
 705 501 705 501 733 565 c 1,24,-1
 824 565 l 1,25,-1
 824 555 l 1,26,27
 789 486 789 486 754.5 416.5 c 128,-1,28
 720 347 720 347 685.5 277 c 128,-1,29
 651 207 651 207 616.5 137.5 c 128,-1,30
 582 68 582 68 547 -1 c 1,31,-1
 458 -1 l 1,32,-1
 435 449 l 1,33,-1
 459 465 l 1,34,35
 421 388 421 388 383 310 c 128,-1,36
 345 232 345 232 307.5 154.5 c 128,-1,37
 270 77 270 77 232 -1 c 1,0,-1
EndSplineSet
EndChar

StartChar: x
Encoding: 120 120 113
Width: 570
GlyphClass: 1
Flags: W
LayerCount: 2
Fore
SplineSet
319 271 m 1,0,-1
 299 323 l 1,1,-1
 454 565 l 1,2,-1
 560 565 l 1,3,-1
 560 554 l 1,4,-1
 319 271 l 1,0,-1
-1 0 m 1,5,-1
 0 11 l 1,6,-1
 255 314 l 1,7,-1
 278 258 l 1,8,-1
 106 0 l 1,9,-1
 -1 0 l 1,5,-1
413 0 m 0,10,11
 385 0 385 0 367.5 6.5 c 128,-1,12
 350 13 350 13 339 28.5 c 128,-1,13
 328 44 328 44 318 71 c 2,14,-1
 189 446 l 2,15,16
 186 456 186 456 171.5 464.5 c 128,-1,17
 157 473 157 473 136 479.5 c 128,-1,18
 115 486 115 486 93 490 c 2,19,-1
 78 493 l 1,20,-1
 95 565 l 1,21,-1
 246 565 l 1,22,-1
 398 107 l 2,23,24
 403 93 403 93 408.5 85.5 c 128,-1,25
 414 78 414 78 422 75 c 128,-1,26
 430 72 430 72 442 72 c 0,27,28
 458 72 458 72 474.5 72 c 128,-1,29
 491 72 491 72 509 72 c 1,30,-1
 496 0 l 1,31,32
 476 0 476 0 454.5 0 c 128,-1,33
 433 0 433 0 413 0 c 0,10,11
EndSplineSet
EndChar

StartChar: y
Encoding: 121 121 114
Width: 549
GlyphClass: 1
Flags: W
LayerCount: 2
Fore
SplineSet
195 -14 m 1,0,-1
 239 33 l 1,1,-1
 271 77 l 1,2,-1
 206 565 l 1,3,-1
 47 565 l 1,4,-1
 32 493 l 1,5,-1
 45 490 l 2,6,7
 67 486 67 486 84.5 478.5 c 128,-1,8
 102 471 102 471 113.5 463 c 128,-1,9
 125 455 125 455 126 445 c 2,10,-1
 195 -14 l 1,0,-1
232 67 m 1,11,-1
 207 45 l 1,12,13
 174 -16 174 -16 146.5 -53.5 c 128,-1,14
 119 -91 119 -91 94.5 -111 c 128,-1,15
 70 -131 70 -131 47 -138.5 c 128,-1,16
 24 -146 24 -146 -1 -146 c 0,17,18
 -28 -146 -28 -146 -54 -137 c 128,-1,19
 -80 -128 -80 -128 -90 -123 c 1,20,-1
 -112 -212 l 1,21,22
 -102 -217 -102 -217 -78.5 -224.5 c 128,-1,23
 -55 -232 -55 -232 -22 -232 c 0,24,25
 16 -232 16 -232 49.5 -223 c 128,-1,26
 83 -214 83 -214 116.5 -188 c 128,-1,27
 150 -162 150 -162 187 -112.5 c 128,-1,28
 224 -63 224 -63 268 18 c 0,29,30
 298 74 298 74 328 129 c 128,-1,31
 358 184 358 184 387.5 238 c 128,-1,32
 417 292 417 292 446 345.5 c 128,-1,33
 475 399 475 399 503.5 451.5 c 128,-1,34
 532 504 532 504 560 555 c 1,35,-1
 560 565 l 1,36,-1
 464 565 l 1,37,38
 435 503 435 503 406 441 c 128,-1,39
 377 379 377 379 348 316.5 c 128,-1,40
 319 254 319 254 290 192 c 128,-1,41
 261 130 261 130 232 67 c 1,11,-1
EndSplineSet
EndChar

StartChar: z
Encoding: 122 122 117
Width: 575
GlyphClass: 2
Flags: W
AnchorPoint: "Anchor-1" 312 0 basechar 0
AnchorPoint: "Anchor-0" 289 551 basechar 0
LayerCount: 2
Fore
SplineSet
366 -13 m 0,0,1
 333 -13 333 -13 305.5 -2 c 128,-1,2
 278 9 278 9 253 29.5 c 128,-1,3
 228 50 228 50 202.5 78.5 c 128,-1,4
 177 107 177 107 148 141 c 1,5,-1
 181 172 l 1,6,7
 214 143 214 143 238 124 c 128,-1,8
 262 105 262 105 288.5 96 c 128,-1,9
 315 87 315 87 353 87 c 0,10,11
 382 87 382 87 401 97 c 128,-1,12
 420 107 420 107 433.5 134.5 c 128,-1,13
 447 162 447 162 457 214 c 1,14,-1
 517 201 l 1,15,16
 518 143 518 143 508 102.5 c 128,-1,17
 498 62 498 62 478 36.5 c 128,-1,18
 458 11 458 11 430 -1 c 128,-1,19
 402 -13 402 -13 366 -13 c 0,0,1
71 0 m 1,20,-1
 10 0 l 1,21,-1
 20 63 l 1,22,-1
 438 507 l 1,23,-1
 460 487 l 1,24,-1
 324 487 l 2,25,26
 275 487 275 487 246.5 483.5 c 128,-1,27
 218 480 218 480 204 471 c 128,-1,28
 190 462 190 462 184 444 c 2,29,-1
 160 379 l 1,30,-1
 89 379 l 1,31,-1
 131 565 l 1,32,-1
 551 565 l 1,33,-1
 537 496 l 1,34,-1
 71 0 l 1,20,-1
EndSplineSet
EndChar

StartChar: zcaron
Encoding: 158 382 118
Width: 575
GlyphClass: 1
Flags: W
LayerCount: 2
Fore
SplineSet
302 652 m 1,0,-1
 367 652 l 1,1,-1
 535 824 l 1,2,-1
 540 844 l 1,3,-1
 485 844 l 1,4,-1
 324 726 l 1,5,-1
 387 719 l 1,6,-1
 276 844 l 1,7,-1
 222 844 l 1,8,-1
 216 824 l 1,9,-1
 302 652 l 1,0,-1
366 -13 m 0,10,11
 333 -13 333 -13 305.5 -2 c 128,-1,12
 278 9 278 9 253 29.5 c 128,-1,13
 228 50 228 50 202.5 78.5 c 128,-1,14
 177 107 177 107 148 141 c 1,15,-1
 181 172 l 1,16,17
 214 143 214 143 238 124 c 128,-1,18
 262 105 262 105 288.5 96 c 128,-1,19
 315 87 315 87 353 87 c 0,20,21
 382 87 382 87 401 97 c 128,-1,22
 420 107 420 107 433.5 134.5 c 128,-1,23
 447 162 447 162 457 214 c 1,24,-1
 517 201 l 1,25,26
 518 143 518 143 508 102.5 c 128,-1,27
 498 62 498 62 478 36.5 c 128,-1,28
 458 11 458 11 430 -1 c 128,-1,29
 402 -13 402 -13 366 -13 c 0,10,11
71 0 m 1,30,-1
 10 0 l 1,31,-1
 20 63 l 1,32,-1
 438 507 l 1,33,-1
 460 487 l 1,34,-1
 324 487 l 2,35,36
 275 487 275 487 246.5 483.5 c 128,-1,37
 218 480 218 480 204 471 c 128,-1,38
 190 462 190 462 184 444 c 2,39,-1
 160 379 l 1,40,-1
 89 379 l 1,41,-1
 131 565 l 1,42,-1
 551 565 l 1,43,-1
 537 496 l 1,44,-1
 71 0 l 1,30,-1
EndSplineSet
EndChar

StartChar: germandbls
Encoding: 223 223 119
Width: 643
GlyphClass: 1
Flags: W
LayerCount: 2
Fore
SplineSet
76 565 m 1,0,-1
 251 565 l 1,1,-1
 234 489 l 1,2,-1
 59 489 l 1,3,-1
 76 565 l 1,0,-1
36 -223 m 1,4,-1
 190 619 l 2,5,6
 201 680 201 680 230.5 717.5 c 128,-1,7
 260 755 260 755 304.5 772.5 c 128,-1,8
 349 790 349 790 406 790 c 0,9,10
 476 790 476 790 517 769.5 c 128,-1,11
 558 749 558 749 575.5 714.5 c 128,-1,12
 593 680 593 680 593 638 c 0,13,14
 593 584 593 584 576.5 545 c 128,-1,15
 560 506 560 506 532 481.5 c 128,-1,16
 504 457 504 457 468.5 445.5 c 128,-1,17
 433 434 433 434 395 434 c 1,18,-1
 423 453 l 1,19,-1
 408 407 l 1,20,-1
 394 435 l 1,21,22
 450 426 450 426 493.5 404.5 c 128,-1,23
 537 383 537 383 562.5 343.5 c 128,-1,24
 588 304 588 304 588 240 c 0,25,26
 588 182 588 182 571 135.5 c 128,-1,27
 554 89 554 89 523.5 56.5 c 128,-1,28
 493 24 493 24 451.5 7 c 128,-1,29
 410 -10 410 -10 362 -10 c 0,30,31
 330 -10 330 -10 306 -5 c 128,-1,32
 282 0 282 0 269 6 c 1,33,-1
 287 82 l 1,34,35
 291 80 291 80 301.5 76 c 128,-1,36
 312 72 312 72 328 69 c 128,-1,37
 344 66 344 66 364 66 c 0,38,39
 393 66 393 66 416.5 78 c 128,-1,40
 440 90 440 90 455.5 113 c 128,-1,41
 471 136 471 136 479 169 c 128,-1,42
 487 202 487 202 487 243 c 0,43,44
 487 287 487 287 477.5 314 c 128,-1,45
 468 341 468 341 449.5 356 c 128,-1,46
 431 371 431 371 403.5 378 c 128,-1,47
 376 385 376 385 340 389 c 1,48,-1
 360 479 l 1,49,50
 389 479 389 479 414.5 485 c 128,-1,51
 440 491 440 491 458.5 507.5 c 128,-1,52
 477 524 477 524 487 554.5 c 128,-1,53
 497 585 497 585 497 633 c 0,54,55
 497 665 497 665 486.5 682.5 c 128,-1,56
 476 700 476 700 455.5 707.5 c 128,-1,57
 435 715 435 715 404 715 c 0,58,59
 367 715 367 715 343.5 706 c 128,-1,60
 320 697 320 697 306.5 673.5 c 128,-1,61
 293 650 293 650 284 608 c 2,62,-1
 121 -223 l 1,63,-1
 36 -223 l 1,4,-1
EndSplineSet
EndChar

StartChar: ae
Encoding: 230 230 120
Width: 900
GlyphClass: 2
Flags: W
AnchorPoint: "Anchor-0" 507 517 basechar 0
LayerCount: 2
Fore
SplineSet
318 499 m 0,0,1
 286 499 286 499 255 493 c 128,-1,2
 224 487 224 487 201 479.5 c 128,-1,3
 178 472 178 472 169 467 c 1,4,5
 167 471 167 471 171.5 479 c 128,-1,6
 176 487 176 487 185 495.5 c 128,-1,7
 194 504 194 504 206 509.5 c 128,-1,8
 218 515 218 515 231 515 c 1,9,-1
 201 395 l 1,10,-1
 105 395 l 1,11,-1
 140 534 l 1,12,13
 155 541 155 541 182 550.5 c 128,-1,14
 209 560 209 560 246 567.5 c 128,-1,15
 283 575 283 575 326 575 c 0,16,17
 376 575 376 575 418.5 564.5 c 128,-1,18
 461 554 461 554 487 529.5 c 128,-1,19
 513 505 513 505 513 463 c 2,20,-1
 513 415 l 1,21,-1
 404 326 l 1,22,-1
 421 384 l 2,23,24
 429 410 429 410 430.5 421 c 128,-1,25
 432 432 432 432 432 441 c 0,26,27
 432 458 432 458 421 470.5 c 128,-1,28
 410 483 410 483 385 491 c 128,-1,29
 360 499 360 499 318 499 c 0,0,1
210 -11 m 256,30,31
 155 -11 155 -11 116.5 8 c 128,-1,32
 78 27 78 27 58.5 60 c 128,-1,33
 39 93 39 93 39 135 c 0,34,35
 39 180 39 180 56 216.5 c 128,-1,36
 73 253 73 253 118 280 c 128,-1,37
 163 307 163 307 245 325.5 c 128,-1,38
 327 344 327 344 456 352 c 1,39,-1
 442 283 l 1,40,41
 355 276 355 276 298.5 266 c 128,-1,42
 242 256 242 256 209 242.5 c 128,-1,43
 176 229 176 229 160 212.5 c 128,-1,44
 144 196 144 196 139.5 177 c 128,-1,45
 135 158 135 158 135 138 c 0,46,47
 135 103 135 103 154 83 c 128,-1,48
 173 63 173 63 221 63 c 0,49,50
 259 63 259 63 288.5 75.5 c 128,-1,51
 318 88 318 88 349.5 117 c 128,-1,52
 381 146 381 146 425 196 c 1,53,-1
 453 141 l 1,54,55
 407 88 407 88 372.5 54.5 c 128,-1,56
 338 21 338 21 301.5 5 c 128,-1,57
 265 -11 265 -11 210 -11 c 256,30,31
609 -12 m 0,58,59
 541 -12 541 -12 491.5 13.5 c 128,-1,60
 442 39 442 39 415.5 88 c 128,-1,61
 389 137 389 137 389 207 c 0,62,63
 389 244 389 244 394 277.5 c 128,-1,64
 399 311 399 311 409.5 340 c 128,-1,65
 420 369 420 369 436.5 393.5 c 128,-1,66
 453 418 453 418 476 434 c 1,67,68
 487 463 487 463 508.5 488.5 c 128,-1,69
 530 514 530 514 558.5 533.5 c 128,-1,70
 587 553 587 553 621 564 c 128,-1,71
 655 575 655 575 693 575 c 0,72,73
 756 575 756 575 795.5 556 c 128,-1,74
 835 537 835 537 853.5 505 c 128,-1,75
 872 473 872 473 872 435 c 0,76,77
 872 382 872 382 845 342.5 c 128,-1,78
 818 303 818 303 766 276 c 128,-1,79
 714 249 714 249 638.5 234.5 c 128,-1,80
 563 220 563 220 465 216 c 1,81,-1
 470 284 l 1,82,83
 556 288 556 288 615 299 c 128,-1,84
 674 310 674 310 710.5 328 c 128,-1,85
 747 346 747 346 763.5 370 c 128,-1,86
 780 394 780 394 780 423 c 0,87,88
 780 462 780 462 755 480 c 128,-1,89
 730 498 730 498 687 498 c 0,90,91
 638 498 638 498 600 473.5 c 128,-1,92
 562 449 562 449 536.5 407.5 c 128,-1,93
 511 366 511 366 497.5 312.5 c 128,-1,94
 484 259 484 259 484 201 c 0,95,96
 484 154 484 154 497.5 124 c 128,-1,97
 511 94 511 94 540 79.5 c 128,-1,98
 569 65 569 65 615 65 c 0,99,100
 654 65 654 65 684.5 77.5 c 128,-1,101
 715 90 715 90 738.5 114 c 128,-1,102
 762 138 762 138 779 171 c 1,103,-1
 845 136 l 1,104,105
 821 89 821 89 784.5 55.5 c 128,-1,106
 748 22 748 22 703 5 c 128,-1,107
 658 -12 658 -12 609 -12 c 0,58,59
EndSplineSet
EndChar

StartChar: eth
Encoding: 240 240 121
Width: 623
GlyphClass: 1
Flags: W
LayerCount: 2
Fore
SplineSet
190 641 m 1,0,-1
 620 755 l 1,1,-1
 632 690 l 1,2,-1
 202 577 l 1,3,-1
 190 641 l 1,0,-1
507 409 m 1,4,-1
 504 339 l 1,5,6
 491 375 491 375 472 405.5 c 128,-1,7
 453 436 453 436 419 454.5 c 128,-1,8
 385 473 385 473 325 473 c 0,9,10
 288 473 288 473 260.5 462.5 c 128,-1,11
 233 452 233 452 212.5 430 c 128,-1,12
 192 408 192 408 178 374.5 c 128,-1,13
 164 341 164 341 154 295 c 0,14,15
 150 274 150 274 147.5 255.5 c 128,-1,16
 145 237 145 237 144 221.5 c 128,-1,17
 143 206 143 206 143 191 c 0,18,19
 143 156 143 156 151.5 131.5 c 128,-1,20
 160 107 160 107 176.5 91 c 128,-1,21
 193 75 193 75 218.5 68 c 128,-1,22
 244 61 244 61 278 61 c 0,23,24
 316 61 316 61 343.5 73.5 c 128,-1,25
 371 86 371 86 392 110 c 128,-1,26
 413 134 413 134 428.5 170.5 c 128,-1,27
 444 207 444 207 457 255 c 0,28,29
 467 293 467 293 474 332.5 c 128,-1,30
 481 372 481 372 484.5 410 c 128,-1,31
 488 448 488 448 488 480 c 0,32,33
 488 535 488 535 474.5 575 c 128,-1,34
 461 615 461 615 432.5 646 c 128,-1,35
 404 677 404 677 360.5 703 c 128,-1,36
 317 729 317 729 258 755 c 1,37,-1
 301 812 l 1,38,39
 371 783 371 783 424.5 749 c 128,-1,40
 478 715 478 715 514 672 c 128,-1,41
 550 629 550 629 568 574.5 c 128,-1,42
 586 520 586 520 586 451 c 0,43,44
 586 391 586 391 575 326 c 128,-1,45
 564 261 564 261 540 201 c 128,-1,46
 516 141 516 141 479 92.5 c 128,-1,47
 442 44 442 44 390.5 15.5 c 128,-1,48
 339 -13 339 -13 272 -13 c 0,49,50
 192 -13 192 -13 141.5 15.5 c 128,-1,51
 91 44 91 44 67.5 93.5 c 128,-1,52
 44 143 44 143 44 206 c 0,53,54
 44 277 44 277 64.5 338.5 c 128,-1,55
 85 400 85 400 123 446.5 c 128,-1,56
 161 493 161 493 213 519.5 c 128,-1,57
 265 546 265 546 328 546 c 0,58,59
 371 546 371 546 401.5 535 c 128,-1,60
 432 524 432 524 452 505 c 128,-1,61
 472 486 472 486 485 461 c 128,-1,62
 498 436 498 436 507 409 c 1,4,-1
EndSplineSet
EndChar

StartChar: oslash
Encoding: 248 248 122
Width: 638
GlyphClass: 2
Flags: W
AnchorPoint: "Anchor-0" 319 551 basechar 0
LayerCount: 2
Fore
SplineSet
285 60 m 0,0,1
 320 60 320 60 348.5 71 c 128,-1,2
 377 82 377 82 399 102 c 128,-1,3
 421 122 421 122 437.5 149 c 128,-1,4
 454 176 454 176 465 208 c 0,5,6
 474 233 474 233 480 259 c 128,-1,7
 486 285 486 285 489 313.5 c 128,-1,8
 492 342 492 342 492 374 c 0,9,10
 492 413 492 413 480 441.5 c 128,-1,11
 468 470 468 470 439 486 c 128,-1,12
 410 502 410 502 359 502 c 0,13,14
 325 502 325 502 296.5 491.5 c 128,-1,15
 268 481 268 481 245.5 461 c 128,-1,16
 223 441 223 441 206.5 414.5 c 128,-1,17
 190 388 190 388 179 356 c 0,18,19
 171 331 171 331 164.5 304.5 c 128,-1,20
 158 278 158 278 155 249 c 128,-1,21
 152 220 152 220 152 188 c 0,22,23
 152 150 152 150 164 121 c 128,-1,24
 176 92 176 92 205 76 c 128,-1,25
 234 60 234 60 285 60 c 0,0,1
278 -13 m 0,26,27
 208 -13 208 -13 158 15 c 128,-1,28
 108 43 108 43 81.5 92 c 128,-1,29
 55 141 55 141 55 203 c 0,30,31
 55 260 55 260 68.5 313.5 c 128,-1,32
 82 367 82 367 108 414.5 c 128,-1,33
 134 462 134 462 171.5 498 c 128,-1,34
 209 534 209 534 257.5 554.5 c 128,-1,35
 306 575 306 575 366 575 c 0,36,37
 436 575 436 575 486 547 c 128,-1,38
 536 519 536 519 562 470 c 128,-1,39
 588 421 588 421 588 359 c 0,40,41
 588 302 588 302 575 248.5 c 128,-1,42
 562 195 562 195 536 147.5 c 128,-1,43
 510 100 510 100 472 64 c 128,-1,44
 434 28 434 28 385.5 7.5 c 128,-1,45
 337 -13 337 -13 278 -13 c 0,26,27
-40 -12 m 1,46,-1
 586 574 l 1,47,-1
 675 574 l 1,48,-1
 49 -12 l 1,49,-1
 -40 -12 l 1,46,-1
EndSplineSet
EndChar

StartChar: thorn
Encoding: 254 254 123
Width: 666
GlyphClass: 1
Flags: W
LayerCount: 2
Fore
SplineSet
336 67 m 0,0,1
 375 67 375 67 405 87.5 c 128,-1,2
 435 108 435 108 457 142.5 c 128,-1,3
 479 177 479 177 493.5 218.5 c 128,-1,4
 508 260 508 260 515 304 c 128,-1,5
 522 348 522 348 522 386 c 0,6,7
 522 418 522 418 514 442.5 c 128,-1,8
 506 467 506 467 487 481.5 c 128,-1,9
 468 496 468 496 433 496 c 0,10,11
 390 496 390 496 355.5 476 c 128,-1,12
 321 456 321 456 288 417.5 c 128,-1,13
 255 379 255 379 214 321 c 1,14,-1
 203 366 l 1,15,16
 237 426 237 426 277 473 c 128,-1,17
 317 520 317 520 363.5 547.5 c 128,-1,18
 410 575 410 575 462 575 c 0,19,20
 520 575 520 575 555.5 550 c 128,-1,21
 591 525 591 525 606.5 482 c 128,-1,22
 622 439 622 439 622 386 c 0,23,24
 622 336 622 336 610.5 281 c 128,-1,25
 599 226 599 226 576 174 c 128,-1,26
 553 122 553 122 519 79.5 c 128,-1,27
 485 37 485 37 440 12 c 128,-1,28
 395 -13 395 -13 339 -13 c 0,29,30
 286 -13 286 -13 248 12.5 c 128,-1,31
 210 38 210 38 187.5 80.5 c 128,-1,32
 165 123 165 123 154 173 c 1,33,-1
 178 207 l 1,34,35
 192 162 192 162 211.5 131 c 128,-1,36
 231 100 231 100 261.5 83.5 c 128,-1,37
 292 67 292 67 336 67 c 0,0,1
187 -223 m 1,38,-1
 -85 -223 l 1,39,-1
 -71 -159 l 1,40,-1
 -67 -159 l 2,41,42
 -28 -159 -28 -159 -8 -144 c 128,-1,43
 12 -129 12 -129 23 -83 c 2,44,-1
 212 661 l 2,45,46
 214 671 214 671 206 679 c 128,-1,47
 198 687 198 687 181 694 c 128,-1,48
 164 701 164 701 139 706 c 2,49,-1
 130 708 l 1,50,-1
 146 780 l 1,51,-1
 335 780 l 1,52,-1
 102 -149 l 2,53,54
 101 -152 101 -152 108.5 -153.5 c 128,-1,55
 116 -155 116 -155 128 -156.5 c 128,-1,56
 140 -158 140 -158 153 -158.5 c 128,-1,57
 166 -159 166 -159 177 -159 c 2,58,-1
 201 -159 l 1,59,-1
 187 -223 l 1,38,-1
EndSplineSet
EndChar

StartChar: dotlessi
Encoding: 679 305 124
Width: 332
GlyphClass: 2
Flags: W
AnchorPoint: "Anchor-0" 176 530 basechar 0
LayerCount: 2
Fore
SplineSet
163 -3 m 0,0,1
 137 -3 137 -3 116.5 4.5 c 128,-1,2
 96 12 96 12 85 27.5 c 128,-1,3
 74 43 74 43 74 65 c 0,4,5
 74 79 74 79 76.5 95 c 128,-1,6
 79 111 79 111 85 138 c 128,-1,7
 91 165 91 165 102 211 c 2,8,-1
 149 437 l 2,9,10
 152 449 152 449 142.5 457.5 c 128,-1,11
 133 466 133 466 114.5 472.5 c 128,-1,12
 96 479 96 479 70 483 c 2,13,-1
 58 485 l 1,14,-1
 70 537 l 1,15,-1
 258 537 l 1,16,-1
 188 205 l 2,17,18
 180 165 180 165 174 139.5 c 128,-1,19
 168 114 168 114 166 99.5 c 128,-1,20
 164 85 164 85 164 78 c 0,21,22
 164 68 164 68 169.5 63 c 128,-1,23
 175 58 175 58 188 58 c 0,24,25
 204 58 204 58 220 60.5 c 128,-1,26
 236 63 236 63 251 65.5 c 128,-1,27
 266 68 266 68 277 69 c 1,28,-1
 267 11 l 1,29,30
 252 8 252 8 235.5 4.5 c 128,-1,31
 219 1 219 1 201 -1 c 128,-1,32
 183 -3 183 -3 163 -3 c 0,0,1
EndSplineSet
EndChar

StartChar: oe
Encoding: 156 339 125
Width: 986
GlyphClass: 1
Flags: W
LayerCount: 2
Fore
SplineSet
688 -12 m 0,0,1
 637 -12 637 -12 597.5 4 c 128,-1,2
 558 20 558 20 531.5 49.5 c 128,-1,3
 505 79 505 79 491.5 119.5 c 128,-1,4
 478 160 478 160 478 208 c 0,5,6
 478 266 478 266 492.5 320 c 128,-1,7
 507 374 507 374 533.5 420.5 c 128,-1,8
 560 467 560 467 597 501.5 c 128,-1,9
 634 536 634 536 679 555.5 c 128,-1,10
 724 575 724 575 776 575 c 0,11,12
 837 575 837 575 875.5 557 c 128,-1,13
 914 539 914 539 932.5 507.5 c 128,-1,14
 951 476 951 476 951 437 c 0,15,16
 951 386 951 386 925.5 346 c 128,-1,17
 900 306 900 306 849 278 c 128,-1,18
 798 250 798 250 722.5 234.5 c 128,-1,19
 647 219 647 219 546 218 c 1,20,-1
 551 286 l 1,21,22
 639 288 639 288 698.5 299.5 c 128,-1,23
 758 311 758 311 793.5 330 c 128,-1,24
 829 349 829 349 844 374 c 128,-1,25
 859 399 859 399 859 426 c 0,26,27
 859 452 859 452 848 468 c 128,-1,28
 837 484 837 484 816.5 491 c 128,-1,29
 796 498 796 498 768 498 c 0,30,31
 718 498 718 498 679.5 473.5 c 128,-1,32
 641 449 641 449 615 407.5 c 128,-1,33
 589 366 589 366 575.5 313 c 128,-1,34
 562 260 562 260 562 201 c 0,35,36
 562 154 562 154 576 123.5 c 128,-1,37
 590 93 590 93 619 79 c 128,-1,38
 648 65 648 65 695 65 c 0,39,40
 732 65 732 65 762.5 77.5 c 128,-1,41
 793 90 793 90 816.5 114 c 128,-1,42
 840 138 840 138 857 171 c 1,43,-1
 923 136 l 1,44,45
 900 89 900 89 863 55.5 c 128,-1,46
 826 22 826 22 781.5 5 c 128,-1,47
 737 -12 737 -12 688 -12 c 0,0,1
351 575 m 0,48,49
 406 575 406 575 446.5 558.5 c 128,-1,50
 487 542 487 542 513.5 512.5 c 128,-1,51
 540 483 540 483 553.5 442.5 c 128,-1,52
 567 402 567 402 567 355 c 0,53,54
 567 302 567 302 555 249.5 c 128,-1,55
 543 197 543 197 519 150 c 128,-1,56
 495 103 495 103 459 66 c 128,-1,57
 423 29 423 29 376 8 c 128,-1,58
 329 -13 329 -13 269 -13 c 0,59,60
 198 -13 198 -13 147.5 13 c 128,-1,61
 97 39 97 39 70.5 87 c 128,-1,62
 44 135 44 135 44 200 c 0,63,64
 44 256 44 256 57 310.5 c 128,-1,65
 70 365 70 365 96 412.5 c 128,-1,66
 122 460 122 460 159 496.5 c 128,-1,67
 196 533 196 533 244 554 c 128,-1,68
 292 575 292 575 351 575 c 0,48,49
155 264 m 0,69,70
 151 230 151 230 156 199.5 c 128,-1,71
 161 169 161 169 176.5 147 c 128,-1,72
 192 125 192 125 221 113 c 1,73,74
 250 96 250 96 275.5 95 c 128,-1,75
 301 94 301 94 326 107.5 c 128,-1,76
 351 121 351 121 376 146 c 1,77,78
 393 157 393 157 406.5 172.5 c 128,-1,79
 420 188 420 188 430 207.5 c 128,-1,80
 440 227 440 227 447.5 250 c 128,-1,81
 455 273 455 273 460 299 c 0,82,83
 463 334 463 334 458 363.5 c 128,-1,84
 453 393 453 393 437.5 415 c 128,-1,85
 422 437 422 437 392 449 c 1,86,87
 364 467 364 467 338.5 467.5 c 128,-1,88
 313 468 313 468 289 454.5 c 128,-1,89
 265 441 265 441 238 416 c 0,90,91
 221 405 221 405 207.5 389.5 c 128,-1,92
 194 374 194 374 184 355 c 128,-1,93
 174 336 174 336 167 313 c 128,-1,94
 160 290 160 290 155 264 c 0,69,70
EndSplineSet
EndChar

StartChar: mu
Encoding: 693 956 126
Width: 661
GlyphClass: 1
Flags: W
LayerCount: 2
Fore
SplineSet
221 -10 m 0,0,1
 195 -10 195 -10 174 -3 c 128,-1,2
 153 4 153 4 138.5 19 c 128,-1,3
 124 34 124 34 116.5 56 c 128,-1,4
 109 78 109 78 109 108 c 1,5,-1
 121 156 l 1,6,7
 113 102 113 102 110 57.5 c 128,-1,8
 107 13 107 13 106.5 -26 c 128,-1,9
 106 -65 106 -65 105 -101 c 128,-1,10
 104 -137 104 -137 100.5 -173.5 c 128,-1,11
 97 -210 97 -210 89 -250 c 1,12,-1
 -5 -250 l 1,13,-1
 163 537 l 1,14,-1
 252 537 l 1,15,-1
 178 192 l 2,16,17
 174 170 174 170 171.5 153.5 c 128,-1,18
 169 137 169 137 169 123 c 0,19,20
 169 91 169 91 188 73 c 128,-1,21
 207 55 207 55 244 55 c 0,22,23
 268 55 268 55 291 64.5 c 128,-1,24
 314 74 314 74 337 92.5 c 128,-1,25
 360 111 360 111 385 138.5 c 128,-1,26
 410 166 410 166 437 202 c 1,27,-1
 445 172 l 1,28,29
 418 131 418 131 392 97.5 c 128,-1,30
 366 64 366 64 339 40 c 128,-1,31
 312 16 312 16 283.5 3 c 128,-1,32
 255 -10 255 -10 221 -10 c 0,0,1
498 -10 m 0,33,34
 469 -10 469 -10 448 -1 c 128,-1,35
 427 8 427 8 415.5 27 c 128,-1,36
 404 46 404 46 404 74 c 0,37,38
 404 84 404 84 405 94 c 128,-1,39
 406 104 406 104 408 113 c 128,-1,40
 410 122 410 122 411 129 c 1,41,-1
 406 135 l 1,42,-1
 493 537 l 1,43,-1
 582 537 l 1,44,-1
 491 115 l 2,45,46
 490 107 490 107 488.5 100 c 128,-1,47
 487 93 487 93 486 87.5 c 128,-1,48
 485 82 485 82 485 77 c 0,49,50
 485 62 485 62 493 55.5 c 128,-1,51
 501 49 501 49 515 49 c 0,52,53
 530 49 530 49 541 56 c 128,-1,54
 552 63 552 63 562 75 c 128,-1,55
 572 87 572 87 582 101 c 1,56,-1
 620 71 l 1,57,58
 605 46 605 46 586 27.5 c 128,-1,59
 567 9 567 9 545.5 -0.5 c 128,-1,60
 524 -10 524 -10 498 -10 c 0,33,34
EndSplineSet
EndChar

StartChar: ordfeminine
Encoding: 170 170 127
Width: 630
GlyphClass: 1
Flags: W
LayerCount: 2
Fore
SplineSet
423 319 m 0,0,1
 400 319 400 319 388.5 328.5 c 128,-1,2
 377 338 377 338 377 357 c 0,3,4
 377 363 377 363 378.5 387.5 c 128,-1,5
 380 412 380 412 383 442 c 1,6,-1
 381 450 l 1,7,-1
 418 599 l 1,8,-1
 418 604 l 1,9,-1
 469 723 l 1,10,-1
 525 723 l 1,11,-1
 469 496 l 2,12,13
 459 455 459 455 453 432.5 c 128,-1,14
 447 410 447 410 445 401 c 128,-1,15
 443 392 443 392 443 389 c 0,16,17
 443 385 443 385 446 382 c 128,-1,18
 449 379 449 379 455 379 c 0,19,20
 472 379 472 379 487.5 379 c 128,-1,21
 503 379 503 379 520 379 c 1,22,-1
 512 319 l 1,23,24
 498 319 498 319 483 319 c 128,-1,25
 468 319 468 319 453 319 c 128,-1,26
 438 319 438 319 423 319 c 0,0,1
230 310 m 0,27,28
 189 310 189 310 164.5 328 c 128,-1,29
 140 346 140 346 129.5 377 c 128,-1,30
 119 408 119 408 119 445 c 0,31,32
 119 490 119 490 133 539.5 c 128,-1,33
 147 589 147 589 174 632.5 c 128,-1,34
 201 676 201 676 239 703 c 128,-1,35
 277 730 277 730 325 730 c 0,36,37
 365 730 365 730 389 710.5 c 128,-1,38
 413 691 413 691 424.5 658.5 c 128,-1,39
 436 626 436 626 438 586 c 1,40,-1
 424 553 l 1,41,42
 413 588 413 588 402.5 613.5 c 128,-1,43
 392 639 392 639 376 653.5 c 128,-1,44
 360 668 360 668 332 668 c 0,45,46
 300 668 300 668 275.5 647.5 c 128,-1,47
 251 627 251 627 234 593.5 c 128,-1,48
 217 560 217 560 208 521.5 c 128,-1,49
 199 483 199 483 199 448 c 0,50,51
 199 425 199 425 203 407 c 128,-1,52
 207 389 207 389 219 379 c 128,-1,53
 231 369 231 369 254 369 c 0,54,55
 283 369 283 369 304.5 381.5 c 128,-1,56
 326 394 326 394 347.5 420.5 c 128,-1,57
 369 447 369 447 394 487 c 1,58,-1
 411 446 l 1,59,60
 389 407 389 407 362 376.5 c 128,-1,61
 335 346 335 346 302 328 c 128,-1,62
 269 310 269 310 230 310 c 0,27,28
EndSplineSet
EndChar

StartChar: ordmasculine
Encoding: 186 186 128
Width: 535
GlyphClass: 1
Flags: W
LayerCount: 2
Fore
SplineSet
268 313 m 0,0,1
 215 313 215 313 177.5 332.5 c 128,-1,2
 140 352 140 352 120.5 387.5 c 128,-1,3
 101 423 101 423 101 470 c 0,4,5
 101 520 101 520 115 566 c 128,-1,6
 129 612 129 612 157.5 649.5 c 128,-1,7
 186 687 186 687 228.5 708.5 c 128,-1,8
 271 730 271 730 328 730 c 0,9,10
 381 730 381 730 418 710.5 c 128,-1,11
 455 691 455 691 475.5 655.5 c 128,-1,12
 496 620 496 620 496 573 c 0,13,14
 496 524 496 524 481 477.5 c 128,-1,15
 466 431 466 431 437.5 393.5 c 128,-1,16
 409 356 409 356 366.5 334.5 c 128,-1,17
 324 313 324 313 268 313 c 0,0,1
321 667 m 0,18,19
 298 667 298 667 280 660.5 c 128,-1,20
 262 654 262 654 248 642 c 128,-1,21
 234 630 234 630 224 613 c 128,-1,22
 214 596 214 596 205 575 c 0,23,24
 200 558 200 558 195.5 538.5 c 128,-1,25
 191 519 191 519 189 500 c 128,-1,26
 187 481 187 481 187 462 c 0,27,28
 187 434 187 434 197 415 c 128,-1,29
 207 396 207 396 227 386 c 128,-1,30
 247 376 247 376 276 376 c 0,31,32
 298 376 298 376 316 382 c 128,-1,33
 334 388 334 388 348 400 c 128,-1,34
 362 412 362 412 372.5 428.5 c 128,-1,35
 383 445 383 445 391 467 c 0,36,37
 398 484 398 484 401.5 502.5 c 128,-1,38
 405 521 405 521 407 540.5 c 128,-1,39
 409 560 409 560 409 579 c 0,40,41
 409 608 409 608 399 627.5 c 128,-1,42
 389 647 389 647 369.5 657 c 128,-1,43
 350 667 350 667 321 667 c 0,18,19
EndSplineSet
EndChar

StartChar: arrowright
Encoding: 785 34196 129
Width: 790
GlyphClass: 1
Flags: W
LayerCount: 2
Fore
SplineSet
341 587 m 1,0,-1
 730 367 l 1,1,-1
 730 340 l 1,2,-1
 341 119 l 1,3,-1
 323 144 l 1,4,-1
 495 319 l 1,5,-1
 60 319 l 1,6,-1
 60 387 l 1,7,-1
 495 387 l 1,8,-1
 323 562 l 1,9,-1
 341 587 l 1,0,-1
EndSplineSet
EndChar

StartChar: zero
Encoding: 48 48 130
Width: 609
GlyphClass: 1
Flags: W
LayerCount: 2
Fore
SplineSet
371 735 m 0,0,1
 411 735 411 735 443 724.5 c 128,-1,2
 475 714 475 714 499.5 694 c 128,-1,3
 524 674 524 674 540.5 645.5 c 128,-1,4
 557 617 557 617 565.5 580.5 c 128,-1,5
 574 544 574 544 574 501 c 0,6,7
 574 443 574 443 564.5 382.5 c 128,-1,8
 555 322 555 322 536 265 c 128,-1,9
 517 208 517 208 489.5 158 c 128,-1,10
 462 108 462 108 425 70 c 128,-1,11
 388 32 388 32 343 10.5 c 128,-1,12
 298 -11 298 -11 244 -11 c 0,13,14
 204 -11 204 -11 172 -1 c 128,-1,15
 140 9 140 9 115.5 29 c 128,-1,16
 91 49 91 49 74.5 77 c 128,-1,17
 58 105 58 105 49.5 141 c 128,-1,18
 41 177 41 177 41 221 c 0,19,20
 41 279 41 279 50.5 339 c 128,-1,21
 60 399 60 399 79 457 c 128,-1,22
 98 515 98 515 125.5 565 c 128,-1,23
 153 615 153 615 190 653.5 c 128,-1,24
 227 692 227 692 272 713.5 c 128,-1,25
 317 735 317 735 371 735 c 0,0,1
449 328 m 0,26,27
 457 356 457 356 462.5 383.5 c 128,-1,28
 468 411 468 411 472 436 c 128,-1,29
 476 461 476 461 478 482.5 c 128,-1,30
 480 504 480 504 480 521 c 0,31,32
 480 559 480 559 473.5 585.5 c 128,-1,33
 467 612 467 612 453 629.5 c 128,-1,34
 439 647 439 647 417.5 655 c 128,-1,35
 396 663 396 663 364 663 c 0,36,37
 331 663 331 663 304.5 649 c 128,-1,38
 278 635 278 635 257 609.5 c 128,-1,39
 236 584 236 584 219 550.5 c 128,-1,40
 202 517 202 517 189.5 477.5 c 128,-1,41
 177 438 177 438 165 396 c 0,42,43
 159 368 159 368 153 341 c 128,-1,44
 147 314 147 314 143 288.5 c 128,-1,45
 139 263 139 263 137 241.5 c 128,-1,46
 135 220 135 220 135 203 c 0,47,48
 135 166 135 166 141.5 139 c 128,-1,49
 148 112 148 112 162 94.5 c 128,-1,50
 176 77 176 77 198 69 c 128,-1,51
 220 61 220 61 251 61 c 0,52,53
 284 61 284 61 310.5 75 c 128,-1,54
 337 89 337 89 358 114.5 c 128,-1,55
 379 140 379 140 396 173.5 c 128,-1,56
 413 207 413 207 426 247 c 128,-1,57
 439 287 439 287 449 328 c 0,26,27
EndSplineSet
Substitution2: "'zero' Slashed Zero in Latin lookup 63 subtable" zero.slash
Substitution2: "'pnum' Proportional Numbers in Latin lookup 55 subtable" zero.midprop
Substitution2: "'lnum' Lining Figures in Latin lookup 54 subtable" zero.lintab
Substitution2: "'onum' Oldstyle Figures in Latin lookup 53 subtable" zero.oldtab
Substitution2: "'sinf' Scientific Inferiors in Latin lookup 52 subtable" zero.sub
Substitution2: "'subs' Subscript in Latin lookup 51 subtable" zero.sub
Substitution2: "'sups' Superscript in Latin lookup 50 subtable" zero.sup
Substitution2: "'numr' Numerators in Latin lookup 49 subtable" zero.num
Substitution2: "'dnom' Denominators in Latin lookup 48 subtable" zero.den
Substitution2: "Single Substitution lookup 35 subtable" zero.den
Substitution2: "Single Substitution lookup 33 subtable" zero.num
Substitution2: "Single Substitution lookup 31 subtable" zero.num
Substitution2: "Single Substitution lookup 29 subtable" zero.num
Substitution2: "Single Substitution lookup 27 subtable" zero.num
Substitution2: "Single Substitution lookup 25 subtable" zero.num
Substitution2: "Single Substitution lookup 23 subtable" zero.num
Substitution2: "Single Substitution lookup 21 subtable" zero.num
Substitution2: "Single Substitution lookup 19 subtable" zero.num
Substitution2: "Single Substitution lookup 17 subtable" zero.num
Substitution2: "Single Substitution lookup 15 subtable" zero.num
EndChar

StartChar: one
Encoding: 49 49 131
Width: 560
GlyphClass: 1
Flags: W
LayerCount: 2
Fore
SplineSet
294 104 m 2,0,1
 291 91 291 91 302.5 83 c 128,-1,2
 314 75 314 75 338.5 72 c 128,-1,3
 363 69 363 69 398 69 c 2,4,-1
 445 69 l 1,5,-1
 429 0 l 1,6,-1
 12 0 l 1,7,-1
 28 69 l 1,8,-1
 85 69 l 2,9,10
 118 69 118 69 141.5 72 c 128,-1,11
 165 75 165 75 179.5 83 c 128,-1,12
 194 91 194 91 197 105 c 2,13,-1
 332 641 l 1,14,-1
 354 652 l 1,15,16
 341 625 341 625 319.5 604.5 c 128,-1,17
 298 584 298 584 270.5 571 c 128,-1,18
 243 558 243 558 208.5 551.5 c 128,-1,19
 174 545 174 545 133 545 c 1,20,-1
 152 627 l 1,21,22
 198 627 198 627 233 631.5 c 128,-1,23
 268 636 268 636 294.5 645.5 c 128,-1,24
 321 655 321 655 342.5 671 c 128,-1,25
 364 687 364 687 383 710 c 1,26,-1
 447 710 l 1,27,-1
 294 104 l 2,0,1
EndSplineSet
Substitution2: "'pnum' Proportional Numbers in Latin lookup 55 subtable" one.midprop
Substitution2: "'lnum' Lining Figures in Latin lookup 54 subtable" one.lintab
Substitution2: "'onum' Oldstyle Figures in Latin lookup 53 subtable" one.oldtab
Substitution2: "'sinf' Scientific Inferiors in Latin lookup 52 subtable" one.sub
Substitution2: "'subs' Subscript in Latin lookup 51 subtable" one.sub
Substitution2: "'sups' Superscript in Latin lookup 50 subtable" one.sup
Substitution2: "'numr' Numerators in Latin lookup 49 subtable" one.num
Substitution2: "'dnom' Denominators in Latin lookup 48 subtable" one.den
Substitution2: "Single Substitution lookup 35 subtable" one.den
Substitution2: "Single Substitution lookup 33 subtable" one.num
Substitution2: "Single Substitution lookup 31 subtable" one.num
Substitution2: "Single Substitution lookup 29 subtable" one.num
Substitution2: "Single Substitution lookup 27 subtable" one.num
Substitution2: "Single Substitution lookup 25 subtable" one.num
Substitution2: "Single Substitution lookup 23 subtable" one.num
Substitution2: "Single Substitution lookup 21 subtable" one.num
Substitution2: "Single Substitution lookup 19 subtable" one.num
Substitution2: "Single Substitution lookup 17 subtable" one.num
Substitution2: "Single Substitution lookup 15 subtable" one.num
EndChar

StartChar: two
Encoding: 50 50 132
Width: 560
GlyphClass: 1
Flags: W
LayerCount: 2
Fore
SplineSet
425 569 m 0,0,1
 425 608 425 608 411 628 c 128,-1,2
 397 648 397 648 371 655 c 128,-1,3
 345 662 345 662 309 662 c 0,4,5
 278 662 278 662 250 656 c 128,-1,6
 222 650 222 650 198.5 639.5 c 128,-1,7
 175 629 175 629 157 613 c 1,8,9
 160 623 160 623 163.5 632.5 c 128,-1,10
 167 642 167 642 172.5 649 c 128,-1,11
 178 656 178 656 186.5 660 c 128,-1,12
 195 664 195 664 210 664 c 1,13,-1
 176 530 l 1,14,-1
 79 530 l 1,15,-1
 113 665 l 1,16,17
 130 679 130 679 160.5 695.5 c 128,-1,18
 191 712 191 712 231 723.5 c 128,-1,19
 271 735 271 735 316 735 c 0,20,21
 366 735 366 735 404.5 724.5 c 128,-1,22
 443 714 443 714 469.5 693.5 c 128,-1,23
 496 673 496 673 510 643 c 128,-1,24
 524 613 524 613 524 574 c 0,25,26
 524 517 524 517 497.5 463 c 128,-1,27
 471 409 471 409 423 357.5 c 128,-1,28
 375 306 375 306 311.5 255 c 128,-1,29
 248 204 248 204 174 151.5 c 128,-1,30
 100 99 100 99 20 43 c 1,31,-1
 14 79 l 1,32,-1
 261 79 l 2,33,34
 300 79 300 79 322.5 82 c 128,-1,35
 345 85 345 85 357 94 c 128,-1,36
 369 103 369 103 375 120 c 2,37,-1
 409 216 l 1,38,-1
 484 216 l 1,39,-1
 434 0 l 1,40,-1
 -41 0 l 1,41,-1
 -17 97 l 1,42,43
 74 162 74 162 145.5 214.5 c 128,-1,44
 217 267 217 267 269.5 311.5 c 128,-1,45
 322 356 322 356 356.5 396.5 c 128,-1,46
 391 437 391 437 408 479 c 128,-1,47
 425 521 425 521 425 569 c 0,0,1
EndSplineSet
Substitution2: "'pnum' Proportional Numbers in Latin lookup 55 subtable" two.midprop
Substitution2: "'lnum' Lining Figures in Latin lookup 54 subtable" two.lintab
Substitution2: "'onum' Oldstyle Figures in Latin lookup 53 subtable" two.oldtab
Substitution2: "'sinf' Scientific Inferiors in Latin lookup 52 subtable" two.sub
Substitution2: "'subs' Subscript in Latin lookup 51 subtable" two.sub
Substitution2: "'sups' Superscript in Latin lookup 50 subtable" two.sup
Substitution2: "'numr' Numerators in Latin lookup 49 subtable" two.num
Substitution2: "'dnom' Denominators in Latin lookup 48 subtable" two.den
Substitution2: "Single Substitution lookup 35 subtable" two.den
Substitution2: "Single Substitution lookup 33 subtable" two.num
Substitution2: "Single Substitution lookup 31 subtable" two.num
Substitution2: "Single Substitution lookup 29 subtable" two.num
Substitution2: "Single Substitution lookup 27 subtable" two.num
Substitution2: "Single Substitution lookup 25 subtable" two.num
Substitution2: "Single Substitution lookup 23 subtable" two.num
Substitution2: "Single Substitution lookup 21 subtable" two.num
Substitution2: "Single Substitution lookup 19 subtable" two.num
Substitution2: "Single Substitution lookup 17 subtable" two.num
Substitution2: "Single Substitution lookup 15 subtable" two.num
EndChar

StartChar: three
Encoding: 51 51 133
Width: 560
GlyphClass: 1
Flags: W
LayerCount: 2
Fore
SplineSet
229 -11 m 0,0,1
 155 -11 155 -11 106 15 c 128,-1,2
 57 41 57 41 28 85.5 c 128,-1,3
 -1 130 -1 130 -13 185 c 1,4,-1
 58 217 l 1,5,6
 77 169 77 169 96.5 134.5 c 128,-1,7
 116 100 116 100 146.5 81.5 c 128,-1,8
 177 63 177 63 228 63 c 0,9,10
 277 63 277 63 309.5 82.5 c 128,-1,11
 342 102 342 102 358.5 135 c 128,-1,12
 375 168 375 168 375 210 c 0,13,14
 375 250 375 250 360.5 278 c 128,-1,15
 346 306 346 306 317 321 c 128,-1,16
 288 336 288 336 242 336 c 2,17,-1
 166 336 l 1,18,-1
 183 411 l 1,19,-1
 265 411 l 2,20,21
 322 411 322 411 357.5 433 c 128,-1,22
 393 455 393 455 409 489.5 c 128,-1,23
 425 524 425 524 425 564 c 0,24,25
 425 599 425 599 413.5 620.5 c 128,-1,26
 402 642 402 642 376.5 652 c 128,-1,27
 351 662 351 662 310 662 c 0,28,29
 277 662 277 662 253 656.5 c 128,-1,30
 229 651 229 651 211 642 c 128,-1,31
 193 633 193 633 180 622 c 1,32,33
 182 632 182 632 187.5 643.5 c 128,-1,34
 193 655 193 655 201.5 664.5 c 128,-1,35
 210 674 210 674 220 680 c 128,-1,36
 230 686 230 686 241 686 c 1,37,-1
 207 534 l 1,38,-1
 114 534 l 1,39,-1
 147 685 l 1,40,41
 163 694 163 694 188.5 706 c 128,-1,42
 214 718 214 718 248 726.5 c 128,-1,43
 282 735 282 735 323 735 c 0,44,45
 387 735 387 735 431.5 716 c 128,-1,46
 476 697 476 697 499 661 c 128,-1,47
 522 625 522 625 522 572 c 0,48,49
 522 513 522 513 491.5 467.5 c 128,-1,50
 461 422 461 422 404.5 397 c 128,-1,51
 348 372 348 372 270 372 c 1,52,-1
 307 387 l 1,53,-1
 301 360 l 1,54,-1
 261 374 l 1,55,56
 336 371 336 371 383 349.5 c 128,-1,57
 430 328 430 328 452.5 292 c 128,-1,58
 475 256 475 256 475 209 c 0,59,60
 475 139 475 139 443 90 c 128,-1,61
 411 41 411 41 355.5 15 c 128,-1,62
 300 -11 300 -11 229 -11 c 0,0,1
EndSplineSet
Substitution2: "'pnum' Proportional Numbers in Latin lookup 55 subtable" three.midprop
Substitution2: "'lnum' Lining Figures in Latin lookup 54 subtable" three.lintab
Substitution2: "'onum' Oldstyle Figures in Latin lookup 53 subtable" three.oldtab
Substitution2: "'sinf' Scientific Inferiors in Latin lookup 52 subtable" three.sub
Substitution2: "'subs' Subscript in Latin lookup 51 subtable" three.sub
Substitution2: "'sups' Superscript in Latin lookup 50 subtable" three.sup
Substitution2: "'numr' Numerators in Latin lookup 49 subtable" three.num
Substitution2: "'dnom' Denominators in Latin lookup 48 subtable" three.den
Substitution2: "Single Substitution lookup 35 subtable" three.den
Substitution2: "Single Substitution lookup 33 subtable" three.num
Substitution2: "Single Substitution lookup 31 subtable" three.num
Substitution2: "Single Substitution lookup 29 subtable" three.num
Substitution2: "Single Substitution lookup 27 subtable" three.num
Substitution2: "Single Substitution lookup 25 subtable" three.num
Substitution2: "Single Substitution lookup 23 subtable" three.num
Substitution2: "Single Substitution lookup 21 subtable" three.num
Substitution2: "Single Substitution lookup 19 subtable" three.num
Substitution2: "Single Substitution lookup 17 subtable" three.num
Substitution2: "Single Substitution lookup 15 subtable" three.num
EndChar

StartChar: four
Encoding: 52 52 134
Width: 560
GlyphClass: 1
Flags: W
LayerCount: 2
Fore
SplineSet
0 213 m 1,0,-1
 19 292 l 1,1,-1
 387 710 l 1,2,-1
 457 710 l 1,3,-1
 450 679 l 1,4,-1
 68 244 l 1,5,-1
 52 283 l 1,6,-1
 525 283 l 1,7,-1
 508 213 l 1,8,-1
 0 213 l 1,0,-1
374 111 m 2,9,10
 369 89 369 89 389 82 c 128,-1,11
 409 75 409 75 446 75 c 2,12,-1
 466 75 l 1,13,-1
 448 0 l 1,14,-1
 150 0 l 1,15,-1
 168 75 l 1,16,-1
 188 75 l 2,17,18
 213 75 213 75 231.5 78 c 128,-1,19
 250 81 250 81 261 89 c 128,-1,20
 272 97 272 97 275 111 c 2,21,-1
 423 698 l 1,22,-1
 433 710 l 1,23,-1
 524 710 l 1,24,-1
 374 111 l 2,9,10
EndSplineSet
Substitution2: "'pnum' Proportional Numbers in Latin lookup 55 subtable" four.midprop
Substitution2: "'lnum' Lining Figures in Latin lookup 54 subtable" four.lintab
Substitution2: "'onum' Oldstyle Figures in Latin lookup 53 subtable" four.oldtab
Substitution2: "'sinf' Scientific Inferiors in Latin lookup 52 subtable" four.sub
Substitution2: "'subs' Subscript in Latin lookup 51 subtable" four.sub
Substitution2: "'sups' Superscript in Latin lookup 50 subtable" four.sup
Substitution2: "'numr' Numerators in Latin lookup 49 subtable" four.num
Substitution2: "'dnom' Denominators in Latin lookup 48 subtable" four.den
Substitution2: "Single Substitution lookup 35 subtable" four.den
Substitution2: "Single Substitution lookup 33 subtable" four.num
Substitution2: "Single Substitution lookup 31 subtable" four.num
Substitution2: "Single Substitution lookup 29 subtable" four.num
Substitution2: "Single Substitution lookup 27 subtable" four.num
Substitution2: "Single Substitution lookup 25 subtable" four.num
Substitution2: "Single Substitution lookup 23 subtable" four.num
Substitution2: "Single Substitution lookup 21 subtable" four.num
Substitution2: "Single Substitution lookup 19 subtable" four.num
Substitution2: "Single Substitution lookup 17 subtable" four.num
Substitution2: "Single Substitution lookup 15 subtable" four.num
EndChar

StartChar: five
Encoding: 53 53 135
Width: 560
GlyphClass: 1
Flags: W
LayerCount: 2
Fore
SplineSet
225 -11 m 0,0,1
 157 -11 157 -11 112 13 c 128,-1,2
 67 37 67 37 41.5 76.5 c 128,-1,3
 16 116 16 116 4 164 c 1,4,-1
 82 195 l 1,5,6
 90 170 90 170 99.5 146 c 128,-1,7
 109 122 109 122 125 103.5 c 128,-1,8
 141 85 141 85 165.5 74.5 c 128,-1,9
 190 64 190 64 226 64 c 0,10,11
 270 64 270 64 301.5 83 c 128,-1,12
 333 102 333 102 351.5 135 c 128,-1,13
 370 168 370 168 378.5 211 c 128,-1,14
 387 254 387 254 387 302 c 0,15,16
 387 332 387 332 378 353.5 c 128,-1,17
 369 375 369 375 351 387 c 128,-1,18
 333 399 333 399 302 399 c 256,19,20
 271 399 271 399 243 390 c 128,-1,21
 215 381 215 381 191.5 363 c 128,-1,22
 168 345 168 345 146 318 c 1,23,-1
 81 318 l 1,24,-1
 179 710 l 1,25,-1
 540 710 l 1,26,-1
 495 627 l 1,27,-1
 195 627 l 1,28,-1
 248 690 l 1,29,-1
 164 354 l 1,30,-1
 129 344 l 1,31,32
 151 387 151 387 179.5 415.5 c 128,-1,33
 208 444 208 444 242.5 458.5 c 128,-1,34
 277 473 277 473 320 473 c 0,35,36
 370 473 370 473 407.5 452 c 128,-1,37
 445 431 445 431 466 391.5 c 128,-1,38
 487 352 487 352 487 297 c 0,39,40
 487 236 487 236 470.5 180.5 c 128,-1,41
 454 125 454 125 421 82 c 128,-1,42
 388 39 388 39 339 14 c 128,-1,43
 290 -11 290 -11 225 -11 c 0,0,1
EndSplineSet
Substitution2: "'pnum' Proportional Numbers in Latin lookup 55 subtable" five.midprop
Substitution2: "'lnum' Lining Figures in Latin lookup 54 subtable" five.lintab
Substitution2: "'onum' Oldstyle Figures in Latin lookup 53 subtable" five.oldtab
Substitution2: "'sinf' Scientific Inferiors in Latin lookup 52 subtable" five.sub
Substitution2: "'subs' Subscript in Latin lookup 51 subtable" five.sub
Substitution2: "'sups' Superscript in Latin lookup 50 subtable" five.sup
Substitution2: "'numr' Numerators in Latin lookup 49 subtable" five.num
Substitution2: "'dnom' Denominators in Latin lookup 48 subtable" five.den
Substitution2: "Single Substitution lookup 35 subtable" five.den
Substitution2: "Single Substitution lookup 33 subtable" five.num
Substitution2: "Single Substitution lookup 31 subtable" five.num
Substitution2: "Single Substitution lookup 29 subtable" five.num
Substitution2: "Single Substitution lookup 27 subtable" five.num
Substitution2: "Single Substitution lookup 25 subtable" five.num
Substitution2: "Single Substitution lookup 23 subtable" five.num
Substitution2: "Single Substitution lookup 21 subtable" five.num
Substitution2: "Single Substitution lookup 19 subtable" five.num
Substitution2: "Single Substitution lookup 17 subtable" five.num
Substitution2: "Single Substitution lookup 15 subtable" five.num
EndChar

StartChar: six
Encoding: 54 54 136
Width: 560
GlyphClass: 1
Flags: W
LayerCount: 2
Fore
SplineSet
241 -10 m 0,0,1
 191 -10 191 -10 151.5 4.5 c 128,-1,2
 112 19 112 19 85 46.5 c 128,-1,3
 58 74 58 74 44 112.5 c 128,-1,4
 30 151 30 151 30 199 c 0,5,6
 30 276 30 276 48 352 c 128,-1,7
 66 428 66 428 105 496 c 128,-1,8
 144 564 144 564 206 618 c 128,-1,9
 268 672 268 672 356.5 704 c 128,-1,10
 445 736 445 736 562 740 c 1,11,-1
 554 662 l 1,12,13
 473 660 473 660 412 643.5 c 128,-1,14
 351 627 351 627 307 599.5 c 128,-1,15
 263 572 263 572 232 535.5 c 128,-1,16
 201 499 201 499 182 457.5 c 128,-1,17
 163 416 163 416 151 372 c 0,18,19
 142 337 142 337 137 303.5 c 128,-1,20
 132 270 132 270 130 240 c 128,-1,21
 128 210 128 210 128 187 c 0,22,23
 128 149 128 149 141 121 c 128,-1,24
 154 93 154 93 180 78.5 c 128,-1,25
 206 64 206 64 243 64 c 0,26,27
 281 64 281 64 307.5 76 c 128,-1,28
 334 88 334 88 352 113 c 128,-1,29
 370 138 370 138 383 176 c 0,30,31
 387 190 387 190 390 204.5 c 128,-1,32
 393 219 393 219 395.5 234.5 c 128,-1,33
 398 250 398 250 399 266 c 128,-1,34
 400 282 400 282 400 299 c 0,35,36
 400 329 400 329 390 350.5 c 128,-1,37
 380 372 380 372 361 383 c 128,-1,38
 342 394 342 394 316 394 c 0,39,40
 282 394 282 394 250.5 382.5 c 128,-1,41
 219 371 219 371 185.5 337 c 128,-1,42
 152 303 152 303 112 234 c 1,43,-1
 116 310 l 1,44,45
 149 364 149 364 182 399 c 128,-1,46
 215 434 215 434 254 451 c 128,-1,47
 293 468 293 468 344 468 c 0,48,49
 396 468 396 468 431 447 c 128,-1,50
 466 426 466 426 483.5 387 c 128,-1,51
 501 348 501 348 501 294 c 0,52,53
 501 237 501 237 485 182.5 c 128,-1,54
 469 128 469 128 436.5 84.5 c 128,-1,55
 404 41 404 41 355.5 15.5 c 128,-1,56
 307 -10 307 -10 241 -10 c 0,0,1
EndSplineSet
Substitution2: "'pnum' Proportional Numbers in Latin lookup 55 subtable" six.midprop
Substitution2: "'lnum' Lining Figures in Latin lookup 54 subtable" six.lintab
Substitution2: "'onum' Oldstyle Figures in Latin lookup 53 subtable" six.oldtab
Substitution2: "'sinf' Scientific Inferiors in Latin lookup 52 subtable" six.sub
Substitution2: "'subs' Subscript in Latin lookup 51 subtable" six.sub
Substitution2: "'sups' Superscript in Latin lookup 50 subtable" six.sup
Substitution2: "'numr' Numerators in Latin lookup 49 subtable" six.num
Substitution2: "'dnom' Denominators in Latin lookup 48 subtable" six.den
Substitution2: "Single Substitution lookup 35 subtable" six.den
Substitution2: "Single Substitution lookup 33 subtable" six.num
Substitution2: "Single Substitution lookup 31 subtable" six.num
Substitution2: "Single Substitution lookup 29 subtable" six.num
Substitution2: "Single Substitution lookup 27 subtable" six.num
Substitution2: "Single Substitution lookup 25 subtable" six.num
Substitution2: "Single Substitution lookup 23 subtable" six.num
Substitution2: "Single Substitution lookup 21 subtable" six.num
Substitution2: "Single Substitution lookup 19 subtable" six.num
Substitution2: "Single Substitution lookup 17 subtable" six.num
Substitution2: "Single Substitution lookup 15 subtable" six.num
EndChar

StartChar: seven
Encoding: 55 55 137
Width: 560
GlyphClass: 1
Flags: W
LayerCount: 2
Fore
SplineSet
292 619 m 2,0,-1
 524 619 l 1,1,-1
 514 641 l 1,2,3
 485 621 485 621 442.5 580.5 c 128,-1,4
 400 540 400 540 351 481.5 c 128,-1,5
 302 423 302 423 252.5 348.5 c 128,-1,6
 203 274 203 274 160.5 186 c 128,-1,7
 118 98 118 98 89 0 c 1,8,-1
 194 0 l 1,9,10
 229 123 229 123 269 214 c 128,-1,11
 309 305 309 305 355 375 c 128,-1,12
 401 445 401 445 455 504.5 c 128,-1,13
 509 564 509 564 572 624 c 1,14,-1
 593 710 l 1,15,-1
 121 710 l 1,16,-1
 68 492 l 1,17,-1
 143 492 l 1,18,-1
 173 576 l 2,19,20
 179 594 179 594 191 603 c 128,-1,21
 203 612 203 612 227 615.5 c 128,-1,22
 251 619 251 619 292 619 c 2,0,-1
EndSplineSet
Substitution2: "'pnum' Proportional Numbers in Latin lookup 55 subtable" seven.midprop
Substitution2: "'lnum' Lining Figures in Latin lookup 54 subtable" seven.lintab
Substitution2: "'onum' Oldstyle Figures in Latin lookup 53 subtable" seven.oldtab
Substitution2: "'sinf' Scientific Inferiors in Latin lookup 52 subtable" seven.sub
Substitution2: "'subs' Subscript in Latin lookup 51 subtable" seven.sub
Substitution2: "'sups' Superscript in Latin lookup 50 subtable" seven.sup
Substitution2: "'numr' Numerators in Latin lookup 49 subtable" seven.num
Substitution2: "'dnom' Denominators in Latin lookup 48 subtable" seven.den
Substitution2: "Single Substitution lookup 35 subtable" seven.den
Substitution2: "Single Substitution lookup 33 subtable" seven.num
Substitution2: "Single Substitution lookup 31 subtable" seven.num
Substitution2: "Single Substitution lookup 29 subtable" seven.num
Substitution2: "Single Substitution lookup 27 subtable" seven.num
Substitution2: "Single Substitution lookup 25 subtable" seven.num
Substitution2: "Single Substitution lookup 23 subtable" seven.num
Substitution2: "Single Substitution lookup 21 subtable" seven.num
Substitution2: "Single Substitution lookup 19 subtable" seven.num
Substitution2: "Single Substitution lookup 17 subtable" seven.num
Substitution2: "Single Substitution lookup 15 subtable" seven.num
EndChar

StartChar: eight
Encoding: 56 56 138
Width: 560
GlyphClass: 1
Flags: W
LayerCount: 2
Fore
SplineSet
254 62 m 0,0,1
 288 62 288 62 312.5 73.5 c 128,-1,2
 337 85 337 85 355 111 c 128,-1,3
 373 137 373 137 384 181 c 0,4,5
 389 200 389 200 390.5 216.5 c 128,-1,6
 392 233 392 233 392 248 c 0,7,8
 392 284 392 284 377 306.5 c 128,-1,9
 362 329 362 329 334 339.5 c 128,-1,10
 306 350 306 350 266 350 c 0,11,12
 230 350 230 350 202 340.5 c 128,-1,13
 174 331 174 331 155 306.5 c 128,-1,14
 136 282 136 282 125 236 c 0,15,16
 121 221 121 221 119.5 205.5 c 128,-1,17
 118 190 118 190 118 178 c 0,18,19
 118 140 118 140 132.5 114 c 128,-1,20
 147 88 147 88 177.5 75 c 128,-1,21
 208 62 208 62 254 62 c 0,0,1
333 412 m 0,22,23
 364 412 364 412 386 419.5 c 128,-1,24
 408 427 408 427 423.5 447.5 c 128,-1,25
 439 468 439 468 449 506 c 0,26,27
 453 520 453 520 455 538.5 c 128,-1,28
 457 557 457 557 457 572 c 0,29,30
 457 601 457 601 444 622 c 128,-1,31
 431 643 431 643 405.5 654.5 c 128,-1,32
 380 666 380 666 343 666 c 0,33,34
 309 666 309 666 284 655.5 c 128,-1,35
 259 645 259 645 243.5 621.5 c 128,-1,36
 228 598 228 598 219 562 c 0,37,38
 216 547 216 547 215 534.5 c 128,-1,39
 214 522 214 522 214 510 c 0,40,41
 214 476 214 476 229 454.5 c 128,-1,42
 244 433 244 433 271 422.5 c 128,-1,43
 298 412 298 412 333 412 c 0,22,23
252 -10 m 0,44,45
 177 -10 177 -10 124 13.5 c 128,-1,46
 71 37 71 37 42.5 80.5 c 128,-1,47
 14 124 14 124 14 182 c 0,48,49
 14 246 14 246 42.5 291.5 c 128,-1,50
 71 337 71 337 123.5 362.5 c 128,-1,51
 176 388 176 388 248 391 c 1,52,-1
 221 383 l 1,53,-1
 226 399 l 1,54,-1
 248 385 l 1,55,56
 211 396 211 396 183 416.5 c 128,-1,57
 155 437 155 437 139 467 c 128,-1,58
 123 497 123 497 123 536 c 0,59,60
 123 576 123 576 136.5 611.5 c 128,-1,61
 150 647 150 647 177 675 c 128,-1,62
 204 703 204 703 245.5 719 c 128,-1,63
 287 735 287 735 343 735 c 0,64,65
 411 735 411 735 456 715.5 c 128,-1,66
 501 696 501 696 524 659.5 c 128,-1,67
 547 623 547 623 547 571 c 0,68,69
 547 506 547 506 521 462.5 c 128,-1,70
 495 419 495 419 452 397 c 128,-1,71
 409 375 409 375 356 372 c 1,72,-1
 378 379 l 1,73,-1
 374 366 l 1,74,-1
 352 378 l 1,75,76
 393 366 393 366 425.5 344 c 128,-1,77
 458 322 458 322 477 289 c 128,-1,78
 496 256 496 256 496 210 c 0,79,80
 496 152 496 152 469 101.5 c 128,-1,81
 442 51 442 51 387.5 20.5 c 128,-1,82
 333 -10 333 -10 252 -10 c 0,44,45
EndSplineSet
Substitution2: "'pnum' Proportional Numbers in Latin lookup 55 subtable" eight.midprop
Substitution2: "'lnum' Lining Figures in Latin lookup 54 subtable" eight.lintab
Substitution2: "'onum' Oldstyle Figures in Latin lookup 53 subtable" eight.oldtab
Substitution2: "'sinf' Scientific Inferiors in Latin lookup 52 subtable" eight.sub
Substitution2: "'subs' Subscript in Latin lookup 51 subtable" eight.sub
Substitution2: "'sups' Superscript in Latin lookup 50 subtable" eight.sup
Substitution2: "'numr' Numerators in Latin lookup 49 subtable" eight.num
Substitution2: "'dnom' Denominators in Latin lookup 48 subtable" eight.den
Substitution2: "Single Substitution lookup 35 subtable" eight.den
Substitution2: "Single Substitution lookup 33 subtable" eight.num
Substitution2: "Single Substitution lookup 31 subtable" eight.num
Substitution2: "Single Substitution lookup 29 subtable" eight.num
Substitution2: "Single Substitution lookup 27 subtable" eight.num
Substitution2: "Single Substitution lookup 25 subtable" eight.num
Substitution2: "Single Substitution lookup 23 subtable" eight.num
Substitution2: "Single Substitution lookup 21 subtable" eight.num
Substitution2: "Single Substitution lookup 19 subtable" eight.num
Substitution2: "Single Substitution lookup 17 subtable" eight.num
Substitution2: "Single Substitution lookup 15 subtable" eight.num
EndChar

StartChar: nine
Encoding: 57 57 139
Width: 560
GlyphClass: 1
Flags: W
LayerCount: 2
Fore
SplineSet
316 735 m 0,0,1
 250 735 250 735 201 709 c 128,-1,2
 152 683 152 683 119.5 640 c 128,-1,3
 87 597 87 597 71 544 c 128,-1,4
 55 491 55 491 55 437 c 0,5,6
 55 385 55 385 72.5 347 c 128,-1,7
 90 309 90 309 124 288 c 128,-1,8
 158 267 158 267 208 267 c 0,9,10
 264 267 264 267 304.5 284.5 c 128,-1,11
 345 302 345 302 379.5 337 c 128,-1,12
 414 372 414 372 450 425 c 1,13,-1
 444 483 l 1,14,15
 404 427 404 427 370.5 396 c 128,-1,16
 337 365 337 365 306 353 c 128,-1,17
 275 341 275 341 240 341 c 0,18,19
 211 341 211 341 193 353 c 128,-1,20
 175 365 175 365 166.5 386 c 128,-1,21
 158 407 158 407 158 433 c 0,22,23
 158 453 158 453 160 471.5 c 128,-1,24
 162 490 162 490 165.5 508.5 c 128,-1,25
 169 527 169 527 174 543 c 0,26,27
 182 572 182 572 196 594.5 c 128,-1,28
 210 617 210 617 228 631.5 c 128,-1,29
 246 646 246 646 268.5 653.5 c 128,-1,30
 291 661 291 661 317 661 c 0,31,32
 356 661 356 661 380 648 c 128,-1,33
 404 635 404 635 415.5 609 c 128,-1,34
 427 583 427 583 427 541 c 0,35,36
 427 512 427 512 424.5 477 c 128,-1,37
 422 442 422 442 416 404.5 c 128,-1,38
 410 367 410 367 398 330 c 0,39,40
 386 288 386 288 365.5 249 c 128,-1,41
 345 210 345 210 314 177 c 128,-1,42
 283 144 283 144 239.5 119 c 128,-1,43
 196 94 196 94 137.5 79.5 c 128,-1,44
 79 65 79 65 2 63 c 1,45,-1
 -6 -15 l 1,46,47
 111 -11 111 -11 199.5 19.5 c 128,-1,48
 288 50 288 50 350 101.5 c 128,-1,49
 412 153 412 153 451 220.5 c 128,-1,50
 490 288 490 288 508 366.5 c 128,-1,51
 526 445 526 445 526 528 c 0,52,53
 526 578 526 578 513 616.5 c 128,-1,54
 500 655 500 655 473.5 681.5 c 128,-1,55
 447 708 447 708 407.5 721.5 c 128,-1,56
 368 735 368 735 316 735 c 0,0,1
EndSplineSet
Substitution2: "'pnum' Proportional Numbers in Latin lookup 55 subtable" nine.midprop
Substitution2: "'lnum' Lining Figures in Latin lookup 54 subtable" nine.lintab
Substitution2: "'onum' Oldstyle Figures in Latin lookup 53 subtable" nine.oldtab
Substitution2: "'sinf' Scientific Inferiors in Latin lookup 52 subtable" nine.sub
Substitution2: "'subs' Subscript in Latin lookup 51 subtable" nine.sub
Substitution2: "'sups' Superscript in Latin lookup 50 subtable" nine.sup
Substitution2: "'numr' Numerators in Latin lookup 49 subtable" nine.num
Substitution2: "'dnom' Denominators in Latin lookup 48 subtable" nine.den
Substitution2: "Single Substitution lookup 35 subtable" nine.den
Substitution2: "Single Substitution lookup 33 subtable" nine.num
Substitution2: "Single Substitution lookup 31 subtable" nine.num
Substitution2: "Single Substitution lookup 29 subtable" nine.num
Substitution2: "Single Substitution lookup 27 subtable" nine.num
Substitution2: "Single Substitution lookup 25 subtable" nine.num
Substitution2: "Single Substitution lookup 23 subtable" nine.num
Substitution2: "Single Substitution lookup 21 subtable" nine.num
Substitution2: "Single Substitution lookup 19 subtable" nine.num
Substitution2: "Single Substitution lookup 17 subtable" nine.num
Substitution2: "Single Substitution lookup 15 subtable" nine.num
EndChar

StartChar: underscore
Encoding: 95 95 143
Width: 532
GlyphClass: 1
Flags: W
LayerCount: 2
Fore
SplineSet
-2 -91 m 1,0,-1
 538 -91 l 1,1,-1
 534 -159 l 1,2,-1
 -5 -159 l 1,3,-1
 -2 -91 l 1,0,-1
EndSplineSet
EndChar

StartChar: hyphen
Encoding: 45 45 144
Width: 478
GlyphClass: 1
Flags: W
LayerCount: 2
Fore
SplineSet
92 337 m 1,0,-1
 407 337 l 1,1,-1
 387 256 l 1,2,-1
 73 256 l 1,3,-1
 92 337 l 1,0,-1
EndSplineSet
EndChar

StartChar: endash
Encoding: 150 8211 145
Width: 645
GlyphClass: 1
Flags: W
LayerCount: 2
Fore
SplineSet
90 348 m 1,0,-1
 572 348 l 1,1,-1
 556 282 l 1,2,-1
 75 282 l 1,3,-1
 90 348 l 1,0,-1
EndSplineSet
EndChar

StartChar: emdash
Encoding: 151 8212 146
Width: 1001
GlyphClass: 1
Flags: W
LayerCount: 2
Fore
SplineSet
90 348 m 1,0,-1
 928 348 l 1,1,-1
 913 282 l 1,2,-1
 75 282 l 1,3,-1
 90 348 l 1,0,-1
EndSplineSet
EndChar

StartChar: parenleft
Encoding: 40 40 147
Width: 419
GlyphClass: 1
Flags: W
LayerCount: 2
Fore
SplineSet
156 216 m 0,0,1
 156 317 156 317 183 400 c 128,-1,2
 210 483 210 483 256 548 c 128,-1,3
 302 613 302 613 362.5 662.5 c 128,-1,4
 423 712 423 712 490 747 c 1,5,-1
 491 750 l 1,6,-1
 391 750 l 1,7,8
 336 727 336 727 277.5 681 c 128,-1,9
 219 635 219 635 169.5 566.5 c 128,-1,10
 120 498 120 498 89.5 409.5 c 128,-1,11
 59 321 59 321 59 212 c 0,12,13
 59 131 59 131 81.5 65.5 c 128,-1,14
 104 0 104 0 136.5 -49 c 128,-1,15
 169 -98 169 -98 200 -130 c 1,16,-1
 292 -130 l 1,17,-1
 293 -127 l 1,18,19
 261 -91 261 -91 229 -43 c 128,-1,20
 197 5 197 5 176.5 68.5 c 128,-1,21
 156 132 156 132 156 216 c 0,0,1
EndSplineSet
EndChar

StartChar: parenright
Encoding: 41 41 148
Width: 403
GlyphClass: 1
Flags: W
LayerCount: 2
Fore
SplineSet
252 404 m 0,0,1
 252 303 252 303 225.5 220 c 128,-1,2
 199 137 199 137 152.5 72 c 128,-1,3
 106 7 106 7 46 -42.5 c 128,-1,4
 -14 -92 -14 -92 -82 -127 c 1,5,-1
 -83 -130 l 1,6,-1
 18 -130 l 1,7,8
 73 -107 73 -107 131.5 -61 c 128,-1,9
 190 -15 190 -15 239.5 53.5 c 128,-1,10
 289 122 289 122 319 211 c 128,-1,11
 349 300 349 300 349 408 c 0,12,13
 349 489 349 489 327 554.5 c 128,-1,14
 305 620 305 620 272.5 669.5 c 128,-1,15
 240 719 240 719 209 750 c 1,16,-1
 116 750 l 1,17,-1
 115 747 l 1,18,19
 148 711 148 711 179.5 663.5 c 128,-1,20
 211 616 211 616 231.5 551.5 c 128,-1,21
 252 487 252 487 252 404 c 0,0,1
EndSplineSet
EndChar

StartChar: bracketleft
Encoding: 91 91 149
Width: 403
GlyphClass: 1
Flags: W
LayerCount: 2
Fore
SplineSet
259 -60 m 1,0,-1
 243 -130 l 1,1,-1
 -29 -130 l 1,2,-1
 191 750 l 1,3,-1
 459 750 l 1,4,-1
 443 680 l 1,5,-1
 271 680 l 1,6,-1
 84 -60 l 1,7,-1
 259 -60 l 1,0,-1
EndSplineSet
EndChar

StartChar: bracketright
Encoding: 93 93 150
Width: 403
GlyphClass: 1
Flags: W
LayerCount: 2
Fore
SplineSet
136 680 m 1,0,-1
 152 750 l 1,1,-1
 424 750 l 1,2,-1
 204 -130 l 1,3,-1
 -64 -130 l 1,4,-1
 -47 -60 l 1,5,-1
 125 -60 l 1,6,-1
 312 680 l 1,7,-1
 136 680 l 1,0,-1
EndSplineSet
EndChar

StartChar: braceleft
Encoding: 123 123 151
Width: 455
GlyphClass: 1
Flags: W
LayerCount: 2
Fore
SplineSet
329 191 m 0,0,1
 329 169 329 169 310 148.5 c 128,-1,2
 291 128 291 128 261.5 108.5 c 128,-1,3
 232 89 232 89 203 68 c 128,-1,4
 174 47 174 47 154.5 23.5 c 128,-1,5
 135 0 135 0 135 -28 c 0,6,7
 135 -49 135 -49 146 -61 c 128,-1,8
 157 -73 157 -73 177 -77.5 c 128,-1,9
 197 -82 197 -82 225 -82 c 0,10,11
 255 -81 255 -81 281.5 -78.5 c 128,-1,12
 308 -76 308 -76 326 -73 c 1,13,-1
 300 -137 l 1,14,15
 288 -141 288 -141 258 -144.5 c 128,-1,16
 228 -148 228 -148 204 -148 c 0,17,18
 150 -148 150 -148 112 -137 c 128,-1,19
 74 -126 74 -126 54 -101 c 128,-1,20
 34 -76 34 -76 34 -34 c 0,21,22
 34 2 34 2 51.5 30.5 c 128,-1,23
 69 59 69 59 97 81.5 c 128,-1,24
 125 104 125 104 156 124 c 128,-1,25
 187 144 187 144 215.5 163.5 c 128,-1,26
 244 183 244 183 263 205 c 1,27,-1
 265 176 l 1,28,-1
 33 264 l 1,29,-1
 49 335 l 1,30,-1
 292 417 l 1,31,-1
 285 392 l 1,32,33
 276 418 276 418 259.5 445.5 c 128,-1,34
 243 473 243 473 225 502.5 c 128,-1,35
 207 532 207 532 194.5 560.5 c 128,-1,36
 182 589 182 589 182 616 c 0,37,38
 182 650 182 650 199 681 c 128,-1,39
 216 712 216 712 258 732 c 128,-1,40
 300 752 300 752 375 752 c 0,41,42
 406 752 406 752 434 748.5 c 128,-1,43
 462 745 462 745 485 737 c 1,44,-1
 472 671 l 1,45,46
 451 677 451 677 426 680 c 128,-1,47
 401 683 401 683 373 683 c 0,48,49
 340 683 340 683 319 676.5 c 128,-1,50
 298 670 298 670 289 656 c 128,-1,51
 280 642 280 642 280 617 c 0,52,53
 280 600 280 600 287.5 578.5 c 128,-1,54
 295 557 295 557 307 534.5 c 128,-1,55
 319 512 319 512 330 489.5 c 128,-1,56
 341 467 341 467 349 447.5 c 128,-1,57
 357 428 357 428 357 413 c 0,58,59
 357 395 357 395 348 381 c 128,-1,60
 339 367 339 367 316.5 354.5 c 128,-1,61
 294 342 294 342 252 330 c 128,-1,62
 210 318 210 318 144 306 c 1,63,-1
 141 292 l 1,64,65
 194 278 194 278 230 266 c 128,-1,66
 266 254 266 254 288 243.5 c 128,-1,67
 310 233 310 233 319.5 220.5 c 128,-1,68
 329 208 329 208 329 191 c 0,0,1
EndSplineSet
EndChar

StartChar: braceright
Encoding: 125 125 152
Width: 455
GlyphClass: 1
Flags: W
LayerCount: 2
Fore
SplineSet
136 415 m 0,0,1
 136 437 136 437 155 457.5 c 128,-1,2
 174 478 174 478 203.5 497.5 c 128,-1,3
 233 517 233 517 262 538 c 128,-1,4
 291 559 291 559 310.5 582.5 c 128,-1,5
 330 606 330 606 330 633 c 0,6,7
 330 655 330 655 319 666.5 c 128,-1,8
 308 678 308 678 287.5 683 c 128,-1,9
 267 688 267 688 240 688 c 0,10,11
 210 687 210 687 183.5 684.5 c 128,-1,12
 157 682 157 682 139 678 c 1,13,-1
 165 742 l 1,14,15
 178 747 178 747 207.5 750.5 c 128,-1,16
 237 754 237 754 261 754 c 0,17,18
 315 754 315 754 353 742.5 c 128,-1,19
 391 731 391 731 411 706.5 c 128,-1,20
 431 682 431 682 431 639 c 0,21,22
 431 603 431 603 413.5 575 c 128,-1,23
 396 547 396 547 368 524.5 c 128,-1,24
 340 502 340 502 309 482 c 128,-1,25
 278 462 278 462 249.5 442.5 c 128,-1,26
 221 423 221 423 202 401 c 1,27,-1
 200 430 l 1,28,-1
 432 342 l 1,29,-1
 416 271 l 1,30,-1
 173 189 l 1,31,-1
 180 214 l 1,32,33
 189 189 189 189 205.5 161 c 128,-1,34
 222 133 222 133 240 103.5 c 128,-1,35
 258 74 258 74 270.5 45.5 c 128,-1,36
 283 17 283 17 283 -10 c 0,37,38
 283 -44 283 -44 266 -75 c 128,-1,39
 249 -106 249 -106 207 -126 c 128,-1,40
 165 -146 165 -146 90 -146 c 0,41,42
 60 -146 60 -146 32 -143 c 128,-1,43
 4 -140 4 -140 -20 -131 c 1,44,-1
 -7 -65 l 1,45,46
 14 -71 14 -71 39 -74.5 c 128,-1,47
 64 -78 64 -78 92 -78 c 0,48,49
 125 -78 125 -78 146 -71 c 128,-1,50
 167 -64 167 -64 176 -49.5 c 128,-1,51
 185 -35 185 -35 185 -11 c 0,52,53
 185 6 185 6 177 27 c 128,-1,54
 169 48 169 48 158 71 c 128,-1,55
 147 94 147 94 135.5 116 c 128,-1,56
 124 138 124 138 116 157.5 c 128,-1,57
 108 177 108 177 108 192 c 0,58,59
 108 210 108 210 117 224.5 c 128,-1,60
 126 239 126 239 148.5 251 c 128,-1,61
 171 263 171 263 213 275 c 128,-1,62
 255 287 255 287 321 300 c 1,63,-1
 324 313 l 1,64,65
 271 328 271 328 235 339.5 c 128,-1,66
 199 351 199 351 177.5 362 c 128,-1,67
 156 373 156 373 146 385.5 c 128,-1,68
 136 398 136 398 136 415 c 0,0,1
EndSplineSet
EndChar

StartChar: numbersign
Encoding: 35 35 153
Width: 757
GlyphClass: 1
Flags: W
LayerCount: 2
Fore
SplineSet
126 0 m 1,0,-1
 390 780 l 1,1,-1
 464 780 l 1,2,-1
 200 0 l 1,3,-1
 126 0 l 1,0,-1
58 218 m 1,4,-1
 67 294 l 1,5,-1
 656 294 l 1,6,-1
 647 218 l 1,7,-1
 58 218 l 1,4,-1
146 506 m 1,8,-1
 157 582 l 1,9,-1
 746 582 l 1,10,-1
 735 506 l 1,11,-1
 146 506 l 1,8,-1
345 0 m 1,12,-1
 607 780 l 1,13,-1
 683 780 l 1,14,-1
 419 0 l 1,15,-1
 345 0 l 1,12,-1
EndSplineSet
EndChar

StartChar: percent
Encoding: 37 37 154
Width: 756
GlyphClass: 1
Flags: W
LayerCount: 2
Fore
SplineSet
295 622 m 0,0,1
 295 647 295 647 291 660.5 c 128,-1,2
 287 674 287 674 277 680 c 128,-1,3
 267 686 267 686 249 686 c 0,4,5
 229 686 229 686 214 672.5 c 128,-1,6
 199 659 199 659 188 637 c 128,-1,7
 177 615 177 615 170.5 589 c 128,-1,8
 164 563 164 563 161 537.5 c 128,-1,9
 158 512 158 512 158 491 c 0,10,11
 158 467 158 467 162 453 c 128,-1,12
 166 439 166 439 175.5 433 c 128,-1,13
 185 427 185 427 203 427 c 0,14,15
 222 427 222 427 237 440.5 c 128,-1,16
 252 454 252 454 263 475.5 c 128,-1,17
 274 497 274 497 281.5 523.5 c 128,-1,18
 289 550 289 550 292 575.5 c 128,-1,19
 295 601 295 601 295 622 c 0,0,1
75 499 m 0,20,21
 75 535 75 535 84.5 578.5 c 128,-1,22
 94 622 94 622 115.5 661 c 128,-1,23
 137 700 137 700 171 725 c 128,-1,24
 205 750 205 750 255 750 c 0,25,26
 294 750 294 750 322 733 c 128,-1,27
 350 716 350 716 365 685.5 c 128,-1,28
 380 655 380 655 380 614 c 0,29,30
 380 578 380 578 369.5 534.5 c 128,-1,31
 359 491 359 491 337.5 452 c 128,-1,32
 316 413 316 413 281.5 388 c 128,-1,33
 247 363 247 363 198 363 c 0,34,35
 159 363 159 363 131 380 c 128,-1,36
 103 397 103 397 89 427.5 c 128,-1,37
 75 458 75 458 75 499 c 0,20,21
624 243 m 0,38,39
 624 268 624 268 620 281.5 c 128,-1,40
 616 295 616 295 606 301 c 128,-1,41
 596 307 596 307 578 307 c 0,42,43
 559 307 559 307 544 293.5 c 128,-1,44
 529 280 529 280 518 258 c 128,-1,45
 507 236 507 236 500.5 210 c 128,-1,46
 494 184 494 184 490.5 158.5 c 128,-1,47
 487 133 487 133 487 112 c 0,48,49
 487 88 487 88 491 74 c 128,-1,50
 495 60 495 60 504.5 54 c 128,-1,51
 514 48 514 48 532 48 c 0,52,53
 552 48 552 48 568 61.5 c 128,-1,54
 584 75 584 75 594.5 97 c 128,-1,55
 605 119 605 119 612 145 c 128,-1,56
 619 171 619 171 621.5 197 c 128,-1,57
 624 223 624 223 624 243 c 0,38,39
404 120 m 0,58,59
 404 156 404 156 413.5 199.5 c 128,-1,60
 423 243 423 243 444.5 282 c 128,-1,61
 466 321 466 321 500 346 c 128,-1,62
 534 371 534 371 584 371 c 0,63,64
 623 371 623 371 651 354 c 128,-1,65
 679 337 679 337 694 306.5 c 128,-1,66
 709 276 709 276 709 235 c 0,67,68
 709 199 709 199 698.5 155.5 c 128,-1,69
 688 112 688 112 666.5 73 c 128,-1,70
 645 34 645 34 610.5 9 c 128,-1,71
 576 -16 576 -16 527 -16 c 0,72,73
 488 -16 488 -16 460 1 c 128,-1,74
 432 18 432 18 418 48.5 c 128,-1,75
 404 79 404 79 404 120 c 0,58,59
662 710 m 1,76,-1
 739 710 l 1,77,-1
 98 0 l 1,78,-1
 21 0 l 1,79,-1
 662 710 l 1,76,-1
EndSplineSet
EndChar

StartChar: perthousand
Encoding: 137 8240 155
Width: 1109
GlyphClass: 1
Flags: W
LayerCount: 2
Fore
SplineSet
211 427 m 0,0,1
 193 427 193 427 183.5 433 c 128,-1,2
 174 439 174 439 170 453 c 128,-1,3
 166 467 166 467 166 491 c 0,4,5
 166 511 166 511 169 536.5 c 128,-1,6
 172 562 172 562 178.5 588 c 128,-1,7
 185 614 185 614 195.5 636 c 128,-1,8
 206 658 206 658 221.5 672 c 128,-1,9
 237 686 237 686 257 686 c 0,10,11
 275 686 275 686 285 680 c 128,-1,12
 295 674 295 674 299 660.5 c 128,-1,13
 303 647 303 647 303 622 c 0,14,15
 303 602 303 602 300.5 576.5 c 128,-1,16
 298 551 298 551 291 525 c 128,-1,17
 284 499 284 499 273.5 476.5 c 128,-1,18
 263 454 263 454 247.5 440.5 c 128,-1,19
 232 427 232 427 211 427 c 0,0,1
540 48 m 0,20,21
 561 48 561 48 576.5 61.5 c 128,-1,22
 592 75 592 75 602.5 97.5 c 128,-1,23
 613 120 613 120 620 146 c 128,-1,24
 627 172 627 172 629.5 197.5 c 128,-1,25
 632 223 632 223 632 243 c 0,26,27
 632 268 632 268 628 281.5 c 128,-1,28
 624 295 624 295 614 301 c 128,-1,29
 604 307 604 307 586 307 c 0,30,31
 566 307 566 307 550.5 293 c 128,-1,32
 535 279 535 279 524.5 257 c 128,-1,33
 514 235 514 235 507.5 209 c 128,-1,34
 501 183 501 183 498 157.5 c 128,-1,35
 495 132 495 132 495 112 c 0,36,37
 495 88 495 88 499 74 c 128,-1,38
 503 60 503 60 512.5 54 c 128,-1,39
 522 48 522 48 540 48 c 0,20,21
535 -16 m 0,40,41
 496 -16 496 -16 468 1 c 128,-1,42
 440 18 440 18 426 48.5 c 128,-1,43
 412 79 412 79 412 120 c 0,44,45
 412 156 412 156 421.5 199.5 c 128,-1,46
 431 243 431 243 452.5 282 c 128,-1,47
 474 321 474 321 508 346 c 128,-1,48
 542 371 542 371 592 371 c 0,49,50
 631 371 631 371 659 354 c 128,-1,51
 687 337 687 337 702 306.5 c 128,-1,52
 717 276 717 276 717 235 c 0,53,54
 717 199 717 199 706.5 155.5 c 128,-1,55
 696 112 696 112 674.5 73 c 128,-1,56
 653 34 653 34 618.5 9 c 128,-1,57
 584 -16 584 -16 535 -16 c 0,40,41
206 363 m 0,58,59
 255 363 255 363 289.5 388 c 128,-1,60
 324 413 324 413 345.5 452 c 128,-1,61
 367 491 367 491 377.5 534.5 c 128,-1,62
 388 578 388 578 388 614 c 0,63,64
 388 655 388 655 373 685.5 c 128,-1,65
 358 716 358 716 330 733 c 128,-1,66
 302 750 302 750 263 750 c 0,67,68
 213 750 213 750 179 725 c 128,-1,69
 145 700 145 700 123.5 661 c 128,-1,70
 102 622 102 622 92.5 578.5 c 128,-1,71
 83 535 83 535 83 499 c 0,72,73
 83 458 83 458 97 427.5 c 128,-1,74
 111 397 111 397 139 380 c 128,-1,75
 167 363 167 363 206 363 c 0,58,59
891 48 m 0,76,77
 912 48 912 48 927.5 61.5 c 128,-1,78
 943 75 943 75 953.5 97.5 c 128,-1,79
 964 120 964 120 971 146 c 128,-1,80
 978 172 978 172 980.5 197.5 c 128,-1,81
 983 223 983 223 983 243 c 0,82,83
 983 268 983 268 979 281.5 c 128,-1,84
 975 295 975 295 965 301 c 128,-1,85
 955 307 955 307 937 307 c 0,86,87
 917 307 917 307 901.5 293 c 128,-1,88
 886 279 886 279 875.5 257 c 128,-1,89
 865 235 865 235 858.5 209 c 128,-1,90
 852 183 852 183 849 157.5 c 128,-1,91
 846 132 846 132 846 112 c 0,92,93
 846 88 846 88 850 74 c 128,-1,94
 854 60 854 60 863.5 54 c 128,-1,95
 873 48 873 48 891 48 c 0,76,77
886 -16 m 0,96,97
 847 -16 847 -16 819 1 c 128,-1,98
 791 18 791 18 777 48.5 c 128,-1,99
 763 79 763 79 763 120 c 0,100,101
 763 156 763 156 772.5 199.5 c 128,-1,102
 782 243 782 243 803.5 282 c 128,-1,103
 825 321 825 321 859 346 c 128,-1,104
 893 371 893 371 943 371 c 0,105,106
 982 371 982 371 1010 354 c 128,-1,107
 1038 337 1038 337 1053 306.5 c 128,-1,108
 1068 276 1068 276 1068 235 c 0,109,110
 1068 199 1068 199 1057.5 155.5 c 128,-1,111
 1047 112 1047 112 1025.5 73 c 128,-1,112
 1004 34 1004 34 969.5 9 c 128,-1,113
 935 -16 935 -16 886 -16 c 0,96,97
669 710 m 1,114,-1
 746 710 l 1,115,-1
 105 0 l 1,116,-1
 28 0 l 1,117,-1
 669 710 l 1,114,-1
EndSplineSet
EndChar

StartChar: quotesingle
Encoding: 39 39 156
Width: 255
GlyphClass: 1
Flags: W
LayerCount: 2
Fore
SplineSet
277 769 m 1,0,-1
 154 769 l 1,1,2
 145 733 145 733 140.5 702 c 128,-1,3
 136 671 136 671 132 637.5 c 128,-1,4
 128 604 128 604 121 563 c 128,-1,5
 114 522 114 522 100 467 c 1,6,-1
 179 467 l 1,7,8
 193 522 193 522 206.5 563 c 128,-1,9
 220 604 220 604 233 637.5 c 128,-1,10
 246 671 246 671 257 702.5 c 128,-1,11
 268 734 268 734 277 769 c 1,0,-1
EndSplineSet
EndChar

StartChar: quoteleft
Encoding: 145 8216 158
Width: 289
GlyphClass: 1
Flags: W
LayerCount: 2
Fore
SplineSet
74 557 m 0,0,1
 74 593 74 593 80.5 624.5 c 128,-1,2
 87 656 87 656 101.5 681.5 c 128,-1,3
 116 707 116 707 138.5 728 c 128,-1,4
 161 749 161 749 191 764.5 c 128,-1,5
 221 780 221 780 260 789 c 1,6,-1
 311 727 l 1,7,8
 254 719 254 719 215.5 701.5 c 128,-1,9
 177 684 177 684 156.5 654.5 c 128,-1,10
 136 625 136 625 129 581 c 1,11,-1
 117 593 l 1,12,13
 128 599 128 599 140.5 600.5 c 128,-1,14
 153 602 153 602 163 602 c 0,15,16
 193 602 193 602 212 586.5 c 128,-1,17
 231 571 231 571 231 543 c 256,18,19
 231 515 231 515 211.5 495.5 c 128,-1,20
 192 476 192 476 154 476 c 0,21,22
 127 476 127 476 109 485.5 c 128,-1,23
 91 495 91 495 82.5 513.5 c 128,-1,24
 74 532 74 532 74 557 c 0,0,1
EndSplineSet
EndChar

StartChar: quoteright
Encoding: 146 8217 159
Width: 288
GlyphClass: 1
Flags: W
LayerCount: 2
Fore
SplineSet
284 705 m 0,0,1
 284 670 284 670 277 638.5 c 128,-1,2
 270 607 270 607 256 581 c 128,-1,3
 242 555 242 555 219.5 534.5 c 128,-1,4
 197 514 197 514 166.5 498.5 c 128,-1,5
 136 483 136 483 97 474 c 1,6,-1
 47 536 l 1,7,8
 103 543 103 543 141.5 561 c 128,-1,9
 180 579 180 579 201.5 609 c 128,-1,10
 223 639 223 639 228 681 c 1,11,-1
 240 670 l 1,12,13
 230 664 230 664 217.5 662 c 128,-1,14
 205 660 205 660 195 660 c 0,15,16
 165 660 165 660 146 676.5 c 128,-1,17
 127 693 127 693 127 719 c 0,18,19
 127 747 127 747 146 767 c 128,-1,20
 165 787 165 787 204 787 c 0,21,22
 231 787 231 787 248.5 777 c 128,-1,23
 266 767 266 767 275 749 c 128,-1,24
 284 731 284 731 284 705 c 0,0,1
EndSplineSet
EndChar

StartChar: quotedblleft
Encoding: 147 8220 160
Width: 531
GlyphClass: 1
Flags: W
LayerCount: 2
Fore
SplineSet
307 557 m 0,0,1
 307 593 307 593 314 624.5 c 128,-1,2
 321 656 321 656 335 681.5 c 128,-1,3
 349 707 349 707 371.5 728 c 128,-1,4
 394 749 394 749 424.5 764.5 c 128,-1,5
 455 780 455 780 494 789 c 1,6,-1
 544 727 l 1,7,8
 487 719 487 719 449 701.5 c 128,-1,9
 411 684 411 684 390 654.5 c 128,-1,10
 369 625 369 625 363 581 c 1,11,-1
 350 593 l 1,12,13
 361 599 361 599 373.5 600.5 c 128,-1,14
 386 602 386 602 396 602 c 0,15,16
 427 602 427 602 445.5 586.5 c 128,-1,17
 464 571 464 571 464 543 c 256,18,19
 464 515 464 515 445 495.5 c 128,-1,20
 426 476 426 476 387 476 c 0,21,22
 360 476 360 476 342 485.5 c 128,-1,23
 324 495 324 495 315.5 513.5 c 128,-1,24
 307 532 307 532 307 557 c 0,0,1
65 557 m 0,25,26
 65 593 65 593 71.5 624.5 c 128,-1,27
 78 656 78 656 92.5 681.5 c 128,-1,28
 107 707 107 707 129.5 728 c 128,-1,29
 152 749 152 749 182 764.5 c 128,-1,30
 212 780 212 780 251 789 c 1,31,-1
 302 727 l 1,32,33
 245 719 245 719 206.5 701.5 c 128,-1,34
 168 684 168 684 147.5 654.5 c 128,-1,35
 127 625 127 625 120 581 c 1,36,-1
 108 593 l 1,37,38
 119 599 119 599 131.5 600.5 c 128,-1,39
 144 602 144 602 154 602 c 0,40,41
 184 602 184 602 203 586.5 c 128,-1,42
 222 571 222 571 222 543 c 256,43,44
 222 515 222 515 202.5 495.5 c 128,-1,45
 183 476 183 476 145 476 c 0,46,47
 118 476 118 476 100 485.5 c 128,-1,48
 82 495 82 495 73.5 513.5 c 128,-1,49
 65 532 65 532 65 557 c 0,25,26
EndSplineSet
EndChar

StartChar: guilsinglleft
Encoding: 139 8249 164
Width: 390
GlyphClass: 1
Flags: W
LayerCount: 2
Fore
SplineSet
135 241 m 1,0,-1
 153 319 l 1,1,-1
 271 65 l 1,2,-1
 193 65 l 1,3,-1
 63 263 l 1,4,-1
 75 316 l 1,5,-1
 301 505 l 1,6,-1
 384 505 l 1,7,-1
 135 241 l 1,0,-1
EndSplineSet
EndChar

StartChar: guilsinglright
Encoding: 155 8250 165
Width: 390
GlyphClass: 1
Flags: W
LayerCount: 2
Fore
SplineSet
255 329 m 1,0,-1
 237 251 l 1,1,-1
 119 505 l 1,2,-1
 197 505 l 1,3,-1
 327 307 l 1,4,-1
 315 254 l 1,5,-1
 89 65 l 1,6,-1
 6 65 l 1,7,-1
 255 329 l 1,0,-1
EndSplineSet
EndChar

StartChar: guillemotright
Encoding: 187 187 167
Width: 632
GlyphClass: 1
Flags: W
LayerCount: 2
Fore
SplineSet
495 329 m 1,0,-1
 477 251 l 1,1,-1
 359 505 l 1,2,-1
 437 505 l 1,3,-1
 567 307 l 1,4,-1
 555 254 l 1,5,-1
 329 65 l 1,6,-1
 246 65 l 1,7,-1
 495 329 l 1,0,-1
253 329 m 1,8,-1
 235 251 l 1,9,-1
 117 505 l 1,10,-1
 195 505 l 1,11,-1
 324 307 l 1,12,-1
 312 254 l 1,13,-1
 87 65 l 1,14,-1
 4 65 l 1,15,-1
 253 329 l 1,8,-1
EndSplineSet
EndChar

StartChar: asterisk
Encoding: 42 42 168
Width: 509
GlyphClass: 1
Flags: W
LayerCount: 2
Fore
SplineSet
107 651 m 1,0,1
 126 635 126 635 146 624.5 c 128,-1,2
 166 614 166 614 186 605.5 c 128,-1,3
 206 597 206 597 225 587.5 c 128,-1,4
 244 578 244 578 263 564 c 1,5,-1
 287 605 l 1,6,7
 271 617 271 617 257.5 631 c 128,-1,8
 244 645 244 645 231 661 c 128,-1,9
 218 677 218 677 202 693 c 128,-1,10
 186 709 186 709 165 727 c 1,11,-1
 107 651 l 1,0,1
110 442 m 1,12,13
 134 452 134 452 154.5 463.5 c 128,-1,14
 175 475 175 475 193.5 487 c 128,-1,15
 212 499 212 499 231.5 509 c 128,-1,16
 251 519 251 519 272 526 c 1,17,-1
 255 569 l 1,18,19
 235 560 235 560 214.5 556 c 128,-1,20
 194 552 194 552 172 549 c 128,-1,21
 150 546 150 546 126 541.5 c 128,-1,22
 102 537 102 537 76 529 c 1,23,-1
 110 442 l 1,12,13
303 340 m 1,24,25
 310 365 310 365 311 388 c 128,-1,26
 312 411 312 411 311.5 433 c 128,-1,27
 311 455 311 455 311.5 477.5 c 128,-1,28
 312 500 312 500 316 523 c 1,29,-1
 269 524 l 1,30,31
 266 503 266 503 258 483.5 c 128,-1,32
 250 464 250 464 240 443 c 128,-1,33
 230 422 230 422 221 399 c 128,-1,34
 212 376 212 376 207 349 c 1,35,-1
 303 340 l 1,24,25
301 782 m 1,36,37
 295 758 295 758 293.5 735 c 128,-1,38
 292 712 292 712 292 689.5 c 128,-1,39
 292 667 292 667 292 645 c 128,-1,40
 292 623 292 623 289 600 c 1,41,-1
 336 599 l 1,42,43
 339 620 339 620 347 640 c 128,-1,44
 355 660 355 660 364.5 680.5 c 128,-1,45
 374 701 374 701 383 724 c 128,-1,46
 392 747 392 747 399 774 c 1,47,-1
 301 782 l 1,36,37
438 397 m 1,48,-1
 499 472 l 1,49,50
 479 488 479 488 459 498.5 c 128,-1,51
 439 509 439 509 419 517.5 c 128,-1,52
 399 526 399 526 379.5 536 c 128,-1,53
 360 546 360 546 341 560 c 1,54,-1
 317 519 l 1,55,56
 334 507 334 507 347 492.5 c 128,-1,57
 360 478 360 478 373 462 c 128,-1,58
 386 446 386 446 401.5 429.5 c 128,-1,59
 417 413 417 413 438 397 c 1,48,-1
533 599 m 1,60,-1
 498 686 l 1,61,62
 474 675 474 675 453 663 c 128,-1,63
 432 651 432 651 412.5 638.5 c 128,-1,64
 393 626 393 626 373 615.5 c 128,-1,65
 353 605 353 605 331 599 c 1,66,-1
 349 555 l 1,67,68
 369 563 369 563 390.5 567.5 c 128,-1,69
 412 572 412 572 435 576 c 128,-1,70
 458 580 458 580 482 585 c 128,-1,71
 506 590 506 590 533 599 c 1,60,-1
EndSplineSet
EndChar

StartChar: dagger
Encoding: 134 8224 169
Width: 550
GlyphClass: 1
Flags: W
LayerCount: 2
Fore
SplineSet
271 476 m 1,0,-1
 78 417 l 1,1,-1
 48 417 l 1,2,-1
 81 551 l 1,3,-1
 111 551 l 1,4,-1
 279 513 l 1,5,-1
 317 513 l 1,6,-1
 505 551 l 1,7,-1
 535 551 l 1,8,-1
 501 417 l 1,9,-1
 471 417 l 1,10,-1
 309 476 l 1,11,-1
 271 476 l 1,0,-1
414 710 m 1,12,-1
 402 663 l 2,13,14
 398 648 398 648 392 635.5 c 128,-1,15
 386 623 386 623 378 610 c 128,-1,16
 370 597 370 597 361.5 581.5 c 128,-1,17
 353 566 353 566 344.5 546 c 128,-1,18
 336 526 336 526 329 499 c 0,19,20
 320 462 320 462 317 437 c 128,-1,21
 314 412 314 412 315.5 395.5 c 128,-1,22
 317 379 317 379 320.5 367 c 128,-1,23
 324 355 324 355 328 345 c 1,24,-1
 321 315 l 2,25,26
 317 300 317 300 306.5 277.5 c 128,-1,27
 296 255 296 255 280 218 c 128,-1,28
 264 181 264 181 244.5 123.5 c 128,-1,29
 225 66 225 66 203 -20 c 1,30,-1
 128 -20 l 1,31,32
 149 66 149 66 158 123.5 c 128,-1,33
 167 181 167 181 169.5 218 c 128,-1,34
 172 255 172 255 173 277.5 c 128,-1,35
 174 300 174 300 178 315 c 2,36,-1
 185 345 l 1,37,38
 194 355 194 355 203.5 367 c 128,-1,39
 213 379 213 379 222.5 396 c 128,-1,40
 232 413 232 413 241.5 438 c 128,-1,41
 251 463 251 463 260 499 c 0,42,43
 267 526 267 526 269 546 c 128,-1,44
 271 566 271 566 270 581.5 c 128,-1,45
 269 597 269 597 267.5 610 c 128,-1,46
 266 623 266 623 265.5 635.5 c 128,-1,47
 265 648 265 648 269 663 c 2,48,-1
 281 710 l 1,49,-1
 414 710 l 1,12,-1
EndSplineSet
EndChar

StartChar: daggerdbl
Encoding: 135 8225 170
Width: 552
GlyphClass: 1
Flags: W
LayerCount: 2
Fore
SplineSet
-4 129 m 1,0,-1
 29 259 l 1,1,-1
 59 259 l 1,2,-1
 224 207 l 1,3,-1
 261 207 l 1,4,-1
 452 259 l 1,5,-1
 482 259 l 1,6,-1
 450 129 l 1,7,-1
 420 129 l 1,8,-1
 253 171 l 1,9,-1
 215 171 l 1,10,-1
 26 129 l 1,11,-1
 -4 129 l 1,0,-1
193 325 m 1,12,-1
 203 364 l 1,13,14
 210 370 210 370 219.5 379.5 c 128,-1,15
 229 389 229 389 240 404 c 128,-1,16
 251 419 251 419 261.5 442 c 128,-1,17
 272 465 272 465 281 499 c 0,18,19
 288 526 288 526 289.5 546 c 128,-1,20
 291 566 291 566 290 581.5 c 128,-1,21
 289 597 289 597 287.5 610 c 128,-1,22
 286 623 286 623 286 635.5 c 128,-1,23
 286 648 286 648 290 663 c 2,24,-1
 301 710 l 1,25,-1
 434 710 l 1,26,-1
 423 663 l 2,27,28
 419 648 419 648 412.5 635.5 c 128,-1,29
 406 623 406 623 398 610 c 128,-1,30
 390 597 390 597 381.5 581.5 c 128,-1,31
 373 566 373 566 365 546 c 128,-1,32
 357 526 357 526 350 499 c 0,33,34
 341 465 341 465 340 442 c 128,-1,35
 339 419 339 419 342.5 404 c 128,-1,36
 346 389 346 389 351 379.5 c 128,-1,37
 356 370 356 370 360 364 c 1,38,-1
 351 325 l 1,39,40
 344 319 344 319 334 309.5 c 128,-1,41
 324 300 324 300 313 285 c 128,-1,42
 302 270 302 270 291.5 247 c 128,-1,43
 281 224 281 224 273 190 c 0,44,45
 266 163 266 163 264 143 c 128,-1,46
 262 123 262 123 263 107.5 c 128,-1,47
 264 92 264 92 265.5 79 c 128,-1,48
 267 66 267 66 267.5 53.5 c 128,-1,49
 268 41 268 41 264 26 c 2,50,-1
 252 -21 l 1,51,-1
 119 -21 l 1,52,-1
 131 26 l 2,53,54
 135 41 135 41 141 53.5 c 128,-1,55
 147 66 147 66 155 79 c 128,-1,56
 163 92 163 92 171.5 107.5 c 128,-1,57
 180 123 180 123 188.5 143 c 128,-1,58
 197 163 197 163 204 190 c 0,59,60
 212 224 212 224 213 247 c 128,-1,61
 214 270 214 270 211 285 c 128,-1,62
 208 300 208 300 203 309.5 c 128,-1,63
 198 319 198 319 193 325 c 1,12,-1
71 430 m 1,64,-1
 104 560 l 1,65,-1
 134 560 l 1,66,-1
 302 518 l 1,67,-1
 339 518 l 1,68,-1
 527 560 l 1,69,-1
 557 560 l 1,70,-1
 524 430 l 1,71,-1
 494 430 l 1,72,-1
 330 482 l 1,73,-1
 292 482 l 1,74,-1
 101 430 l 1,75,-1
 71 430 l 1,64,-1
EndSplineSet
EndChar

StartChar: period
Encoding: 46 46 171
Width: 305
GlyphClass: 1
Flags: W
LayerCount: 2
Fore
SplineSet
215 74 m 256,0,1
 215 37 215 37 188 12.5 c 128,-1,2
 161 -12 161 -12 121 -12 c 0,3,4
 83 -12 83 -12 57.5 12 c 128,-1,5
 32 36 32 36 32 73 c 0,6,7
 32 111 32 111 58.5 135 c 128,-1,8
 85 159 85 159 123 159 c 0,9,10
 162 159 162 159 188.5 135 c 128,-1,11
 215 111 215 111 215 74 c 256,0,1
EndSplineSet
Substitution2: "Single Substitution lookup 57 subtable" period.tab
EndChar

StartChar: comma
Encoding: 44 44 172
Width: 331
GlyphClass: 1
Flags: W
LayerCount: 2
Fore
SplineSet
21 -181 m 1,0,-1
 -37 -111 l 1,1,2
 26 -105 26 -105 64 -88.5 c 128,-1,3
 102 -72 102 -72 125 -44 c 128,-1,4
 148 -16 148 -16 161 21 c 0,5,6
 163 28 163 28 165.5 32 c 128,-1,7
 168 36 168 36 170.5 38 c 128,-1,8
 173 40 173 40 174 40 c 1,9,10
 166 20 166 20 148.5 11.5 c 128,-1,11
 131 3 131 3 111 3 c 0,12,13
 77 3 77 3 55.5 24 c 128,-1,14
 34 45 34 45 34 76 c 0,15,16
 34 119 34 119 62.5 142 c 128,-1,17
 91 165 91 165 132 165 c 0,18,19
 179 165 179 165 205.5 138 c 128,-1,20
 232 111 232 111 232 63 c 0,21,22
 232 22 232 22 218 -15.5 c 128,-1,23
 204 -53 204 -53 177.5 -85.5 c 128,-1,24
 151 -118 151 -118 111.5 -142 c 128,-1,25
 72 -166 72 -166 21 -181 c 1,0,-1
EndSplineSet
Substitution2: "Single Substitution lookup 57 subtable" comma.tab
EndChar

StartChar: exclam
Encoding: 33 33 176
Width: 348
GlyphClass: 1
Flags: W
LayerCount: 2
Fore
SplineSet
335 755 m 1,0,-1
 213 755 l 1,1,2
 199 700 199 700 189.5 653.5 c 128,-1,3
 180 607 180 607 172.5 563.5 c 128,-1,4
 165 520 165 520 157 474.5 c 128,-1,5
 149 429 149 429 138 376 c 128,-1,6
 127 323 127 323 111 258 c 1,7,-1
 189 258 l 1,8,9
 205 323 205 323 220.5 376 c 128,-1,10
 236 429 236 429 251 475 c 128,-1,11
 266 521 266 521 280 564.5 c 128,-1,12
 294 608 294 608 308 654 c 128,-1,13
 322 700 322 700 335 755 c 1,0,-1
210 74 m 256,14,15
 210 37 210 37 183 12.5 c 128,-1,16
 156 -12 156 -12 117 -12 c 256,17,18
 78 -12 78 -12 52.5 12 c 128,-1,19
 27 36 27 36 27 73 c 0,20,21
 27 111 27 111 53.5 135 c 128,-1,22
 80 159 80 159 118 159 c 0,23,24
 157 159 157 159 183.5 135 c 128,-1,25
 210 111 210 111 210 74 c 256,14,15
EndSplineSet
EndChar

StartChar: exclamdown
Encoding: 161 161 177
Width: 348
GlyphClass: 1
Flags: W
LayerCount: 2
Fore
SplineSet
0 -175 m 1,0,-1
 122 -175 l 1,1,2
 136 -120 136 -120 145.5 -73.5 c 128,-1,3
 155 -27 155 -27 162.5 16.5 c 128,-1,4
 170 60 170 60 178 105.5 c 128,-1,5
 186 151 186 151 197 204 c 128,-1,6
 208 257 208 257 224 322 c 1,7,-1
 146 322 l 1,8,9
 130 257 130 257 114.5 204 c 128,-1,10
 99 151 99 151 84 105 c 128,-1,11
 69 59 69 59 55 15.5 c 128,-1,12
 41 -28 41 -28 27.5 -74 c 128,-1,13
 14 -120 14 -120 0 -175 c 1,0,-1
125 506 m 0,14,15
 125 544 125 544 152.5 568 c 128,-1,16
 180 592 180 592 218 592 c 0,17,18
 257 592 257 592 282.5 568 c 128,-1,19
 308 544 308 544 308 507 c 0,20,21
 308 469 308 469 281.5 445 c 128,-1,22
 255 421 255 421 217 421 c 256,23,24
 179 421 179 421 152 445 c 128,-1,25
 125 469 125 469 125 506 c 0,14,15
EndSplineSet
EndChar

StartChar: question
Encoding: 63 63 178
Width: 554
GlyphClass: 1
Flags: W
LayerCount: 2
Fore
SplineSet
208 428 m 1,0,1
 259 436 259 436 303 444 c 128,-1,2
 347 452 347 452 380 467 c 128,-1,3
 413 482 413 482 431 511.5 c 128,-1,4
 449 541 449 541 449 592 c 0,5,6
 449 628 449 628 436 648.5 c 128,-1,7
 423 669 423 669 396.5 678.5 c 128,-1,8
 370 688 370 688 331 688 c 0,9,10
 290 688 290 688 257.5 681 c 128,-1,11
 225 674 225 674 202.5 665.5 c 128,-1,12
 180 657 180 657 170 652 c 1,13,14
 171 655 171 655 175.5 663.5 c 128,-1,15
 180 672 180 672 188.5 681 c 128,-1,16
 197 690 197 690 210 697 c 128,-1,17
 223 704 223 704 242 705 c 1,18,-1
 209 577 l 1,19,-1
 115 577 l 1,20,-1
 153 729 l 1,21,22
 166 734 166 734 191 741.5 c 128,-1,23
 216 749 216 749 252.5 755.5 c 128,-1,24
 289 762 289 762 333 762 c 0,25,26
 402 762 402 762 450 744 c 128,-1,27
 498 726 498 726 523 689.5 c 128,-1,28
 548 653 548 653 548 596 c 0,29,30
 548 531 548 531 525.5 489 c 128,-1,31
 503 447 503 447 465 422.5 c 128,-1,32
 427 398 427 398 382.5 386 c 128,-1,33
 338 374 338 374 294 369 c 1,34,-1
 264 248 l 1,35,-1
 164 248 l 1,36,-1
 208 428 l 1,0,1
279 73 m 256,37,38
 279 36 279 36 252 11.5 c 128,-1,39
 225 -13 225 -13 186 -13 c 0,40,41
 148 -13 148 -13 122 11 c 128,-1,42
 96 35 96 35 96 71 c 0,43,44
 96 110 96 110 122.5 134 c 128,-1,45
 149 158 149 158 187 158 c 0,46,47
 226 158 226 158 252.5 134 c 128,-1,48
 279 110 279 110 279 73 c 256,37,38
EndSplineSet
EndChar

StartChar: questiondown
Encoding: 191 191 179
Width: 553
GlyphClass: 1
Flags: W
LayerCount: 2
Fore
SplineSet
329 151 m 1,0,1
 278 143 278 143 234 135 c 128,-1,2
 190 127 190 127 157.5 112 c 128,-1,3
 125 97 125 97 106.5 67.5 c 128,-1,4
 88 38 88 38 88 -13 c 0,5,6
 88 -49 88 -49 101 -69.5 c 128,-1,7
 114 -90 114 -90 141 -99.5 c 128,-1,8
 168 -109 168 -109 206 -109 c 0,9,10
 247 -109 247 -109 279.5 -102 c 128,-1,11
 312 -95 312 -95 335 -86.5 c 128,-1,12
 358 -78 358 -78 367 -73 c 1,13,14
 366 -76 366 -76 361.5 -84.5 c 128,-1,15
 357 -93 357 -93 348 -102 c 128,-1,16
 339 -111 339 -111 326 -118 c 128,-1,17
 313 -125 313 -125 295 -126 c 1,18,-1
 328 3 l 1,19,-1
 422 3 l 1,20,-1
 384 -150 l 1,21,22
 372 -154 372 -154 346.5 -162 c 128,-1,23
 321 -170 321 -170 285 -176.5 c 128,-1,24
 249 -183 249 -183 203 -183 c 0,25,26
 135 -183 135 -183 87 -165 c 128,-1,27
 39 -147 39 -147 14 -110 c 128,-1,28
 -11 -73 -11 -73 -11 -17 c 0,29,30
 -11 48 -11 48 11.5 90 c 128,-1,31
 34 132 34 132 72 156.5 c 128,-1,32
 110 181 110 181 154.5 193 c 128,-1,33
 199 205 199 205 242 210 c 1,34,-1
 273 331 l 1,35,-1
 373 331 l 1,36,-1
 329 151 l 1,0,1
258 506 m 0,37,38
 258 544 258 544 285.5 568 c 128,-1,39
 313 592 313 592 351 592 c 256,40,41
 389 592 389 592 415 568 c 128,-1,42
 441 544 441 544 441 508 c 0,43,44
 441 469 441 469 414.5 445 c 128,-1,45
 388 421 388 421 350 421 c 0,46,47
 311 421 311 421 284.5 445 c 128,-1,48
 258 469 258 469 258 506 c 0,37,38
EndSplineSet
EndChar

StartChar: slash
Encoding: 47 47 180
Width: 602
GlyphClass: 1
Flags: W
LayerCount: 2
Fore
SplineSet
576 780 m 1,0,-1
 675 780 l 1,1,-1
 26 -158 l 1,2,-1
 -73 -158 l 1,3,-1
 576 780 l 1,0,-1
EndSplineSet
Substitution2: "Single Substitution lookup 13 subtable" fraction
EndChar

StartChar: backslash
Encoding: 92 92 181
Width: 385
GlyphClass: 1
Flags: W
LayerCount: 2
Fore
SplineSet
96 780 m 1,0,-1
 373 -158 l 1,1,-1
 283 -158 l 1,2,-1
 6 780 l 1,3,-1
 96 780 l 1,0,-1
EndSplineSet
EndChar

StartChar: fraction
Encoding: 818 8260 182
Width: 282
GlyphClass: 1
Flags: W
LayerCount: 2
Fore
SplineSet
451 710 m 1,0,-1
 521 710 l 1,1,-1
 -159 0 l 1,2,-1
 -229 0 l 1,3,-1
 451 710 l 1,0,-1
EndSplineSet
EndChar

StartChar: bar
Encoding: 124 124 183
Width: 362
GlyphClass: 1
Flags: W
LayerCount: 2
Fore
SplineSet
140 780 m 1,0,-1
 221 780 l 1,1,-1
 221 -158 l 1,2,-1
 140 -158 l 1,3,-1
 140 780 l 1,0,-1
EndSplineSet
EndChar

StartChar: brokenbar
Encoding: 166 166 184
Width: 362
GlyphClass: 1
Flags: W
LayerCount: 2
Fore
SplineSet
140 780 m 1,0,-1
 221 780 l 1,1,-1
 221 404 l 1,2,-1
 140 404 l 1,3,-1
 140 780 l 1,0,-1
140 218 m 1,4,-1
 221 218 l 1,5,-1
 221 -158 l 1,6,-1
 140 -158 l 1,7,-1
 140 218 l 1,4,-1
EndSplineSet
EndChar

StartChar: at
Encoding: 64 64 185
Width: 981
GlyphClass: 1
Flags: W
LayerCount: 2
Fore
SplineSet
448 -158 m 0,0,1
 361 -158 361 -158 289 -133.5 c 128,-1,2
 217 -109 217 -109 165 -63 c 128,-1,3
 113 -17 113 -17 85 46.5 c 128,-1,4
 57 110 57 110 57 188 c 256,5,6
 57 266 57 266 80.5 338.5 c 128,-1,7
 104 411 104 411 147.5 473 c 128,-1,8
 191 535 191 535 252.5 581 c 128,-1,9
 314 627 314 627 389.5 652.5 c 128,-1,10
 465 678 465 678 553 678 c 0,11,12
 646 678 646 678 717 658 c 128,-1,13
 788 638 788 638 836.5 599.5 c 128,-1,14
 885 561 885 561 909.5 505.5 c 128,-1,15
 934 450 934 450 934 379 c 0,16,17
 934 316 934 316 918.5 257.5 c 128,-1,18
 903 199 903 199 872.5 153.5 c 128,-1,19
 842 108 842 108 798.5 81.5 c 128,-1,20
 755 55 755 55 699 55 c 0,21,22
 648 55 648 55 616.5 67 c 128,-1,23
 585 79 585 79 569 101.5 c 128,-1,24
 553 124 553 124 546 155 c 1,25,-1
 540 151 l 1,26,-1
 620 381 l 1,27,-1
 621 372 l 1,28,-1
 689 468 l 1,29,-1
 740 468 l 1,30,-1
 641 186 l 2,31,32
 636 174 636 174 634.5 166 c 128,-1,33
 633 158 633 158 633 153 c 0,34,35
 633 135 633 135 649 124.5 c 128,-1,36
 665 114 665 114 705 114 c 0,37,38
 746 114 746 114 774.5 137.5 c 128,-1,39
 803 161 803 161 820.5 199.5 c 128,-1,40
 838 238 838 238 846 285 c 128,-1,41
 854 332 854 332 854 379 c 0,42,43
 854 455 854 455 820.5 508 c 128,-1,44
 787 561 787 561 720.5 589 c 128,-1,45
 654 617 654 617 553 617 c 0,46,47
 457 617 457 617 380 582.5 c 128,-1,48
 303 548 303 548 248.5 488 c 128,-1,49
 194 428 194 428 165.5 351 c 128,-1,50
 137 274 137 274 137 188 c 0,51,52
 137 123 137 123 159.5 71 c 128,-1,53
 182 19 182 19 224.5 -18.5 c 128,-1,54
 267 -56 267 -56 326.5 -76.5 c 128,-1,55
 386 -97 386 -97 460 -97 c 0,56,57
 501 -97 501 -97 538 -89.5 c 128,-1,58
 575 -82 575 -82 607 -71 c 128,-1,59
 639 -60 639 -60 664 -49 c 1,60,-1
 669 -109 l 1,61,62
 646 -122 646 -122 611.5 -133 c 128,-1,63
 577 -144 577 -144 535.5 -151 c 128,-1,64
 494 -158 494 -158 448 -158 c 0,0,1
424 49 m 0,65,66
 383 49 383 49 354.5 67 c 128,-1,67
 326 85 326 85 312 114.5 c 128,-1,68
 298 144 298 144 298 180 c 0,69,70
 298 222 298 222 313 272.5 c 128,-1,71
 328 323 328 323 356 369 c 128,-1,72
 384 415 384 415 425.5 444.5 c 128,-1,73
 467 474 467 474 520 474 c 0,74,75
 568 474 568 474 592.5 455 c 128,-1,76
 617 436 617 436 628 401.5 c 128,-1,77
 639 367 639 367 645 319 c 1,78,-1
 618 281 l 1,79,80
 615 327 615 327 605 355.5 c 128,-1,81
 595 384 595 384 576 397 c 128,-1,82
 557 410 557 410 525 410 c 0,83,84
 494 410 494 410 471.5 391 c 128,-1,85
 449 372 449 372 433 342.5 c 128,-1,86
 417 313 417 313 407 280 c 128,-1,87
 397 247 397 247 392 218 c 128,-1,88
 387 189 387 189 387 172 c 0,89,90
 387 152 387 152 393.5 138.5 c 128,-1,91
 400 125 400 125 412.5 119 c 128,-1,92
 425 113 425 113 444 113 c 0,93,94
 466 113 466 113 484.5 122.5 c 128,-1,95
 503 132 503 132 521 150.5 c 128,-1,96
 539 169 539 169 561 194 c 1,97,-1
 586 182 l 1,98,99
 553 136 553 136 529.5 106.5 c 128,-1,100
 506 77 506 77 482 63 c 128,-1,101
 458 49 458 49 424 49 c 0,65,66
EndSplineSet
EndChar

StartChar: ampersand
Encoding: 38 38 186
Width: 773
GlyphClass: 1
Flags: W
LayerCount: 2
Fore
SplineSet
640 0 m 1,0,-1
 494 0 l 1,1,2
 438 83 438 83 394.5 147 c 128,-1,3
 351 211 351 211 320 262 c 128,-1,4
 289 313 289 313 268.5 355.5 c 128,-1,5
 248 398 248 398 238.5 437 c 128,-1,6
 229 476 229 476 229 516 c 0,7,8
 229 577 229 577 251.5 622.5 c 128,-1,9
 274 668 274 668 318 693 c 128,-1,10
 362 718 362 718 426 718 c 0,11,12
 478 718 478 718 515 702 c 128,-1,13
 552 686 552 686 571 656.5 c 128,-1,14
 590 627 590 627 590 584 c 0,15,16
 590 523 590 523 556 484 c 128,-1,17
 522 445 522 445 462.5 421.5 c 128,-1,18
 403 398 403 398 327 384 c 1,19,-1
 312 444 l 1,20,21
 379 459 379 459 420 472.5 c 128,-1,22
 461 486 461 486 479.5 510.5 c 128,-1,23
 498 535 498 535 498 581 c 0,24,25
 498 604 498 604 491 619 c 128,-1,26
 484 634 484 634 468 641.5 c 128,-1,27
 452 649 452 649 425 649 c 0,28,29
 388 649 388 649 366 635.5 c 128,-1,30
 344 622 344 622 334 592.5 c 128,-1,31
 324 563 324 563 324 515 c 0,32,33
 324 485 324 485 330 457.5 c 128,-1,34
 336 430 336 430 349.5 399.5 c 128,-1,35
 363 369 363 369 386 331.5 c 128,-1,36
 409 294 409 294 443 244.5 c 128,-1,37
 477 195 477 195 524 129 c 0,38,39
 541 107 541 107 554.5 95 c 128,-1,40
 568 83 568 83 584 79 c 128,-1,41
 600 75 600 75 623 75 c 2,42,-1
 657 75 l 1,43,-1
 640 0 l 1,0,-1
266 66 m 0,44,45
 318 66 318 66 364 86 c 128,-1,46
 410 106 410 106 448.5 138 c 128,-1,47
 487 170 487 170 516 205 c 128,-1,48
 545 240 545 240 561 271.5 c 128,-1,49
 577 303 577 303 578 320 c 0,50,51
 578 324 578 324 571.5 326 c 128,-1,52
 565 328 565 328 555 329 c 128,-1,53
 545 330 545 330 535 330 c 2,54,-1
 526 330 l 1,55,-1
 544 406 l 1,56,-1
 758 406 l 1,57,-1
 740 330 l 1,58,-1
 731 330 l 2,59,60
 696 330 696 330 678 321.5 c 128,-1,61
 660 313 660 313 647 282 c 0,62,63
 633 249 633 249 608 210 c 128,-1,64
 583 171 583 171 548.5 132.5 c 128,-1,65
 514 94 514 94 470 61.5 c 128,-1,66
 426 29 426 29 373 9.5 c 128,-1,67
 320 -10 320 -10 259 -10 c 0,68,69
 181 -10 181 -10 128.5 14.5 c 128,-1,70
 76 39 76 39 49.5 84 c 128,-1,71
 23 129 23 129 23 190 c 0,72,73
 23 243 23 243 42.5 285 c 128,-1,74
 62 327 62 327 96 358.5 c 128,-1,75
 130 390 130 390 175 410 c 128,-1,76
 220 430 220 430 271 438 c 1,77,-1
 286 375 l 1,78,79
 234 367 234 367 199 343.5 c 128,-1,80
 164 320 164 320 146 284.5 c 128,-1,81
 128 249 128 249 128 203 c 256,82,83
 128 157 128 157 142 126.5 c 128,-1,84
 156 96 156 96 186.5 81 c 128,-1,85
 217 66 217 66 266 66 c 0,44,45
EndSplineSet
EndChar

StartChar: section
Encoding: 167 167 187
Width: 623
GlyphClass: 1
Flags: W
LayerCount: 2
Fore
SplineSet
191 -236 m 0,0,1
 128 -236 128 -236 86 -229 c 128,-1,2
 44 -222 44 -222 16 -212.5 c 128,-1,3
 -12 -203 -12 -203 -30 -195 c 1,4,-1
 6 -40 l 1,5,-1
 110 -40 l 1,6,-1
 76 -179 l 1,7,8
 68 -171 68 -171 60.5 -163.5 c 128,-1,9
 53 -156 53 -156 48 -149 c 128,-1,10
 43 -142 43 -142 41.5 -136 c 128,-1,11
 40 -130 40 -130 41 -125 c 1,12,13
 58 -135 58 -135 78 -143.5 c 128,-1,14
 98 -152 98 -152 125 -156.5 c 128,-1,15
 152 -161 152 -161 190 -161 c 0,16,17
 244 -161 244 -161 279 -146.5 c 128,-1,18
 314 -132 314 -132 330.5 -107 c 128,-1,19
 347 -82 347 -82 347 -50 c 0,20,21
 347 -23 347 -23 334 -2.5 c 128,-1,22
 321 18 321 18 299 35 c 128,-1,23
 277 52 277 52 249.5 67 c 128,-1,24
 222 82 222 82 193 98 c 0,25,26
 160 117 160 117 132.5 135 c 128,-1,27
 105 153 105 153 84.5 173 c 128,-1,28
 64 193 64 193 53 217.5 c 128,-1,29
 42 242 42 242 42 273 c 0,30,31
 42 310 42 310 55.5 340 c 128,-1,32
 69 370 69 370 96 391.5 c 128,-1,33
 123 413 123 413 161 424.5 c 128,-1,34
 199 436 199 436 248 436 c 1,35,-1
 304 380 l 1,36,37
 251 381 251 381 214.5 372 c 128,-1,38
 178 363 178 363 158.5 341.5 c 128,-1,39
 139 320 139 320 139 283 c 0,40,41
 139 255 139 255 157 235 c 128,-1,42
 175 215 175 215 206.5 197 c 128,-1,43
 238 179 238 179 281 155 c 0,44,45
 323 132 323 132 360 104.5 c 128,-1,46
 397 77 397 77 421.5 41 c 128,-1,47
 446 5 446 5 446 -43 c 0,48,49
 446 -105 446 -105 411.5 -148 c 128,-1,50
 377 -191 377 -191 319 -213.5 c 128,-1,51
 261 -236 261 -236 191 -236 c 0,0,1
369 57 m 1,52,-1
 315 115 l 1,53,54
 361 117 361 117 396.5 126 c 128,-1,55
 432 135 432 135 452.5 155 c 128,-1,56
 473 175 473 175 473 208 c 0,57,58
 473 233 473 233 462 250.5 c 128,-1,59
 451 268 451 268 431.5 283 c 128,-1,60
 412 298 412 298 386.5 312 c 128,-1,61
 361 326 361 326 332 345 c 0,62,63
 291 371 291 371 255 400 c 128,-1,64
 219 429 219 429 196.5 465.5 c 128,-1,65
 174 502 174 502 174 549 c 0,66,67
 174 587 174 587 189.5 618.5 c 128,-1,68
 205 650 205 650 235 672.5 c 128,-1,69
 265 695 265 695 309.5 707.5 c 128,-1,70
 354 720 354 720 413 720 c 0,71,72
 470 720 470 720 510.5 714 c 128,-1,73
 551 708 551 708 577 699.5 c 128,-1,74
 603 691 603 691 617 684 c 1,75,-1
 581 533 l 1,76,-1
 480 533 l 1,77,-1
 512 665 l 1,78,79
 526 664 526 664 536.5 650.5 c 128,-1,80
 547 637 547 637 553 623 c 128,-1,81
 559 609 559 609 558 605 c 1,82,83
 545 620 545 620 524.5 628.5 c 128,-1,84
 504 637 504 637 476.5 641.5 c 128,-1,85
 449 646 449 646 413 646 c 0,86,87
 365 646 365 646 333.5 635 c 128,-1,88
 302 624 302 624 287 603.5 c 128,-1,89
 272 583 272 583 272 554 c 256,90,91
 272 525 272 525 291.5 501 c 128,-1,92
 311 477 311 477 343 454 c 128,-1,93
 375 431 375 431 411 407 c 0,94,95
 453 381 453 381 489 356 c 128,-1,96
 525 331 525 331 548.5 301 c 128,-1,97
 572 271 572 271 572 228 c 0,98,99
 572 186 572 186 557.5 154.5 c 128,-1,100
 543 123 543 123 516.5 102 c 128,-1,101
 490 81 490 81 452.5 70 c 128,-1,102
 415 59 415 59 369 57 c 1,52,-1
EndSplineSet
EndChar

StartChar: paragraph
Encoding: 182 182 188
Width: 656
GlyphClass: 1
Flags: W
LayerCount: 2
Fore
SplineSet
694 710 m 1,0,-1
 538 710 l 1,1,-1
 360 0 l 1,2,-1
 432 0 l 1,3,-1
 582 599 l 2,4,5
 586 614 586 614 596.5 621.5 c 128,-1,6
 607 629 607 629 624.5 632 c 128,-1,7
 642 635 642 635 665 635 c 2,8,-1
 676 635 l 1,9,-1
 694 710 l 1,0,-1
567 710 m 1,10,-1
 382 710 l 1,11,-1
 363 635 l 1,12,-1
 548 635 l 1,13,-1
 567 710 l 1,10,-1
248 0 m 1,14,-1
 426 710 l 1,15,-1
 335 710 l 2,16,17
 254 710 254 710 199 680.5 c 128,-1,18
 144 651 144 651 116.5 601.5 c 128,-1,19
 89 552 89 552 89 493 c 0,20,21
 89 446 89 446 108.5 408 c 128,-1,22
 128 370 128 370 164.5 348 c 128,-1,23
 201 326 201 326 253 326 c 2,24,-1
 257 326 l 1,25,-1
 177 0 l 1,26,-1
 248 0 l 1,14,-1
EndSplineSet
EndChar

StartChar: bullet
Encoding: 149 8226 190
Width: 496
GlyphClass: 1
Flags: W
LayerCount: 2
Fore
SplineSet
101 336 m 0,0,1
 101 380 101 380 121 413.5 c 128,-1,2
 141 447 141 447 175.5 465.5 c 128,-1,3
 210 484 210 484 254 484 c 0,4,5
 299 484 299 484 333 465.5 c 128,-1,6
 367 447 367 447 386.5 414.5 c 128,-1,7
 406 382 406 382 406 338 c 256,8,9
 406 294 406 294 386 260.5 c 128,-1,10
 366 227 366 227 331 208.5 c 128,-1,11
 296 190 296 190 252 190 c 256,12,13
 208 190 208 190 174 208.5 c 128,-1,14
 140 227 140 227 120.5 260 c 128,-1,15
 101 293 101 293 101 336 c 0,0,1
EndSplineSet
EndChar

StartChar: plus
Encoding: 43 43 191
Width: 560
GlyphClass: 1
Flags: W
LayerCount: 2
Fore
SplineSet
300 577 m 1,0,-1
 389 577 l 1,1,-1
 271 105 l 1,2,-1
 183 105 l 1,3,-1
 300 577 l 1,0,-1
521 379 m 1,4,-1
 504 303 l 1,5,-1
 50 303 l 1,6,-1
 67 379 l 1,7,-1
 521 379 l 1,4,-1
EndSplineSet
Substitution2: "'subs' Subscript in Latin lookup 51 subtable" plus.sub
Substitution2: "'sups' Superscript in Latin lookup 50 subtable" plus.sup
EndChar

StartChar: minus
Encoding: 823 8722 192
Width: 560
GlyphClass: 1
Flags: W
LayerCount: 2
Fore
SplineSet
507 375 m 1,0,-1
 493 308 l 1,1,-1
 59 308 l 1,2,-1
 73 375 l 1,3,-1
 507 375 l 1,0,-1
EndSplineSet
Substitution2: "'subs' Subscript in Latin lookup 51 subtable" minus.sub
Substitution2: "'sups' Superscript in Latin lookup 50 subtable" minus.sup
EndChar

StartChar: divide
Encoding: 247 247 194
Width: 560
GlyphClass: 1
Flags: W
LayerCount: 2
Fore
SplineSet
431 575 m 0,0,1
 431 539 431 539 405 515.5 c 128,-1,2
 379 492 379 492 340 492 c 0,3,4
 302 492 302 492 277 515.5 c 128,-1,5
 252 539 252 539 252 575 c 0,6,7
 252 612 252 612 277.5 635.5 c 128,-1,8
 303 659 303 659 341 659 c 0,9,10
 380 659 380 659 405.5 636 c 128,-1,11
 431 613 431 613 431 575 c 0,0,1
318 107 m 256,12,13
 318 70 318 70 292 47 c 128,-1,14
 266 24 266 24 227 24 c 0,15,16
 189 24 189 24 164.5 46.5 c 128,-1,17
 140 69 140 69 140 106 c 0,18,19
 140 144 140 144 165.5 167 c 128,-1,20
 191 190 191 190 229 190 c 256,21,22
 267 190 267 190 292.5 167 c 128,-1,23
 318 144 318 144 318 107 c 256,12,13
522 378 m 1,24,-1
 505 304 l 1,25,-1
 51 304 l 1,26,-1
 68 378 l 1,27,-1
 522 378 l 1,24,-1
EndSplineSet
EndChar

StartChar: multiply
Encoding: 215 215 195
Width: 560
GlyphClass: 1
Flags: W
LayerCount: 2
Fore
SplineSet
91 132 m 1,0,-1
 45 192 l 1,1,-1
 483 548 l 1,2,-1
 529 488 l 1,3,-1
 91 132 l 1,0,-1
383 132 m 1,4,-1
 121 495 l 1,5,-1
 187 548 l 1,6,-1
 449 185 l 1,7,-1
 383 132 l 1,4,-1
EndSplineSet
EndChar

StartChar: less
Encoding: 60 60 197
Width: 560
GlyphClass: 1
Flags: W
LayerCount: 2
Fore
SplineSet
427 101 m 1,0,-1
 447 185 l 1,1,-1
 107 355 l 1,2,-1
 97 309 l 1,3,-1
 523 479 l 1,4,-1
 543 569 l 1,5,-1
 85 380 l 1,6,-1
 65 290 l 1,7,-1
 427 101 l 1,0,-1
EndSplineSet
EndChar

StartChar: greater
Encoding: 62 62 198
Width: 560
GlyphClass: 1
Flags: W
LayerCount: 2
Fore
SplineSet
149 569 m 1,0,-1
 129 485 l 1,1,-1
 469 315 l 1,2,-1
 479 361 l 1,3,-1
 53 191 l 1,4,-1
 33 101 l 1,5,-1
 491 290 l 1,6,-1
 511 380 l 1,7,-1
 149 569 l 1,0,-1
EndSplineSet
EndChar

StartChar: logicalnot
Encoding: 172 172 199
Width: 560
GlyphClass: 1
Flags: W
LayerCount: 2
Fore
SplineSet
433 393 m 1,0,-1
 475 343 l 1,1,-1
 65 343 l 1,2,-1
 82 413 l 1,3,-1
 512 413 l 1,4,-1
 448 158 l 1,5,-1
 374 158 l 1,6,-1
 433 393 l 1,0,-1
EndSplineSet
EndChar

StartChar: infinity
Encoding: 836 8734 201
Width: 789
GlyphClass: 1
Flags: W
LayerCount: 2
Fore
SplineSet
361 334 m 0,0,1
 372 296 372 296 386.5 262.5 c 128,-1,2
 401 229 401 229 422 204 c 128,-1,3
 443 179 443 179 473.5 165 c 128,-1,4
 504 151 504 151 548 151 c 0,5,6
 593 151 593 151 630 169.5 c 128,-1,7
 667 188 667 188 694 220.5 c 128,-1,8
 721 253 721 253 735.5 296 c 128,-1,9
 750 339 750 339 750 387 c 0,10,11
 750 438 750 438 732.5 476.5 c 128,-1,12
 715 515 715 515 682 537 c 128,-1,13
 649 559 649 559 602 559 c 0,14,15
 568 559 568 559 538.5 545 c 128,-1,16
 509 531 509 531 484 505 c 128,-1,17
 459 479 459 479 437 444 c 128,-1,18
 415 409 415 409 394 368 c 1,19,-1
 432 366 l 1,20,21
 449 391 449 391 465 413 c 128,-1,22
 481 435 481 435 498.5 451.5 c 128,-1,23
 516 468 516 468 537.5 477.5 c 128,-1,24
 559 487 559 487 586 487 c 0,25,26
 619 487 619 487 642 473.5 c 128,-1,27
 665 460 665 460 677.5 435.5 c 128,-1,28
 690 411 690 411 690 377 c 0,29,30
 690 336 690 336 676 301 c 128,-1,31
 662 266 662 266 635 245 c 128,-1,32
 608 224 608 224 569 224 c 0,33,34
 534 224 534 224 512 241 c 128,-1,35
 490 258 490 258 474 292 c 128,-1,36
 458 326 458 326 441 376 c 0,37,38
 429 412 429 412 415 444.5 c 128,-1,39
 401 477 401 477 381 503 c 128,-1,40
 361 529 361 529 330.5 544 c 128,-1,41
 300 559 300 559 255 559 c 256,42,43
 210 559 210 559 172.5 540.5 c 128,-1,44
 135 522 135 522 108 489.5 c 128,-1,45
 81 457 81 457 66.5 415 c 128,-1,46
 52 373 52 373 52 327 c 0,47,48
 52 273 52 273 70.5 233.5 c 128,-1,49
 89 194 89 194 122.5 172.5 c 128,-1,50
 156 151 156 151 200 151 c 0,51,52
 235 151 235 151 265 166 c 128,-1,53
 295 181 295 181 320.5 207.5 c 128,-1,54
 346 234 346 234 367.5 268.5 c 128,-1,55
 389 303 389 303 407 341 c 1,56,-1
 369 344 l 1,57,58
 353 319 353 319 337 297 c 128,-1,59
 321 275 321 275 303.5 258.5 c 128,-1,60
 286 242 286 242 264.5 232.5 c 128,-1,61
 243 223 243 223 216 223 c 0,62,63
 184 223 184 223 160.5 236.5 c 128,-1,64
 137 250 137 250 124.5 275.5 c 128,-1,65
 112 301 112 301 112 335 c 0,66,67
 112 374 112 374 125 408.5 c 128,-1,68
 138 443 138 443 165 464.5 c 128,-1,69
 192 486 192 486 234 486 c 0,70,71
 269 486 269 486 291.5 468 c 128,-1,72
 314 450 314 450 330 416.5 c 128,-1,73
 346 383 346 383 361 334 c 0,0,1
EndSplineSet
EndChar

StartChar: dollar
Encoding: 36 36 202
Width: 560
GlyphClass: 1
Flags: W
LayerCount: 2
Fore
SplineSet
240 -3 m 0,0,1
 172 -3 172 -3 117.5 9 c 128,-1,2
 63 21 63 21 27.5 36 c 128,-1,3
 -8 51 -8 51 -21 60 c 1,4,-1
 18 217 l 1,5,-1
 107 217 l 1,6,-1
 68 63 l 1,7,8
 58 63 58 63 52 70.5 c 128,-1,9
 46 78 46 78 42.5 88 c 128,-1,10
 39 98 39 98 37.5 106 c 128,-1,11
 36 114 36 114 36 117 c 1,12,13
 53 105 53 105 82 93 c 128,-1,14
 111 81 111 81 150.5 73.5 c 128,-1,15
 190 66 190 66 239 66 c 0,16,17
 280 66 280 66 313 73 c 128,-1,18
 346 80 346 80 369 95 c 128,-1,19
 392 110 392 110 404 135 c 128,-1,20
 416 160 416 160 416 197 c 0,21,22
 416 226 416 226 403 245.5 c 128,-1,23
 390 265 390 265 368 279.5 c 128,-1,24
 346 294 346 294 318 306.5 c 128,-1,25
 290 319 290 319 260 333 c 0,26,27
 211 356 211 356 174.5 378.5 c 128,-1,28
 138 401 138 401 118 434.5 c 128,-1,29
 98 468 98 468 98 520 c 0,30,31
 98 560 98 560 112.5 594 c 128,-1,32
 127 628 127 628 156.5 653 c 128,-1,33
 186 678 186 678 232 691.5 c 128,-1,34
 278 705 278 705 341 705 c 0,35,36
 405 705 405 705 454 695.5 c 128,-1,37
 503 686 503 686 534.5 674 c 128,-1,38
 566 662 566 662 577 653 c 1,39,-1
 537 492 l 1,40,-1
 448 492 l 1,41,-1
 487 646 l 1,42,43
 496 641 496 641 502 635 c 128,-1,44
 508 629 508 629 511.5 622 c 128,-1,45
 515 615 515 615 517 608 c 128,-1,46
 519 601 519 601 520 593 c 1,47,48
 504 606 504 606 479.5 615.5 c 128,-1,49
 455 625 455 625 420.5 631 c 128,-1,50
 386 637 386 637 340 637 c 0,51,52
 300 637 300 637 270 631 c 128,-1,53
 240 625 240 625 220 612 c 128,-1,54
 200 599 200 599 189.5 578.5 c 128,-1,55
 179 558 179 558 179 530 c 0,56,57
 179 492 179 492 197.5 469.5 c 128,-1,58
 216 447 216 447 250 431 c 128,-1,59
 284 415 284 415 329 394 c 0,60,61
 363 378 363 378 394 361.5 c 128,-1,62
 425 345 425 345 449.5 323.5 c 128,-1,63
 474 302 474 302 488 273 c 128,-1,64
 502 244 502 244 502 202 c 0,65,66
 502 153 502 153 483.5 115 c 128,-1,67
 465 77 465 77 431 50.5 c 128,-1,68
 397 24 397 24 348.5 10.5 c 128,-1,69
 300 -3 300 -3 240 -3 c 0,0,1
113 -150 m 1,70,-1
 155 20 l 1,71,-1
 171 34 l 1,72,-1
 331 675 l 1,73,-1
 321 684 l 1,74,-1
 355 820 l 1,75,-1
 448 820 l 1,76,-1
 415 688 l 1,77,-1
 400 677 l 1,78,-1
 240 36 l 1,79,-1
 249 19 l 1,80,-1
 206 -150 l 1,81,-1
 113 -150 l 1,70,-1
EndSplineSet
Substitution2: "'pnum' Proportional Numbers in Latin lookup 55 subtable" dollar.proportional
EndChar

StartChar: cent
Encoding: 162 162 203
Width: 560
GlyphClass: 1
Flags: W
LayerCount: 2
Fore
SplineSet
272 -13 m 0,0,1
 214 -13 214 -13 168.5 4 c 128,-1,2
 123 21 123 21 91 51.5 c 128,-1,3
 59 82 59 82 42.5 124.5 c 128,-1,4
 26 167 26 167 26 218 c 0,5,6
 26 287 26 287 47 351 c 128,-1,7
 68 415 68 415 109 465.5 c 128,-1,8
 150 516 150 516 210 545.5 c 128,-1,9
 270 575 270 575 348 575 c 0,10,11
 405 575 405 575 449 567 c 128,-1,12
 493 559 493 559 523 549 c 128,-1,13
 553 539 553 539 565 531 c 1,14,-1
 525 372 l 1,15,-1
 435 372 l 1,16,-1
 470 513 l 1,17,18
 480 509 480 509 489 503 c 128,-1,19
 498 497 498 497 505.5 490.5 c 128,-1,20
 513 484 513 484 517 478 c 128,-1,21
 521 472 521 472 521 465 c 1,22,23
 503 474 503 474 480.5 481.5 c 128,-1,24
 458 489 458 489 426 495 c 128,-1,25
 394 501 394 501 345 501 c 0,26,27
 297 501 297 501 260 485.5 c 128,-1,28
 223 470 223 470 197 442 c 128,-1,29
 171 414 171 414 154.5 377.5 c 128,-1,30
 138 341 138 341 130.5 297.5 c 128,-1,31
 123 254 123 254 123 208 c 0,32,33
 123 152 123 152 143 119.5 c 128,-1,34
 163 87 163 87 198 74 c 128,-1,35
 233 61 233 61 278 61 c 0,36,37
 316 61 316 61 343.5 72.5 c 128,-1,38
 371 84 371 84 393.5 104 c 128,-1,39
 416 124 416 124 438 149 c 1,40,-1
 496 107 l 1,41,42
 473 73 473 73 439 46 c 128,-1,43
 405 19 405 19 362.5 3 c 128,-1,44
 320 -13 320 -13 272 -13 c 0,0,1
144 -166 m 1,45,-1
 188 11 l 1,46,-1
 206 28 l 1,47,-1
 332 534 l 1,48,-1
 321 546 l 1,49,-1
 358 703 l 1,50,-1
 450 703 l 1,51,-1
 414 555 l 1,52,-1
 395 536 l 1,53,-1
 269 33 l 1,54,-1
 280 20 l 1,55,-1
 234 -166 l 1,56,-1
 144 -166 l 1,45,-1
EndSplineSet
Substitution2: "'pnum' Proportional Numbers in Latin lookup 55 subtable" cent.proportional
EndChar

StartChar: sterling
Encoding: 163 163 204
Width: 560
GlyphClass: 1
Flags: W
LayerCount: 2
Fore
SplineSet
370 660 m 0,0,1
 319 660 319 660 290 643.5 c 128,-1,2
 261 627 261 627 249 598 c 128,-1,3
 237 569 237 569 237 532 c 0,4,5
 237 501 237 501 241.5 474 c 128,-1,6
 246 447 246 447 252 420.5 c 128,-1,7
 258 394 258 394 262.5 364.5 c 128,-1,8
 267 335 267 335 267 299 c 0,9,10
 267 236 267 236 248 185.5 c 128,-1,11
 229 135 229 135 191 97 c 128,-1,12
 153 59 153 59 97 32 c 128,-1,13
 41 5 41 5 -33 -13 c 1,14,-1
 -12 76 l 1,15,16
 39 89 39 89 75.5 108 c 128,-1,17
 112 127 112 127 136 152 c 128,-1,18
 160 177 160 177 171.5 209 c 128,-1,19
 183 241 183 241 183 281 c 0,20,21
 183 313 183 313 178.5 340 c 128,-1,22
 174 367 174 367 167 392 c 128,-1,23
 160 417 160 417 153 441 c 128,-1,24
 146 465 146 465 141.5 489.5 c 128,-1,25
 137 514 137 514 137 542 c 0,26,27
 137 600 137 600 164 643.5 c 128,-1,28
 191 687 191 687 243.5 711 c 128,-1,29
 296 735 296 735 370 735 c 0,30,31
 408 735 408 735 438.5 731.5 c 128,-1,32
 469 728 469 728 493 722.5 c 128,-1,33
 517 717 517 717 534.5 711.5 c 128,-1,34
 552 706 552 706 562 701 c 1,35,-1
 518 525 l 1,36,-1
 414 525 l 1,37,-1
 453 680 l 1,38,39
 465 679 465 679 475.5 674 c 128,-1,40
 486 669 486 669 494.5 661 c 128,-1,41
 503 653 503 653 508.5 643.5 c 128,-1,42
 514 634 514 634 516 624 c 1,43,44
 496 635 496 635 475.5 643 c 128,-1,45
 455 651 455 651 429.5 655.5 c 128,-1,46
 404 660 404 660 370 660 c 0,0,1
54 386 m 1,47,-1
 448 386 l 1,48,-1
 431 312 l 1,49,-1
 37 312 l 1,50,-1
 54 386 l 1,47,-1
343 -10 m 0,51,52
 307 -10 307 -10 283 -1.5 c 128,-1,53
 259 7 259 7 240.5 25.5 c 128,-1,54
 222 44 222 44 204.5 74 c 128,-1,55
 187 104 187 104 163 147 c 1,56,-1
 203 214 l 1,57,58
 227 170 227 170 248 142.5 c 128,-1,59
 269 115 269 115 293.5 102.5 c 128,-1,60
 318 90 318 90 352 90 c 0,61,62
 380 90 380 90 397 99 c 128,-1,63
 414 108 414 108 427 131.5 c 128,-1,64
 440 155 440 155 456 196 c 1,65,-1
 516 169 l 1,66,67
 503 126 503 126 486.5 92.5 c 128,-1,68
 470 59 470 59 450 36 c 128,-1,69
 430 13 430 13 403.5 1.5 c 128,-1,70
 377 -10 377 -10 343 -10 c 0,51,52
EndSplineSet
Substitution2: "'ss05' Style Set 5 in Latin lookup 62 subtable" sterling.alt
Substitution2: "'pnum' Proportional Numbers in Latin lookup 55 subtable" sterling.proportional
EndChar

StartChar: currency
Encoding: 164 164 205
Width: 570
GlyphClass: 1
Flags: W
LayerCount: 2
Fore
SplineSet
39 111 m 1,0,-1
 -11 175 l 1,1,-1
 130 284 l 1,2,-1
 188 226 l 1,3,-1
 39 111 l 1,0,-1
88 588 m 1,4,-1
 159 645 l 1,5,-1
 246 528 l 1,6,-1
 170 478 l 1,7,-1
 88 588 l 1,4,-1
291 252 m 0,8,9
 336 252 336 252 365.5 270.5 c 128,-1,10
 395 289 395 289 409.5 321.5 c 128,-1,11
 424 354 424 354 424 396 c 0,12,13
 424 429 424 429 412.5 451 c 128,-1,14
 401 473 401 473 377.5 484 c 128,-1,15
 354 495 354 495 317 495 c 0,16,17
 272 495 272 495 242.5 476.5 c 128,-1,18
 213 458 213 458 198.5 426 c 128,-1,19
 184 394 184 394 184 351 c 0,20,21
 184 318 184 318 195.5 296 c 128,-1,22
 207 274 207 274 231 263 c 128,-1,23
 255 252 255 252 291 252 c 0,8,9
286 174 m 256,24,25
 241 174 241 174 206 189.5 c 128,-1,26
 171 205 171 205 146.5 231.5 c 128,-1,27
 122 258 122 258 109.5 290.5 c 128,-1,28
 97 323 97 323 97 357 c 0,29,30
 97 397 97 397 115 435.5 c 128,-1,31
 133 474 133 474 164 505 c 128,-1,32
 195 536 195 536 235.5 554.5 c 128,-1,33
 276 573 276 573 321 573 c 256,34,35
 366 573 366 573 401 557.5 c 128,-1,36
 436 542 436 542 460.5 515.5 c 128,-1,37
 485 489 485 489 497.5 456.5 c 128,-1,38
 510 424 510 424 510 390 c 0,39,40
 510 350 510 350 492 311.5 c 128,-1,41
 474 273 474 273 443 242 c 128,-1,42
 412 211 412 211 371.5 192.5 c 128,-1,43
 331 174 331 174 286 174 c 256,24,25
446 101 m 1,44,-1
 357 218 l 1,45,-1
 433 268 l 1,46,-1
 517 158 l 1,47,-1
 446 101 l 1,44,-1
612 568 m 1,48,-1
 471 459 l 1,49,-1
 413 517 l 1,50,-1
 562 632 l 1,51,-1
 612 568 l 1,48,-1
EndSplineSet
EndChar

StartChar: yen
Encoding: 165 165 206
Width: 560
GlyphClass: 1
Flags: W
LayerCount: 2
Fore
SplineSet
20 220 m 1,0,-1
 489 220 l 1,1,-1
 471 148 l 1,2,-1
 2 148 l 1,3,-1
 20 220 l 1,0,-1
62 392 m 1,4,-1
 531 392 l 1,5,-1
 513 320 l 1,6,-1
 45 320 l 1,7,-1
 62 392 l 1,4,-1
251 379 m 1,8,-1
 336 379 l 1,9,-1
 267 111 l 2,10,11
 262 89 262 89 285 82 c 128,-1,12
 308 75 308 75 347 75 c 2,13,-1
 370 75 l 1,14,-1
 352 0 l 1,15,-1
 45 0 l 1,16,-1
 63 75 l 1,17,-1
 86 75 l 2,18,19
 124 75 124 75 151 82 c 128,-1,20
 178 89 178 89 183 111 c 2,21,-1
 251 379 l 1,8,-1
315 333 m 1,22,-1
 249 334 l 1,23,-1
 148 601 l 2,24,25
 140 623 140 623 126.5 629 c 128,-1,26
 113 635 113 635 93 635 c 2,27,-1
 85 635 l 1,28,-1
 103 710 l 1,29,-1
 312 710 l 1,30,-1
 294 635 l 1,31,-1
 282 635 l 2,32,33
 267 635 267 635 256 633.5 c 128,-1,34
 245 632 245 632 239 630 c 128,-1,35
 233 628 233 628 232 624 c 2,36,-1
 319 383 l 1,37,-1
 278 384 l 1,38,-1
 475 612 l 2,39,40
 477 619 477 619 472.5 624 c 128,-1,41
 468 629 468 629 458 632 c 128,-1,42
 448 635 448 635 433 635 c 2,43,-1
 427 635 l 1,44,-1
 445 710 l 1,45,-1
 643 710 l 1,46,-1
 625 635 l 1,47,-1
 617 635 l 2,48,49
 598 635 598 635 581.5 624 c 128,-1,50
 565 613 565 613 542 588 c 2,51,-1
 315 333 l 1,22,-1
EndSplineSet
Substitution2: "'pnum' Proportional Numbers in Latin lookup 55 subtable" yen.proportional
EndChar

StartChar: Euro
Encoding: 128 8364 207
Width: 560
GlyphClass: 1
Flags: W
LayerCount: 2
Fore
SplineSet
441 735 m 0,0,1
 480 735 480 735 512.5 729.5 c 128,-1,2
 545 724 545 724 568 717 c 128,-1,3
 591 710 591 710 602 705 c 1,4,-1
 565 562 l 1,5,-1
 467 562 l 1,6,-1
 494 671 l 1,7,8
 505 671 505 671 513 667 c 128,-1,9
 521 663 521 663 526.5 656.5 c 128,-1,10
 532 650 532 650 536 641.5 c 128,-1,11
 540 633 540 633 543 623 c 1,12,13
 530 633 530 633 515 640.5 c 128,-1,14
 500 648 500 648 481.5 652.5 c 128,-1,15
 463 657 463 657 439 657 c 0,16,17
 398 657 398 657 365.5 644 c 128,-1,18
 333 631 333 631 306.5 601.5 c 128,-1,19
 280 572 280 572 258.5 521.5 c 128,-1,20
 237 471 237 471 218 397 c 0,21,22
 207 355 207 355 199.5 317.5 c 128,-1,23
 192 280 192 280 188.5 247 c 128,-1,24
 185 214 185 214 185 185 c 0,25,26
 185 149 185 149 190 124 c 128,-1,27
 195 99 195 99 206.5 83.5 c 128,-1,28
 218 68 218 68 237.5 61 c 128,-1,29
 257 54 257 54 288 54 c 0,30,31
 320 54 320 54 344 64.5 c 128,-1,32
 368 75 368 75 387.5 94 c 128,-1,33
 407 113 407 113 422.5 139 c 128,-1,34
 438 165 438 165 452 195 c 1,35,-1
 518 161 l 1,36,37
 494 107 494 107 461 65 c 128,-1,38
 428 23 428 23 384 -1 c 128,-1,39
 340 -25 340 -25 283 -25 c 0,40,41
 233 -25 233 -25 196 -10.5 c 128,-1,42
 159 4 159 4 135 31.5 c 128,-1,43
 111 59 111 59 99.5 98.5 c 128,-1,44
 88 138 88 138 88 188 c 0,45,46
 88 266 88 266 101 344.5 c 128,-1,47
 114 423 114 423 141 493 c 128,-1,48
 168 563 168 563 209.5 617.5 c 128,-1,49
 251 672 251 672 308.5 703.5 c 128,-1,50
 366 735 366 735 441 735 c 0,0,1
11 299 m 1,51,-1
 375 299 l 1,52,-1
 358 223 l 1,53,-1
 -6 223 l 1,54,-1
 11 299 l 1,51,-1
55 469 m 1,55,-1
 449 469 l 1,56,-1
 430 393 l 1,57,-1
 36 393 l 1,58,-1
 55 469 l 1,55,-1
EndSplineSet
Substitution2: "'pnum' Proportional Numbers in Latin lookup 55 subtable" Euro.proportional
EndChar

StartChar: florin
Encoding: 131 402 208
Width: 560
GlyphClass: 1
Flags: W
LayerCount: 2
Fore
SplineSet
176 573 m 1,0,-1
 546 573 l 1,1,-1
 518 494 l 1,2,-1
 148 494 l 1,3,-1
 176 573 l 1,0,-1
150 -90 m 2,4,5
 131 -145 131 -145 104 -180.5 c 128,-1,6
 77 -216 77 -216 39 -233 c 128,-1,7
 1 -250 1 -250 -53 -250 c 0,8,9
 -86 -250 -86 -250 -112.5 -244.5 c 128,-1,10
 -139 -239 -139 -239 -155 -233 c 1,11,-1
 -134 -151 l 1,12,13
 -123 -154 -123 -154 -108.5 -158 c 128,-1,14
 -94 -162 -94 -162 -78 -164.5 c 128,-1,15
 -62 -167 -62 -167 -46 -167 c 0,16,17
 -23 -167 -23 -167 -6.5 -162 c 128,-1,18
 10 -157 10 -157 21 -146.5 c 128,-1,19
 32 -136 32 -136 41.5 -119 c 128,-1,20
 51 -102 51 -102 59 -79 c 2,21,-1
 317 657 l 2,22,23
 332 700 332 700 357 729.5 c 128,-1,24
 382 759 382 759 421.5 774.5 c 128,-1,25
 461 790 461 790 519 790 c 0,26,27
 564 790 564 790 598 783 c 128,-1,28
 632 776 632 776 645 771 c 1,29,-1
 621 691 l 1,30,31
 603 696 603 696 575 701.5 c 128,-1,32
 547 707 547 707 513 707 c 0,33,34
 477 707 477 707 456.5 699.5 c 128,-1,35
 436 692 436 692 425 676 c 128,-1,36
 414 660 414 660 404 633 c 2,37,-1
 150 -90 l 2,4,5
EndSplineSet
Substitution2: "'pnum' Proportional Numbers in Latin lookup 55 subtable" florin.proportional
EndChar

StartChar: asciicircum
Encoding: 94 94 209
Width: 523
GlyphClass: 1
Flags: W
LayerCount: 2
Fore
SplineSet
137 314 m 1,0,-1
 41 314 l 1,1,-1
 299 710 l 1,2,-1
 360 710 l 1,3,-1
 371 685 l 1,4,-1
 137 314 l 1,0,-1
373 314 m 1,5,-1
 315 686 l 1,6,-1
 340 710 l 1,7,-1
 401 710 l 1,8,-1
 469 314 l 1,9,-1
 373 314 l 1,5,-1
EndSplineSet
EndChar

StartChar: asciitilde
Encoding: 126 126 210
Width: 519
GlyphClass: 1
Flags: W
LayerCount: 2
Fore
SplineSet
189 479 m 0,0,1
 226 479 226 479 248 463.5 c 128,-1,2
 270 448 270 448 282.5 426 c 128,-1,3
 295 404 295 404 304 382 c 128,-1,4
 313 360 313 360 325 345 c 128,-1,5
 337 330 337 330 358 330 c 0,6,7
 377 330 377 330 391 342.5 c 128,-1,8
 405 355 405 355 415.5 377 c 128,-1,9
 426 399 426 399 434.5 425 c 128,-1,10
 443 451 443 451 450 476 c 1,11,-1
 514 457 l 1,12,13
 496 387 496 387 471 338.5 c 128,-1,14
 446 290 446 290 414.5 264 c 128,-1,15
 383 238 383 238 343 238 c 0,16,17
 306 238 306 238 284.5 253.5 c 128,-1,18
 263 269 263 269 250.5 291.5 c 128,-1,19
 238 314 238 314 228.5 336 c 128,-1,20
 219 358 219 358 206.5 373 c 128,-1,21
 194 388 194 388 173 388 c 0,22,23
 147 388 147 388 131.5 368.5 c 128,-1,24
 116 349 116 349 104.5 316.5 c 128,-1,25
 93 284 93 284 81 243 c 1,26,-1
 17 260 l 1,27,28
 36 325 36 325 56 374 c 128,-1,29
 76 423 76 423 107.5 451 c 128,-1,30
 139 479 139 479 189 479 c 0,0,1
EndSplineSet
EndChar

StartChar: acute
Encoding: 180 180 211
Width: 482
GlyphClass: 4
Flags: W
AnchorPoint: "Anchor-0" 210 527 mark 0
LayerCount: 2
Fore
SplineSet
265 819 m 2,0,1
 273 831 273 831 284.5 843 c 128,-1,2
 296 855 296 855 310.5 863 c 128,-1,3
 325 871 325 871 342 871 c 0,4,5
 368 871 368 871 381 856 c 128,-1,6
 394 841 394 841 394 820 c 0,7,8
 394 803 394 803 385 790 c 128,-1,9
 376 777 376 777 362 766 c 128,-1,10
 348 755 348 755 334 745 c 2,11,-1
 210 661 l 1,12,-1
 170 661 l 1,13,-1
 178 696 l 1,14,-1
 265 819 l 2,0,1
EndSplineSet
EndChar

StartChar: grave
Encoding: 96 96 212
Width: 482
GlyphClass: 4
Flags: W
AnchorPoint: "Anchor-0" 202 531 mark 0
LayerCount: 2
Fore
SplineSet
260 812 m 2,0,1
 253 830 253 830 243.5 843.5 c 128,-1,2
 234 857 234 857 220.5 864.5 c 128,-1,3
 207 872 207 872 187 872 c 0,4,5
 162 872 162 872 146.5 856 c 128,-1,6
 131 840 131 840 131 819 c 0,7,8
 131 806 131 806 135 795 c 128,-1,9
 139 784 139 784 146 774 c 128,-1,10
 153 764 153 764 163 754 c 2,11,-1
 260 661 l 1,12,-1
 306 661 l 1,13,-1
 309 696 l 1,14,-1
 260 812 l 2,0,1
EndSplineSet
EndChar

